<?xml version="1.0" encoding="UTF-8"?>
<svg id="Layer_1" data-name="Layer 1" xmlns="http://www.w3.org/2000/svg" viewBox="0 0 169.53 277.63">
  <defs>
    <style>
      .cls-1, .cls-2 {
        stroke: #000;
        stroke-miterlimit: 10;
        stroke-width: .75px;
      }

      .cls-2 {
        fill: #fff;
      }
    </style>
  </defs>
  <path class="cls-1" d="m57.53,52.73c-.96-3.15-.29-5.82,2.27-7.9,2.92-2.37,6.25-3.28,9.72-1.58,2.6,1.27,5.01,2.98,7.34,4.71,1.79,1.34,3.68,2.03,5.87,2.02,7.17-.04,14.31.22,21.38,1.49,5.24.95,10.4,2.23,15.18,4.65,2.92,1.48,5.67,3.37,6.22,6.83.36,2.28,1.46,3.51,3.26,4.72,3.91,2.64,5.72,6.63,6.08,11.2.29,3.58.27,7.19.27,10.78.02,19.24,0,38.48.01,57.71,0,14.92.07,29.84.01,44.76-.02,5.31-.36,10.62-.54,15.94-.07,2.21-.9,4.18-1.74,6.18-.8,1.91-1.48,3.87-2.08,5.85-.86,2.79-2.39,5.03-4.87,6.59-5.25,3.3-11.01,5.24-17.05,6.45-7.39,1.48-14.87,2.16-22.4,2.11-13.17-.09-25.99-2.34-38.45-6.62-3.87-1.33-6.91-3.61-8.65-7.43-1.42-3.12-3.14-6.14-4.24-9.37-.78-2.29-1-4.85-1.04-7.29-.17-9.99-.19-19.99-.24-29.99-.05-10.08-.08-20.16-.12-30.23-.05-11.6-.1-23.19-.16-34.79-.05-9-.16-17.99-.17-26.99,0-1.99.16-4.01.56-5.95.78-3.74,2.98-6.59,6.16-8.65,1.12-.73,1.63-1.66,1.62-2.99,0-2.43,1.01-4.52,2.88-5.95,1.85-1.42,3.91-2.62,6.01-3.63,2.18-1.05,4.53-1.75,6.91-2.64Zm66.43,31.55c-.03-.11-.07-.21-.1-.32.22-.16.44-.31.65-.47,2.16-1.57,4.33-3.14,6.49-4.72,1.44-1.06,1.59-2.48,1.07-4.07-1.04-3.15-3.26-5.13-6.26-6.35-.62-.25-.92-.03-1.28.44-2.96,3.81-6.79,6.43-11.35,7.89-8.06,2.59-16.41,3.41-24.81,3.76-9.59.4-19.09-.47-28.5-2.34-4.32-.86-8.69-1.71-12.33-4.35-2.01-1.46-3.71-3.33-5.63-5.07-.34.36-.89.88-1.38,1.45-1.47,1.73-3.08,3.37-4.35,5.25-1.6,2.38-1.24,4.62.84,6.58.89.84,1.89,1.63,2.96,2.22,2.62,1.44,5.32,2.76,7.75,4.01-4.9-.17-9.14-2.47-12.9-6.37,0,.73,0,1.11,0,1.5.05,5.16.12,10.31.16,15.47.09,12.8.17,25.59.24,38.39.07,13.44.11,26.88.16,40.32.03,7.04.05,14.08.08,21.12,0,2.12,0,4.24.04,6.36.14,6.97,3.07,12.17,9.5,15.26,10.02,4.81,20.69,6.98,31.67,7.89,8.61.71,17.18.17,25.69-1.2,7.68-1.24,15.16-3.17,22.18-6.63,4.49-2.21,7.15-5.78,8.08-10.65.28-1.45.5-2.93.54-4.4.17-5.43.35-10.87.36-16.3.04-18.44.02-36.88.02-55.32,0-.44,0-.88,0-1.32-.13-6.91-.33-13.82-.36-20.73-.02-3.47.29-6.95.42-10.42.05-1.2,0-2.41,0-3.69-.51.18-.89.31-1.57.54,1.76-1.9,1.81-3.89,1.52-5.97-.23-1.65-.4-3.31-.6-4.98-.24.11-.58.27-1.24.58,1.34-1.9,2.84-3.46,1.32-5.68-.27.18-.54.34-.79.53-3.22,2.34-6.71,4.16-10.46,5.52-6.15,2.23-12.55,3.09-19.02,3.57-2.58.19-5.17.3-7.76.45,4.05-.79,8.12-1.32,12.19-1.89,6.97-.97,13.74-2.64,19.98-5.97,1.78-.95,3.39-2.22,5.08-3.35l-.22-.37c-.34.15-.7.29-1.03.46-2.02,1.05-4.03,2.11-6.06,3.15-.3.16-.68.18-1.02.26Zm-35.02-25.71c1.09,1.17,2.05,2.2,3.08,3.3,1.31-2.37,3.31-3.09,5.73-2.91,2.91.22,5.82.44,8.72.7,2.71.25,5.4.64,7.88,1.88,2.74,1.37,3.01,3.54.68,5.56-2.38,2.06-5.16,3.32-8.19,4.05-4.56,1.08-9.2.99-13.84.8-1.39-.06-2.79-.15-4.16-.4-1.1-.2-1.72-.94-1.47-2.19.1-.48.08-.99.12-1.61-3.98.97-7.58.09-11.08-1.47-4.16-1.85-8.31-3.69-12.47-5.55-.06-.03-.08-.13-.12-.21.13-.17.27-.35.46-.61-1.54.25-2.94.47-4.34.7l-.05-.25c.63-.27,1.27-.53,1.9-.8-.02-.08-.05-.17-.07-.25-1.21.19-2.42.38-3.64.57.97-.53,2-.83,2.99-1.23.32-.13.54-.5.8-.76-.35-.02-.73-.13-1.05-.03-2.71.83-5.4,1.71-8.11,2.56-.27.08-.55.12-.83.18-.04-.11-.07-.22-.11-.33,2.84-1.16,5.69-2.32,8.53-3.48,0-.1-.02-.21-.02-.31-.42-.04-.92-.25-1.25-.09-3.23,1.47-6.53,2.82-9.6,4.58-2.83,1.62-2.9,4.45-.37,6.51,2.49,2.03,5.22,3.7,8.27,4.75,6.31,2.18,12.82,3.53,19.48,3.61,5.74.08,11.5-.25,17.23-.67,6.74-.5,13.4-1.59,19.85-3.76,2.6-.87,4.81-2.32,6.77-4.19,1.4-1.34,1.7-2.84.77-4.18-.47-.67-1.11-1.26-1.77-1.76-2.38-1.81-5.1-2.96-7.95-3.82-8.84-2.65-17.99-3.16-27.11-3.89-.13-.01-.27.09-.4.14,0,.11-.02.22-.02.33,1.6.6,3.38.26,5.27.7-1.33.18-2.44.33-3.55.49.01.16.03.32.04.48,2.04,0,4.09,0,6.13,0,0,.07-.01.14-.02.22-1.7.14-3.39.29-5.09.43,0,.16.01.31.02.47,2.16,0,4.32,0,6.49,0,0,.15,0,.3,0,.44h-5.5c0,.11,0,.22,0,.33.98.1,1.96.19,2.94.29,0,.08,0,.15-.01.23-.58.13-1.16.26-1.97.45Zm-30.41-3.91c-.33-.21-.51-.42-.64-.39-.9.16-1.8.32-2.68.55-4.1,1.08-7.85,2.73-10.41,6.34-2.72,3.82-2.23,7.17,1.52,9.97,2.71,2.03,5.68,3.59,8.95,4.48,6.34,1.71,12.82,2.71,19.36,3.21,7.27.55,14.54.43,21.79-.25,5.1-.48,10.17-1.15,15.03-2.87,4.42-1.57,8.53-3.65,11.54-7.42,2.28-2.86,2.22-5.32-.18-8.07-1.98-2.27-4.53-3.65-7.31-4.63-10.91-3.83-22.25-4.59-33.67-4.7-.35,0-.69.21-1.04.32,0,.15-.01.31-.02.46,1.34.25,2.67.6,4.02.73,6.12.61,12.26,1.06,18.38,1.74,5.1.57,10.12,1.68,14.65,4.22,1.67.94,3.28,2.17,4.55,3.59,1.62,1.81,1.39,4.18-.23,6-.66.74-1.39,1.52-2.25,1.94-2.36,1.15-4.72,2.44-7.23,3.12-14.54,3.94-29.34,5.06-44.31,3.36-6.38-.72-12.4-2.73-17.83-6.24-1.16-.75-2.29-1.65-3.19-2.69-1.83-2.13-1.68-4.65.26-6.7.54-.57,1.16-1.13,1.85-1.51,1.84-1.03,3.73-1.99,5.62-2.94,1.09-.55,2.2-1.03,3.48-1.62Zm70.64,164.51c-.61.4-1.01.66-1.41.92-4.6,3.02-9.4,5.61-14.85,6.74-7.55,1.56-15.13,2.93-22.86,3.31-10.07.5-20.04-.12-29.85-2.6-6.3-1.59-12.31-3.92-18.06-6.95-.39-.21-.89-.22-1.34-.32-.07.15-.14.29-.2.44,1.08,1.16,1.96,2.66,3.27,3.42,2.71,1.57,5.55,3.08,8.52,4.02,11.19,3.53,22.7,5.29,34.44,5.35,6.93.04,13.81-.55,20.62-1.82,6.16-1.15,12.09-2.97,17.44-6.37,2.21-1.4,3.54-3.38,4.28-6.15ZM58.49,50.27c.11,2.7,1.46,4.72,3.67,6.1,4.13,2.58,8.28,5.13,12.53,7.51,1.93,1.08,4.1,1.71,6.17,2.53,3.08,1.22,5.87.06,8.6-1.16,1.54-.69,1.68-1.74.66-3.1-.24-.32-.51-.62-.79-.9-2.06-2.07-4.09-4.17-6.19-6.18-3.7-3.55-7.67-6.77-12.07-9.41-3.96-2.38-8.24-1.94-11.05,1.09-.92.99-1.59,2.1-1.53,3.54Z"/>
  <path class="cls-2" d="m123.96,84.28c.34-.08.71-.1,1.02-.26,2.03-1.03,4.04-2.1,6.06-3.15.33-.17.69-.31,1.03-.46l.22.37c-1.69,1.13-3.3,2.4-5.08,3.35-6.25,3.34-13.02,5-19.98,5.97-4.07.57-8.15,1.09-12.19,1.89,2.59-.15,5.18-.26,7.76-.45,6.47-.48,12.87-1.34,19.02-3.57,3.74-1.36,7.23-3.18,10.46-5.52.25-.18.52-.35.79-.53,1.52,2.22.02,3.78-1.32,5.68.65-.31,1-.47,1.24-.58.2,1.66.37,3.32.6,4.98.29,2.08.23,4.08-1.52,5.97.68-.24,1.07-.37,1.57-.54,0,1.28.04,2.48,0,3.69-.13,3.47-.44,6.95-.42,10.42.03,6.91.23,13.82.36,20.73,0,.44,0,.88,0,1.32,0,18.44.03,36.88-.02,55.32-.01,5.43-.19,10.87-.36,16.3-.05,1.47-.27,2.95-.54,4.4-.94,4.87-3.59,8.44-8.08,10.65-7.03,3.46-14.5,5.39-22.18,6.63-8.52,1.38-17.08,1.91-25.69,1.2-10.98-.9-21.65-3.07-31.67-7.89-6.43-3.09-9.36-8.29-9.5-15.26-.04-2.12-.04-4.24-.04-6.36-.03-7.04-.05-14.08-.08-21.12-.05-13.44-.1-26.88-.16-40.32-.06-12.8-.15-25.59-.24-38.39-.04-5.16-.1-10.31-.16-15.47,0-.39,0-.77,0-1.5,3.76,3.9,8,6.2,12.9,6.37-2.43-1.25-5.13-2.56-7.75-4.01-1.07-.59-2.07-1.38-2.96-2.22-2.07-1.96-2.44-4.2-.84-6.58,1.26-1.87,2.87-3.52,4.35-5.25.49-.57,1.04-1.09,1.38-1.45,1.92,1.75,3.62,3.62,5.63,5.07,3.64,2.65,8.01,3.49,12.33,4.35,9.41,1.87,18.91,2.75,28.5,2.34,8.4-.35,16.75-1.17,24.81-3.76,4.56-1.47,8.39-4.08,11.35-7.89.37-.47.66-.69,1.28-.44,3,1.22,5.22,3.2,6.26,6.35.52,1.59.37,3.01-1.07,4.07-2.15,1.58-4.33,3.15-6.49,4.72-.22.16-.43.31-.65.47.03.11.07.21.1.32Zm-52.43,7.74c0-.12-.02-.24-.02-.36-.1-.04-.2-.11-.31-.12-4.81-.68-9.63-1.35-14.44-2-.21-.03-.45.15-.68.23.23.19.45.51.7.55,4.62.61,9.25,1.19,13.88,1.77.29.04.58-.04.88-.06Zm-28.2-11.35c-.09.18-.18.37-.28.55,1.88.9,3.77,1.81,5.66,2.69.08.04.31-.22.56-.42-2.07-.99-4.01-1.91-5.95-2.83Z"/>
  <path class="cls-2" d="m88.94,58.56c.81-.18,1.39-.31,1.97-.45,0-.08,0-.15.01-.23-.98-.1-1.96-.19-2.94-.29,0-.11,0-.22,0-.33h5.5c0-.15,0-.3,0-.44-2.16,0-4.32,0-6.49,0,0-.16-.01-.31-.02-.47,1.7-.14,3.39-.29,5.09-.43,0-.07.01-.14.02-.22-2.04,0-4.09,0-6.13,0-.01-.16-.03-.32-.04-.48,1.11-.15,2.22-.3,3.55-.49-1.88-.44-3.66-.09-5.27-.7,0-.11.02-.22.02-.33.13-.05.27-.15.4-.14,9.12.72,18.27,1.24,27.11,3.89,2.85.85,5.56,2.01,7.95,3.82.66.5,1.3,1.09,1.77,1.76.93,1.34.63,2.85-.77,4.18-1.96,1.87-4.17,3.32-6.77,4.19-6.45,2.17-13.11,3.26-19.85,3.76-5.73.43-11.49.75-17.23.67-6.66-.09-13.17-1.43-19.48-3.61-3.06-1.06-5.79-2.72-8.27-4.75-2.52-2.06-2.45-4.89.37-6.51,3.07-1.76,6.38-3.11,9.6-4.58.33-.15.83.05,1.25.09,0,.1.02.21.02.31-2.84,1.16-5.69,2.32-8.53,3.48.04.11.07.22.11.33.28-.06.56-.09.83-.18,2.7-.85,5.4-1.73,8.11-2.56.32-.1.7.02,1.05.03-.26.26-.48.63-.8.76-.99.4-2.02.7-2.99,1.23,1.21-.19,2.42-.38,3.64-.57.02.08.05.17.07.25-.63.27-1.27.53-1.9.8l.05.25c1.4-.22,2.8-.45,4.34-.7-.19.26-.33.43-.46.61.05.08.07.18.12.21,4.15,1.85,8.31,3.7,12.47,5.55,3.5,1.56,7.1,2.43,11.08,1.47-.04.61-.02,1.12-.12,1.61-.25,1.25.37,1.99,1.47,2.19,1.36.25,2.77.34,4.16.4,4.64.2,9.27.29,13.84-.8,3.04-.72,5.81-1.99,8.19-4.05,2.33-2.02,2.06-4.19-.68-5.56-2.48-1.24-5.17-1.63-7.88-1.88-2.91-.27-5.81-.48-8.72-.7-2.42-.18-4.42.54-5.73,2.91-1.03-1.1-1.99-2.14-3.08-3.3Z"/>
  <path class="cls-2" d="m58.53,54.66c-1.27.59-2.39,1.07-3.48,1.62-1.89.95-3.78,1.91-5.62,2.94-.68.38-1.3.94-1.85,1.51-1.94,2.04-2.09,4.57-.26,6.7.9,1.04,2.03,1.94,3.19,2.69,5.43,3.51,11.46,5.52,17.83,6.24,14.97,1.7,29.77.58,44.31-3.36,2.51-.68,4.87-1.96,7.23-3.12.86-.42,1.6-1.2,2.25-1.94,1.62-1.83,1.84-4.19.23-6-1.27-1.42-2.88-2.65-4.55-3.59-4.53-2.54-9.54-3.65-14.65-4.22-6.11-.68-12.25-1.14-18.38-1.74-1.35-.13-2.68-.48-4.02-.73,0-.15.01-.31.02-.46.35-.11.69-.32,1.04-.32,11.43.11,22.77.87,33.67,4.7,2.78.98,5.34,2.36,7.31,4.63,2.4,2.75,2.45,5.22.18,8.07-3.01,3.77-7.11,5.86-11.54,7.42-4.86,1.72-9.93,2.39-15.03,2.87-7.26.68-14.52.81-21.79.25-6.55-.5-13.02-1.5-19.36-3.21-3.27-.88-6.24-2.45-8.95-4.48-3.75-2.8-4.24-6.15-1.52-9.97,2.57-3.61,6.31-5.27,10.41-6.34.88-.23,1.78-.4,2.68-.55.13-.02.3.18.64.39Z"/>
  <path class="cls-2" d="m129.17,219.17c-.74,2.77-2.07,4.75-4.28,6.15-5.35,3.39-11.28,5.22-17.44,6.37-6.81,1.27-13.7,1.86-20.62,1.82-11.74-.07-23.25-1.82-34.44-5.35-2.97-.94-5.81-2.45-8.52-4.02-1.31-.76-2.2-2.25-3.27-3.42.07-.15.14-.29.2-.44.45.1.95.11,1.34.32,5.75,3.03,11.76,5.36,18.06,6.95,9.81,2.48,19.78,3.1,29.85,2.6,7.73-.38,15.31-1.76,22.86-3.31,5.45-1.12,10.25-3.71,14.85-6.74.4-.26.8-.52,1.41-.92Z"/>
  <path class="cls-2" d="m58.49,50.27c-.06-1.44.61-2.55,1.53-3.54,2.82-3.03,7.1-3.47,11.05-1.09,4.41,2.65,8.37,5.87,12.07,9.41,2.11,2.02,4.14,4.12,6.19,6.18.28.28.55.58.79.9,1.01,1.37.88,2.42-.66,3.1-2.73,1.22-5.53,2.38-8.6,1.16-2.07-.82-4.24-1.45-6.17-2.53-4.25-2.38-8.4-4.93-12.53-7.51-2.21-1.38-3.56-3.4-3.67-6.1Zm26.48,9.55c-.3-.61-.47-1.36-.93-1.82-2.39-2.4-4.86-4.73-7.29-7.1-.79-.77-1.69-.86-2.48-.21-1.87,1.55-3.69,3.16-5.45,4.84-.82.79-.64,2.42.25,2.94,3.17,1.83,6.32,3.72,9.59,5.38,3.03,1.54,6.02-.48,6.31-4.03Zm-17.36-13.87c-2.4.26-4.53,1.21-6.01,3.29-.38.54-.64,1.2-.79,1.84-.4,1.71.45,3.27,2.18,4.23,1.46.81,2.47.58,3.92-.84.91-.89,1.87-1.73,2.78-2.63.79-.78,1.54-1.61,2.29-2.43.52-.57.47-1.11-.11-1.65-1.18-1.11-2.55-1.75-4.26-1.82Zm21.87,17.66q-2.05-1.74-4,.2c1.12,1.79,1.46,1.78,4-.2Z"/>
  <path class="cls-1" d="m110.61,79.12c3.99-1.86,7.99-3.71,11.98-5.57-3.08,3.82-7.49,4.79-11.98,5.57Z"/>
  <path class="cls-1" d="m71.52,92.02c-.29.02-.59.09-.88.06-4.63-.57-9.25-1.16-13.88-1.77-.25-.03-.47-.36-.7-.55.23-.08.47-.26.68-.23,4.82.65,9.63,1.33,14.44,2,.11.02.21.08.31.12,0,.12.02.24.02.36Z"/>
  <path class="cls-1" d="m124.54,88.43c-1.69,2.04-9.1,4.3-12.89,3.87,4.25-1.28,8.5-2.55,12.89-3.87Z"/>
  <path class="cls-1" d="m43.33,80.67c1.94.92,3.87,1.84,5.95,2.83-.25.2-.48.46-.56.42-1.9-.88-3.78-1.79-5.66-2.69.09-.18.18-.37.28-.55Z"/>
  <path class="cls-1" d="m57.38,70.82c3.02.75,6.04,1.51,9.36,2.34-.43.27-.63.5-.76.46-2.92-.71-5.84-1.46-8.75-2.19.05-.2.11-.4.16-.61Z"/>
  <path class="cls-1" d="m74.5,74.29h11.06c0,.07,0,.13,0,.2-3.68,0-7.36,0-11.04,0,0-.07-.01-.13-.02-.2Z"/>
  <path class="cls-1" d="m84.97,59.82c-.29,3.55-3.28,5.57-6.31,4.03-3.26-1.66-6.41-3.55-9.59-5.38-.89-.51-1.07-2.15-.25-2.94,1.76-1.68,3.58-3.29,5.45-4.84.79-.65,1.69-.56,2.48.21,2.43,2.37,4.9,4.69,7.29,7.1.46.46.63,1.21.93,1.82Zm-4.24-2.85c-.01-.09-.03-.18-.04-.27-.7-.05-1.39-.1-2.09-.14.24-.26.49-.27.68-.39.3-.18.55-.43.82-.65-.33-.1-.67-.31-.99-.29-2.83.25-5.65.5-8.46.85-.49.06-.92.58-1.38.89.29.43.49,1.04.89,1.25,3,1.57,6.03,3.1,9.09,4.57,1.48.71,2.79.34,3.49-.77.7-1.11.5-1.67-.95-3.01-.31-.29-.48-.74-.82-1.29-.14-.03-.55-.11-1.11-.23.4-.24.62-.38.85-.52Zm-2.18-2.48c-2.36-1.27-5.66-.95-7.02.56,2.41-.19,4.71-.37,7.02-.56Z"/>
  <path class="cls-1" d="m67.61,45.95c1.72.08,3.08.72,4.26,1.82.58.54.63,1.08.11,1.65-.75.82-1.5,1.65-2.29,2.43-.9.9-1.87,1.74-2.78,2.63-1.45,1.42-2.46,1.65-3.92.84-1.74-.96-2.58-2.53-2.18-4.23.15-.64.41-1.31.79-1.84,1.48-2.09,3.62-3.03,6.01-3.29Zm-5.24,5.77c3.04-.64,6.58.44,8.73-2.92-3.8-2.39-7.92-.28-8.73,2.92Zm.33.9c1.68,1.94,3.41,1.67,4.3-.55-1.41.18-2.77.36-4.3.55Z"/>
  <path class="cls-1" d="m89.48,63.61c-2.54,1.98-2.88,2-4,.2q1.95-1.94,4-.2Z"/>
  <path class="cls-2" d="m80.73,56.96c-.23.14-.45.28-.85.52.56.11.97.2,1.11.23.34.55.5,1,.82,1.29,1.45,1.34,1.65,1.9.95,3.01-.7,1.11-2.02,1.47-3.49.77-3.06-1.46-6.09-2.99-9.09-4.57-.4-.21-.6-.82-.89-1.25.46-.31.89-.83,1.38-.89,2.81-.35,5.64-.6,8.46-.85.32-.03.66.19.99.29-.27.22-.53.47-.82.65-.19.12-.45.13-.68.39.7.05,1.39.1,2.09.14.01.09.03.18.04.27Z"/>
  <path class="cls-2" d="m78.54,54.48c-2.3.18-4.61.36-7.02.56,1.36-1.5,4.65-1.83,7.02-.56Z"/>
  <path class="cls-2" d="m62.37,51.72c.81-3.2,4.93-5.32,8.73-2.92-2.15,3.37-5.69,2.29-8.73,2.92Z"/>
  <path class="cls-2" d="m62.7,52.62c1.53-.2,2.89-.37,4.3-.55-.89,2.22-2.62,2.49-4.3.55Z"/>
</svg>