<?xml version="1.0" encoding="UTF-8"?>
<svg id="Layer_1" data-name="Layer 1" xmlns="http://www.w3.org/2000/svg" viewBox="0 0 885 842">
  <defs>
    <style>
      .cls-1, .cls-2 {
        stroke-width: 0px;
      }

      .cls-2 {
        fill: #fff;
      }
    </style>
  </defs>
  <path class="cls-1" d="m853,374.92v23c-.35.92-.79,1.83-1.03,2.78-3.93,15.48-8.11,30.78-16.13,44.89-9.07,15.96-17.48,32.3-25.75,48.69-2.01,3.97-3.23,8.76-3.32,13.21-.32,14.82.28,29.65.05,44.47-.2,12.86-2.97,25.26-9.74,36.38-7.32,12.02-14.6,24.1-22.69,35.59-8.44,11.98-13.16,24.73-12.81,39.5.16,6.68-1.14,13.25-7.32,17.63-1.67,1.19-2.89,3-4.35,4.55.62.59.97.93,1.33,1.26,14.94,13.85,35.08,19.13,51.21,31.02,2.67,1.97,5.36,3.94,8.23,5.57,11.18,6.33,12.39,27.6,1.36,34.08-4.93,2.89-11.21,4.95-16.85,4.88-19.67-.22-38.37-5.05-55.87-14.37-12.83-6.84-27.51-10.14-38.67-20.29-.92-.84-3.78-.27-5.36.46-7.88,3.64-15.01,8.58-24.62,7.99-5.29-.33-10.13,3.22-12.76,8.83-2.44,5.22-5.33,10.27-8.52,15.07-1.56,2.35-4.23,3.95-6.4,5.89h-5c-6.55-1.64-13.15-3.13-19.64-4.98-4.35-1.24-8.54-3.01-13.31-4.72,2.38-4.28,4.2-7.55,5.95-10.69-6.66-3.03-12.98-5.92-19.33-8.75-.72-.32-1.63-.62-2.35-.47-8.76,1.78-17.57,3.37-26.22,5.56-9,2.28-17.76,7-26.77,7.41-16.72.76-33.56-.69-50.34-1.49-11.47-.55-22.98-1.06-34.37-2.46-16-1.97-31.82-5.7-47.86-6.95-20.88-1.64-41.89-1.95-62.85-2.15-15.45-.14-30.92.83-46.38,1.29-8.99.27-18.07-.25-26.94.93-11.8,1.57-23.13.88-34.59-2.21-14.66-3.95-29.55-6.39-44.91-5.25-12.44.92-24.95,1.75-37.4,1.52-11.78-.22-22.93-3.76-32.92-10.32-8.56-5.62-16.46-12.17-26.41-15.68-10.57-3.73-13.18-18.18-8.19-26.07,1.3-2.06,4.1-3.87,6.51-4.4,4.51-.99,9.26-.81,13.87-1.37,4.77-.59,8.55-2.66,9.92-7.77,1.32-4.95-1.49-7.72-5.03-10.37-5.96-4.47-6.63-10.2-1.31-15.68,3.52-3.62,8.2-6.1,11.87-9.6,1.66-1.58,2.73-4.39,2.82-6.68.04-.89-3.28-2.14-5.21-2.85-3.24-1.18-6.86-1.56-9.85-3.15-9.22-4.91-18.05-6.53-27.61-.47-7.87,5-16.31,3.71-24.3-.32-4.5-2.27-6.7-6.04-6.89-11.28-.39-10.68,5.57-18.14,12.18-25.36,3.56-3.89,7.05-7.84,10.71-11.64,6.31-6.56,12.45-13.33,19.16-19.46,7.42-6.78,15.41-12.94,23.28-19.48-.68-.18-1.58-.44-2.48-.67-7.7-1.94-15.4-3.87-23.09-5.81-3.06-.77-3.94-2.58-2.96-5.61,1.31-4.05,2.39-8.18,3.73-12.82-3.13-.29-5.9-.61-8.68-.79-4.97-.31-8.75-2.77-10.53-7.22-1.65-4.11-.71-7.95,2.94-11.22,4.21-3.79,8.37-7.58,9.71-13.78.84-3.89,4.53-5.07,8.79-4.67,8.6.82,17.25,1.51,25.89,1.62,20.5.26,41,.19,61.49.16,7.14-.01,14.28-.42,21.42-.45,4.99-.03,6.65-2.64,6.75-7.25.1-5.19-3.11-6.05-7.17-6.03-10.16.07-20.36-.35-30.48.4-22.07,1.64-44.09,3.87-66.12,5.91-2.62.24-5.03.53-4.2-3.38-8.63,0-16.96.09-25.28-.02-8.92-.12-14.1-8.78-9.72-16.5,1.44-2.53,3.42-5.24,5.86-6.63,7.03-4.01,14.36-7.54,21.7-10.98,4.67-2.19,9.58-3.89,14.38-5.81-.02-.54-.05-1.07-.07-1.61-3.15-1.34-6.38-2.54-9.43-4.1-1.56-.8-3.72-2.1-3.93-3.44-.28-1.81.62-4.22,1.82-5.72,1.16-1.44,3.72-1.69,5.02-3.07,1.89-1.99,3.98-4.41,4.39-6.9.17-1.06-3.56-3.12-5.79-4.12-5.25-2.36-10.89-3.91-15.94-6.61-5.79-3.09-10.89-7.49-16.69-10.56-9.64-5.1-13.17-14.59-8.41-24.53.55-1.15,1.29-2.52,2.33-3.09,4.47-2.46,8.85-5.48,13.68-6.79,12.3-3.33,13.81-14.82,18.31-23.69,3.69-7.26,4.68-15.87,8.16-23.28,2.53-5.39,6.32-10.98,11.05-14.38,7.47-5.37,16.06-9.25,24.46-13.17,2.98-1.39,6.78-1.45,10.19-1.37,7.98.17,15.95,1.12,23.92,1.17,29.65.18,59.31.12,88.96.13,1.99,0,4.02-.03,5.97-.4,3.19-.61,5.71-2.14,5.5-5.93-.21-3.8-2.16-6.44-6.05-6.72-5.8-.41-11.64-.7-17.45-.51-16.63.55-33.25,1.49-49.88,2.02-9.21.29-18.45.05-28,.05,1.58-.68,2.97-1.14,4.23-1.84,4.32-2.4,5.47-6.55,5.35-11.01-.11-4.17-3.31-5.47-6.86-5.88-6.6-.77-13.22-1.37-19.82-2.16-1.61-.19-3.54-.4-4.67-1.37-2.72-2.33-4.6-14.56-2.54-17.61,4.7-6.95,10.98-12.42,19.47-13.46,11.53-1.4,23.17-2.06,34.78-2.47,10.27-.36,20.4-.49,28.63-7.95.58-.52,1.46-.85,2.24-.99,9.62-1.66,19.2-3.77,28.89-4.76,11.07-1.14,22.25-1.63,33.39-1.69,5.45-.03,7.22-2.71,9.11-7.04,1.66-3.8,4.4-7.31,7.32-10.31,1.79-1.84,5.35-2.06,5.63,1.58.36,4.73.03,9.66-.97,14.29-.99,4.6-3.63,8.83-4.79,13.41-5.36,21.08-10.48,42.22-15.62,63.35-.64,2.65-.86,5.4-1.38,8.77,6.55-.95,12.42-1.74,18.26-2.65,7.55-1.18,15.19-2.01,22.6-3.79,11.76-2.82,23.51-5.83,34.99-9.61,18.68-6.16,37.85-9.96,57.13-13.44,1.24-.22,2.57-1.93,3.18-3.26,2.14-4.63,4.25-9.31,5.89-14.13,4.96-14.61,9.56-29.34,14.61-43.91,1.6-4.6,3.94-9.01,6.45-13.2,1.05-1.75,3.42-2.7,5.19-4.02,1.29,2.35,3.68,4.72,3.65,7.05-.07,5.42-1.06,10.88-2.11,16.24-1.63,8.36-3.61,16.65-5.52,25.32,5.13-.64,9.54-1.48,13.97-1.65,2.89-.11,3.93-1.32,3.92-3.87-.05-11.9,4.68-22.5,9.08-33.17,1.96-4.75,3.95-9.54,6.59-13.91.91-1.5,3.83-1.78,5.83-2.61.48,1.74,1.66,3.62,1.33,5.19-1.39,6.8-3.25,13.5-4.88,20.25-3.24,13.39-6.48,26.77-9.63,40.18-.36,1.53-.19,3.19-.31,5.64,8.27-1.69,15.82-3.65,23.49-4.64,3.75-.49,5.22-1.93,5.74-5.28,1.15-7.38,1.6-14.97,3.73-22.06,3.95-13.19,8.85-26.09,13.47-39.08,1-2.81,1.86-6.05,3.86-8,2.02-1.97,5.37-2.59,8.14-3.8.58,2.29,1.27,4.56,1.71,6.88.18.94-.06,2.01-.29,2.97-3.01,12.49-4.52,25.37-10.45,37.07-8.21,16.22-7.19,33.81-7.63,51.57,1.85-.15,3.13-.21,4.4-.35,12.23-1.43,24.45-4.02,36.69-4.11,41.81-.3,83.62.3,125.43.4,1.27,0,3.24-1.42,3.71-2.63,3.31-8.61,5.95-17.49,9.52-25.97,2.73-6.48,6.28-12.67,9.95-18.69,1.42-2.33,4.05-5.59,7.22-3.07,1.63,1.3,2.17,4.77,2.1,7.23-.16,5.73-1,11.44-1.58,17.42,1.12.09,1.93.13,2.73.21,9.39,1,18.86,1.52,28.14,3.15,9.55,1.67,11.03,6.78,4.61,13.59-.79.84-1.66,1.59-2.5,2.38-5.9,5.54-4.81,10.92,2.64,14.35,2.47,1.13,4.71,2.92,6.78,4.72,5.06,4.42,4.68,10.41,4.08,16.26-.52,5.02.67,8.88,4.74,12.31,6.44,5.42,12.5,11.31,18.53,17.2,7.25,7.08,14.61,14.08,21.37,21.61,10.71,11.95,21.64,23.81,31.13,36.7,5.27,7.16,7.83,16.33,11.61,24.59ZM177.13,503.41c-2.54,10.81-4.87,20.7-7.22,30.72,1.23.36,1.84.57,2.47.71,23.34,5.32,46.71,10.51,70.01,15.97,21.49,5.03,42.33,13.28,64.89,12.93,17.29-.27,34.67.39,51.84-1.22,11.6-1.09,23.22-4.51,34.23-8.52,10.97-4,21.88-9.01,31.59-15.43,14.13-9.33,25.79-21.71,35.94-35.35,9.74-13.09,15.12-27.4,14.15-44.15-.65-11.28-3.31-21.91-6.28-32.69-4.55-16.48-9.86-32.2-22.65-44.61-5.9-5.73-10.05-13.21-15.42-19.55-3.83-4.53-8.78-8.13-12.48-12.75-10.16-12.69-20.15-25.53-29.78-38.63-6.1-8.3-11.48-17.13-17.07-25.79-2.39-3.71-.74-7.21,3.58-8.34,4.64-1.21,8.83-.31,11.71,3.48,2.48,3.26,3.79,7.44,6.4,10.56,6.63,7.94,12.32,16.35,16.43,25.89,1.22,2.83,3.31,5.37,5.34,7.76,5.99,7.07,12.15,13.99,18.25,20.97,9.04,10.35,18.3,20.52,27.06,31.1,9.25,11.17,19.59,21.17,30.55,30.6,6.03,5.18,12.09,10.32,18.12,15.49,3.84,3.28,8.68,5.6,9.22,11.69,1.17,13.07,3.84,26.13,3.73,39.18-.17,21.29-2.22,42.55-3.2,63.84-.91,19.79-1.55,39.56-5.69,59.06-2.31,10.87-3.69,21.93-5.75,32.85-.83,4.39-2.36,8.65-3.72,13.52,16.81,3.24,32.58,6.28,49.02,9.44,3.53-9.43,7.31-18.35,10.23-27.53,7.54-23.75,15.95-47.29,16.75-72.65.86-27.29,2.49-54.55,3.15-81.84.71-29.24-9.37-54.49-29.18-76.13-9.06-9.89-17.28-20.57-25.56-31.14-4.7-6-8.67-12.57-13.15-18.76-3.39-4.68-7.49-8.9-10.53-13.79-10.33-16.64-25.91-28.33-39.09-42.27-7.03-7.43-14.16-14.76-21.18-22.2-.77-.81-1.03-2.07-1.62-3.08-1.85-3.15-3.67-6.33-5.67-9.39-.56-.85-1.73-1.92-2.58-1.88-11.79.59-23.66.68-35.32,2.27-10.48,1.43-20.73,4.55-31.08,6.92-7.25,1.66-14.54,3.2-21.75,4.99-6.44,1.6-12.78,3.58-19.22,5.21-12.07,3.05-24.17,6-36.28,8.9-3.64.87-5.2,3.32-4.34,6.59,1.8,6.81,3.64,13.68,6.37,20.14,2.24,5.3,5.74,10.07,8.77,15.02,2.95,4.82,5.73,9.78,9.13,14.27,3.17,4.2,7.16,7.76,10.59,11.78,6.79,7.93,13.27,16.13,20.21,23.93,6.06,6.82,12.7,13.13,18.86,19.86,5.23,5.71,9.82,12.04,15.27,17.51,13.2,13.24,23.79,27.78,29.03,46.19,6.8,23.85-.27,37.56-18.13,52.46-10.5,8.76-24.44,9.83-37.97,9.49-25.97-.66-51.98-.82-77.9-2.39-21.9-1.33-43.72-4.22-65.54-6.73-9.04-1.04-18-2.88-27.55-4.45Zm497.01,130.65c11.12,1.63,21.94,3.29,32.78,4.72,1.18.16,3.07-.61,3.72-1.56,7.22-10.52,14.66-20.91,21.25-31.82,7.22-11.95,13.6-24.4,20.35-36.64,3.58-6.5,7.66-12.78,10.64-19.54,9.46-21.48,21.36-41.54,33.98-61.25,5.7-8.9,10.92-18.16,15.56-27.65,6.36-12.99,12.31-26.2,17.78-39.59,3.81-9.31,7.26-18.91,9.44-28.69,1.37-6.15,1.74-12.87-2.03-19.17-3.89-6.51-5.73-14.37-10.16-20.39-6.75-9.17-14.56-17.67-22.63-25.75-19.46-19.47-38.42-39.56-61.96-54.41-2.82-1.78-5.46-3.92-8.46-5.3-8.94-4.1-16.38-10.03-23.05-17.2-1.45-1.56-4.3-2.58-6.48-2.53-6.97.17-13.93,1.47-20.89,1.41-23.63-.22-47.26-1.05-70.89-1.22-11.29-.08-22.61,1.34-33.89,1.12-18.09-.35-36.17-2.23-53.88,3.59-2.96.97-4.62,1.97-4,4.91,1.76,8.42,2.88,17.12,5.89,25.1,4.36,11.56,9.87,22.72,15.44,33.77,3.34,6.63,6.88,13.5,11.82,18.9,8.16,8.9,14.59,18.69,20.4,29.17,3.52,6.35,7.88,12.45,12.83,17.76,9.33,10.03,19.38,19.38,29.08,29.06,7.5,7.48,7.15,20.63-.96,27.2-6.62,5.37-13.59,10.31-21.39,16.17,1.72,15.25,3.64,32.2,5.57,49.27,10.89-1.15,21.75-3.27,31.53-9.14,13.55-8.13,28.71-13.34,39.86-25.71,14.75-16.37,22.58-35.46,23.46-56.83.82-20.05-6.89-38.39-16.75-55.63-2.35-4.1-5.3-7.86-8.01-11.75-2.17-3.11-4.03-6.56-6.67-9.21-7.23-7.29-14.96-14.09-22.19-21.38-5.83-5.88-11.26-12.17-16.78-18.35-4.49-5.03-9.27-9.9-13.07-15.43-1.43-2.09-1.67-6.81-.26-8.53,1.37-1.67,5.73-1.81,8.45-1.18,2.5.58,4.92,2.76,6.74,4.8,7.16,8.02,13.82,16.49,21.15,24.35,7.6,8.15,15.19,16.47,23.79,23.48,12.06,9.82,25.01,18.56,37.65,27.65,10.36,7.44,21.64,13.67,30.18,23.47,1.17,1.34,2.85,2.29,4.42,3.22,8.86,5.23,17.72,10.47,26.66,15.56,3.36,1.91,5.2,4.03,2.98,7.96-1.78,3.15-3.37,6.4-5.03,9.62-4.61,8.97-9.39,17.86-13.79,26.93-10.49,21.61-20.8,43.31-31.16,64.98-1.07,2.24-1.92,4.6-2.94,6.87-7.93,17.69-16.86,35.01-23.58,53.15-8.24,22.26-14.63,45.2-21.79,67.86-.44,1.38-.56,2.87-.74,3.82Zm82.6-233.48c-23.43-10.03-42.29-27.36-62.55-43.13,1.98,5.03,5.03,9.21,7.5,13.71,7.91,14.36,13.46,29.34,10.95,46.18-.56,3.78-.72,7.71-1.87,11.31-3.05,9.62-5.37,19.75-10.13,28.5-7.11,13.05-17.77,23.43-30.31,31.71-2.3,1.52-4.69,3.55-5.94,5.92-7.49,14.21-15.09,28.39-21.8,42.97-4.42,9.62-7.75,19.79-10.91,29.92-2.8,8.99-4.69,18.27-7.09,27.84,8.42.47,16.55.6,24.59,1.5,4.46.5,7.33-1.05,9.79-4.35,8.13-10.88,16.29-21.73,24.41-32.62,2.58-3.46,5.81-6.68,7.43-10.55,4.4-10.51,8.19-21.27,12.04-32,2.91-8.11,5.25-16.42,8.32-24.46,4.82-12.58,9.96-25.03,15.14-37.46,2.27-5.46,5.52-10.56,7.37-16.14,4.79-14.5,13.9-26.25,23.05-38.85Zm-135.09,348.22c4.32.72,7.54.9,10.51,1.83,4.89,1.53,8.41,2.42,11.75-3.6,7.53-13.56,16.1-26.56,24.45-39.65,2.81-4.41,5.88-8.78,9.5-12.52,3.96-4.09,10.35-3.01,13.85,1.65,2.4,3.18,4.52,6.62,7.22,9.52,14.01,15.05,30.93,25.39,50.72,31.13,6.02,1.75,11.73,4.59,17.78,6.24,7.75,2.12,14.79,6.61,23.42,6.03,4.9-.33,8.3-1.62,10.21-6.17,2.01-4.78,1.68-9.5-2.26-12.85-4.24-3.61-8.98-6.78-13.9-9.4-6.58-3.5-13.39-6.72-20.39-9.27-15.44-5.62-26.16-17.94-39.24-26.9-1.44-.99-2.67-2.59-3.45-4.17-4.42-8.93-8.63-17.96-13.03-26.91-.67-1.35-1.77-3.27-2.93-3.48-9.48-1.68-19-3.22-28.57-4.3-2.06-.23-4.9,1.04-6.4,2.57-2.15,2.19-3.88,5.09-4.94,8-6.32,17.3-13.69,33.94-23.45,49.75-8.13,13.18-13.81,27.87-20.86,42.5Zm-430.76-251.93c14.07,1.69,26.71,3.26,39.37,4.65,1.14.12,2.46-.75,3.59-1.38,15.38-8.53,30.42-17.77,46.21-25.47,14.12-6.88,29.07-12.04,43.61-18.05,1.1-.46,2.38-1.43,2.8-2.47,5.13-12.67,10.11-25.4,15.14-38.13-11.37-5.26-22.86-10.37-34.17-15.87-17.02-8.29-33.91-16.86-50.86-25.3-6.61-3.29-7.51-2.99-11.13,3.53-1.33,2.4-2.73,4.76-4.12,7.17,22.42,11.23,44.54,22.32,66.65,33.4-.11.58-.22,1.16-.32,1.74-2.35,1.49-4.57,3.25-7.07,4.42-14.26,6.71-28.53,13.39-42.89,19.88-16.16,7.31-30.92,16.72-44.17,28.49-5.08,4.51-10.3,8.87-15.15,13.62-2.53,2.48-4.38,5.64-7.49,9.75Zm-58.63,31.55c-4.28,3.33-7.18,5.5-10,7.79-10.42,8.48-20.78,17.05-31.23,25.5-12.17,9.84-22.51,21.14-27.87,36.12-.98,2.73-1.02,7.33.62,9.05,1.72,1.79,5.97,1.37,9.14,1.47,1.37.04,2.95-.77,4.12-1.63,6.81-4.98,13.6-9.99,20.25-15.18,6.66-5.21,13.28-10.5,19.68-16.02,6.14-5.3,11.87-11.06,17.99-16.37,2.54-2.2,5.66-3.73,8.49-5.61,5.15-3.43,11.21-6.29,13.05-12.72,3.38-11.8,6.12-23.79,9.21-35.68.94-3.62.43-6.01-3.79-6.9-11.19-2.35-22.29-5.11-33.51-7.32-6.16-1.21-12.47-1.76-18.73-2.31-1.05-.09-2.89,1.07-3.26,2.07-3.11,8.22-5.89,16.56-8.91,24.82-1.14,3.11-.2,4.66,2.95,5.32,2.92.61,5.79,1.5,8.7,2.19,7.2,1.71,14.42,3.38,23.11,5.42Zm491.41,191.72c-4.45-3.06-8.73-5.88-12.88-8.87-7.54-5.42-15.22-10.68-22.44-16.51-8-6.45-15.41-13.63-23.37-20.14-5.35-4.38-9.96-9.53-18.05-10.15-9.69-.74-19.24-3.45-28.84-5.41-4.52-.92-9-2.08-13.73-3.18-.4,1.38-.8,2.46-1.04,3.57-2.19,10.42-4.9,20.53-9.61,30.3-3.15,6.54-3.78,14.38-4.88,21.74-.25,1.7,1.83,5.02,3.47,5.51,8.09,2.41,16.37,4.18,24.61,6.05,2.77.63,4.8-.42,5.84-3.29,2.32-6.4,4.95-12.69,7.11-19.13,1.84-5.49,6.76-7.71,11.59-4.72,9.45,5.87,18.7,12.08,28.34,17.62,12.94,7.43,26.07,14.55,39.31,21.42,5.6,2.91,8.45,1.41,10.78-4.47,1.34-3.37,2.5-6.81,3.78-10.33Zm-244.7-44.58c4.61-5.38,8.74-10.82,13.51-15.63,7.35-7.42,15.29-14.26,22.7-21.61,7.61-7.55,17.47-6.7,21.78,2.97,6.22,13.96,16.5,24.74,26.47,35.76,4.93,5.45,10.56,10.42,18.29,12.97,3.54-11.44,6.87-22.57,10.49-33.6,1.2-3.66.26-6.25-2.07-9.06-6.76-8.14-13.27-16.5-19.98-24.68-.74-.9-2.1-1.47-3.28-1.79-12.99-3.5-26.02-6.87-39-10.39-6.95-1.88-14.02-4.7-18.15,4.54-.13.28-.48.46-.7.7-11.47,12.4-22.94,24.8-34.4,37.2-3.5,3.79-6.99,7.59-10.15,11.02,4.75,3.8,9.39,7.51,14.5,11.6Zm129.28-158.84c-9.67-3.25-18.9-6.43-28.21-9.38-1.34-.43-3.86-.34-4.41.47-3.2,4.73-6.57,9.49-8.71,14.73-2.3,5.62-2.82,11.96-4.96,17.66-4.25,11.31-9.98,21.86-17.46,31.48-5.69,7.32-10.87,15.03-16.53,22.91,2.04,1.05,3.57,2.12,5.26,2.66,9.3,2.97,18.8,5.41,27.92,8.86,5.2,1.97,7.73.44,10.34-3.81,5.7-9.29,11.77-18.35,17.63-27.54,5.26-8.25,10.47-16.54,15.62-24.87.98-1.59,2.09-3.42,2.21-5.19.61-9.28.91-18.58,1.32-27.98Zm-234.73-185.73c-10.72-1.55-20.42-3-30.14-4.36-9.89-1.38-19.77-2.77-29.69-3.9-1.22-.14-3.55,1.04-3.76,1.97-1.39,6.2-2.35,12.5-3.35,18.21,8.45,2.2,15.69,4.02,22.89,5.99,1.5.41,2.85,1.35,4.26,2.05-.82,1.54-1.29,3.49-2.52,4.54-3.15,2.66-6.92,4.6-9.95,7.37-11.99,10.98-24.01,21.95-35.54,33.41-4.14,4.12-7.56,9.29-10.12,14.56-1.96,4.05-1.53,8.96,2.5,12.35,3.6,3.03,7.63,2.24,11.21.15,14.44-8.44,28.77-17.06,43.12-25.65.61-.37,1-1.09,1.71-1.9-1.7-.94-2.95-1.74-4.28-2.35-5.84-2.65-6.9-4.48-3.28-9.94,4.46-6.73,9.77-12.91,15.02-19.08,3.08-3.62,7.29-4.31,11.85-2.8,2.51.83,5.13,1.36,7.61,2.29,4.34,1.63,6.37.39,7.09-4.19.93-5.91,2.13-11.77,3.23-17.65.66-3.54,1.36-7.08,2.13-11.07Zm233.55-105.15c-6.29.73-11.8,1.53-17.34,1.97-15.2,1.19-15.33,1.12-14.31,16.8.63,9.68,4.27,19.17,6.59,28.74.15.63.5,1.25.91,1.76,10.47,13.12,17.08,28.77,28.22,41.62,6.11,7.04,13.8,5.97,20.58,9.2-20.72-30.17-33.43-62.02-24.65-100.09Zm-343.94,187.82c-1.21.06-1.87,0-2.47.15-12.54,3.13-25.13,6.09-37.6,9.53-7.19,1.98-14.39,4.26-21.18,7.29-6.1,2.72-11.75,6.51-17.36,10.19-1.1.72-1.76,3.3-1.4,4.7.28,1.08,2.47,2.27,3.86,2.33,4.47.19,9.01.23,13.45-.29,11.88-1.4,23.68-3.57,35.59-4.6,19.55-1.7,39.15-2.71,58.73-4.07,7.27-.51,14.54-1.18,21.9-1.79.64-5.83,1.24-11.27,1.9-17.32-5.66,3.54-10.64,6.51-15.47,9.71-11.3,7.48-23.11,8.44-35.49,3.09-5.34-2.31-7.66-6.83-6.38-12.51.43-1.93,1.13-3.8,1.92-6.4Zm438.37,240.68c2.49.5,4.7.99,6.93,1.38,13.36,2.37,13.25,2.33,16.78-10.89,1.33-4.96,3.18-9.8,5.12-14.56.99-2.44,2.91-4.55,5.8-2.22,5.92,4.77,11.69,9.72,17.5,14.62,1.61,1.35,3.15,2.79,5.43,4.82,3.31-7.81,6.42-14.92,9.28-22.14.44-1.1.09-3-.64-3.99-3.25-4.42-6.69-8.71-10.22-12.91-.89-1.07-2.3-2.21-3.58-2.36-9.57-1.13-19.17-2.11-28.78-2.88-1.22-.1-3.2.99-3.73,2.07-3.19,6.48-6.32,13.02-8.99,19.73-3.79,9.54-7.18,19.23-10.91,29.33Zm-205.6-179.6c-.37-5.58.32-10.52-1.19-14.64-3.23-8.81-7.57-17.21-11.53-25.75-.39-.85-1.13-1.87-1.94-2.15-9.95-3.47-19.93-6.83-29.85-10.19-2.9,12.19-5.68,23.9-8.6,36.22,16.85,6.46,33.98,12.74,53.11,16.51Zm-263.37,117.57c.11.7.21,1.4.32,2.1,3.55.47,7.1,1.33,10.65,1.33,14.64.01,29.28-.27,43.92-.37,23.14-.16,46.28-.17,69.42-.52,3.36-.05,6.8-1.34,9.98-2.62,1.09-.44,2.03-2.65,2-4.03-.02-1.06-1.51-2.7-2.63-3-3.18-.84-6.51-1.52-9.79-1.56-20.13-.26-40.28-.73-60.41-.35-17.74.33-35.65-.56-53.06,3.92-3.66.94-6.94,3.37-10.4,5.11Zm93.46-159.11c7.8-.89,14.17-1.69,20.57-2.33,10.68-1.07,21.53-1.26,30.98-7.56,1.87-1.24,4.35-1.55,6.52-2.36,2.55-.94,5.07-1.96,7.6-2.94-16.9-4.47-33.49-8.48-47.51-17.82-14.2,6.52-14.6,19.83-18.16,33.01Zm341.89-42.67c4.08,7.31,8.14,13.6,11.22,20.34,3.43,7.53,5.81,15.54,8.99,23.2,1.05,2.53,2.74,6.03,4.85,6.66,6.16,1.83,16.99-7.49,15.58-13.72-1.46-6.45-3.6-13.62-7.81-18.39-7.6-8.61-16.97-15.67-25.88-23.64-2.37,1.89-4.78,3.81-6.94,5.54Zm-59.08,111.92v-48.09c-6.85-1.19-13.3-2.32-20.37-3.55,2.1,15.83.34,31.01-6.35,46.17,9.1,1.87,17.68,3.62,26.71,5.48Zm-216.61,108.73c4.19,1.05,7.03,2.34,9.88,2.38,21.75.3,43.5.31,65.25.54,5.33.06,5.74-3.41,5.92-7.29.19-4.09-2.34-5.07-5.76-5.06-17.61.06-35.25-.45-52.82.42-7.54.37-15.32,2.63-22.47,9.01Zm-10.36-277.77c-1.22,6.47-2.33,12.83-3.63,19.16-.64,3.13.72,4.39,3.54,5.35,5.33,1.82,10.43,4.3,15.78,6.05,9.36,3.05,18.84,5.76,28.27,8.61.28-.57.57-1.15.85-1.72-.96-1.26-1.85-2.58-2.88-3.78-6.57-7.67-13.58-15-19.65-23.05-5.39-7.15-11.18-12.35-20.79-10.86-.32.05-.64.11-1.48.24Zm-119.84-35.93c.14.59.27,1.17.41,1.76,5.43.6,10.86,1.58,16.31,1.72,16.3.42,32.6.61,48.9.67,6.31.02,12.64-.39,18.94-.89,4.48-.36,6.83-3.66,4.54-7.18-1.36-2.09-5.11-3.55-7.84-3.64-12.3-.4-24.64-.63-36.93-.1-11.4.5-22.8,1.77-34.12,3.29-3.53.47-6.8,2.85-10.2,4.36Zm209.32,120.45c-1.35-1.92-2.12-3.41-3.25-4.55-8.23-8.4-16.53-16.72-24.8-25.08-4.62-4.67-10.81-5.98-16.71-5.91-8.13.1-16.24,1.82-24.12,2.81.54.36,1.67,1.21,2.9,1.89,13.94,7.65,28.27,14.66,41.69,23.13,7.51,4.73,15.35,6.12,24.29,7.72Zm-86.12,78.4c3.37.53,6.72,1.44,10.1,1.53,18.76.47,37.53.78,56.29,1.02,2.44.03,5.42,0,7.19-1.29,1.93-1.42,3.37-4.22,3.88-6.66.62-2.97-1.74-4.41-4.59-4.62-3.14-.23-6.3-.59-9.43-.46-14.43.61-28.86,1.1-43.26,2.19-7.14.54-14.57,1.2-20.18,8.29Zm183.04-237.15c-4.91-15.86.34-31.31.63-47.06-4.48.58-8.25,1.36-12.05,1.5-5.06.18-7.17,3.26-8.38,7.49-.92,3.19-1.34,6.58-2.67,9.58-1.93,4.36.4,6.92,3.12,9.48,2.75,2.59,5.71,4.95,8.39,7.61,3.75,3.71,7.32,7.59,10.96,11.4Zm-304.6,358.09c.07.77.15,1.55.22,2.32,3.79.78,7.58,2.23,11.37,2.22,17.98,0,35.96-.31,53.93-.85,1.64-.05,4.1-2.16,4.65-3.81,1.56-4.7-.8-7.14-7.16-6.98-15.64.39-31.3.76-46.89,1.98-5.47.43-10.75,3.34-16.12,5.11Zm-50.34-286.17c.13.47.27.95.4,1.42.59.28,1.16.69,1.79.83,20.43,4.54,41.14,2.51,61.75,2.44,2.89-.01,5.72-1.98,5.7-5.79-.01-4.19-3.08-4.91-6.16-4.89-18.28.1-36.67-1.81-54.78,2.04-3.04.65-5.8,2.61-8.7,3.96Zm412.59,7.49c2.43,2.69,3.84,4.19,5.18,5.76,3.41,4.01,7,7.88,10.11,12.11,5.71,7.76,11.15,15.71,16.64,23.63,1.69,2.44,3.34,2.99,5.55.62,1.83-1.96,5.96-2.92,2.6-6.85-2.46-2.86-5.04-5.64-7.24-8.69-5.53-7.67-10.85-15.49-16.32-23.2-.53-.74-1.49-1.5-2.34-1.63-4.19-.64-8.4-1.06-14.17-1.75Zm-381.44,28.75c10.78,4.6,21.2,9.2,31.74,13.51,9.64,3.95,9.69,3.81,17.37-5.31-7.35-2.86-14.29-5.83-21.42-8.23-5.79-1.95-11.94-2.85-17.7-4.88-6.14-2.16-6.42-2.33-9.99,4.91Zm364.57,75.54c2.43-4.94,1.51-7.67-3.13-9-1.36-.39-2.56-1.47-3.73-2.37-8.99-6.89-17.95-13.82-27.43-21.14.36,1.45.46,2.43.83,3.29,2.98,6.93,5.96,13.86,9.08,20.73.42.92,1.45,1.89,2.4,2.18,7.27,2.19,14.6,4.21,21.99,6.31Z"/>
  <path class="cls-2" d="m853,374.92c-3.78-8.26-6.33-17.43-11.61-24.59-9.49-12.89-20.42-24.75-31.13-36.7-6.75-7.54-14.12-14.54-21.37-21.61-6.03-5.89-12.09-11.77-18.53-17.2-4.06-3.42-5.26-7.28-4.74-12.31.6-5.85.98-11.84-4.08-16.26-2.07-1.8-4.31-3.59-6.78-4.72-7.45-3.43-8.54-8.81-2.64-14.35.84-.79,1.71-1.54,2.5-2.38,6.41-6.8,4.94-11.91-4.61-13.59-9.28-1.63-18.75-2.15-28.14-3.15-.8-.09-1.6-.13-2.73-.21.59-5.98,1.42-11.69,1.58-17.42.07-2.46-.47-5.93-2.1-7.23-3.17-2.53-5.8.73-7.22,3.07-3.67,6.02-7.22,12.2-9.95,18.69-3.57,8.49-6.21,17.37-9.52,25.97-.47,1.21-2.44,2.64-3.71,2.63-41.81-.1-83.63-.7-125.43-.4-12.24.09-24.46,2.68-36.69,4.11-1.27.15-2.55.21-4.4.35.44-17.76-.58-35.34,7.63-51.57,5.93-11.7,7.44-24.58,10.45-37.07.23-.96.47-2.03.29-2.97-.44-2.32-1.12-4.59-1.71-6.88-2.77,1.21-6.11,1.83-8.14,3.8-2,1.95-2.86,5.19-3.86,8-4.61,12.99-9.51,25.89-13.47,39.08-2.13,7.09-2.58,14.68-3.73,22.06-.52,3.35-2,4.8-5.74,5.28-7.67.99-15.23,2.95-23.49,4.64.12-2.46-.05-4.11.31-5.64,3.16-13.41,6.39-26.79,9.63-40.18,1.63-6.75,3.49-13.45,4.88-20.25.32-1.57-.85-3.45-1.33-5.19-2,.84-4.93,1.11-5.83,2.61-2.64,4.37-4.63,9.16-6.59,13.91-4.4,10.67-9.13,21.27-9.08,33.17.01,2.55-1.02,3.76-3.92,3.87-4.44.18-8.84,1.01-13.97,1.65,1.91-8.66,3.89-16.96,5.52-25.32,1.05-5.36,2.04-10.82,2.11-16.24.03-2.34-2.36-4.7-3.65-7.05-1.77,1.32-4.14,2.27-5.19,4.02-2.51,4.19-4.85,8.6-6.45,13.2-5.05,14.57-9.65,29.31-14.61,43.91-1.64,4.82-3.75,9.5-5.89,14.13-.61,1.33-1.94,3.03-3.18,3.26-19.28,3.48-38.45,7.28-57.13,13.44-11.48,3.78-23.23,6.79-34.99,9.61-7.41,1.78-15.05,2.61-22.6,3.79-5.85.91-11.71,1.7-18.26,2.65.52-3.37.74-6.12,1.38-8.77,5.14-21.13,10.26-42.27,15.62-63.35,1.17-4.58,3.8-8.81,4.79-13.41,1-4.63,1.32-9.56.97-14.29-.27-3.64-3.83-3.43-5.63-1.58-2.92,3-5.66,6.51-7.32,10.31-1.89,4.33-3.66,7.01-9.11,7.04-11.14.06-22.31.55-33.39,1.69-9.69.99-19.27,3.1-28.89,4.76-.79.14-1.67.46-2.24.99-8.23,7.46-18.37,7.59-28.63,7.95-11.61.41-23.26,1.07-34.78,2.47-8.49,1.03-14.77,6.5-19.47,13.46-2.06,3.05-.18,15.28,2.54,17.61,1.13.97,3.06,1.17,4.67,1.37,6.6.79,13.22,1.39,19.82,2.16,3.55.41,6.75,1.71,6.86,5.88.12,4.46-1.03,8.61-5.35,11.01-1.25.7-2.64,1.16-4.23,1.84,9.56,0,18.79.24,28-.05,16.63-.52,33.25-1.47,49.88-2.02,5.81-.19,11.65.1,17.45.51,3.89.28,5.84,2.92,6.05,6.72.21,3.79-2.31,5.33-5.5,5.93-1.95.37-3.98.4-5.97.4-29.65,0-59.31.05-88.96-.13-7.98-.05-15.94-1-23.92-1.17-3.41-.07-7.21-.01-10.19,1.37-8.4,3.91-17,7.8-24.46,13.17-4.73,3.4-8.52,8.99-11.05,14.38-3.48,7.41-4.47,16.01-8.16,23.28-4.5,8.87-6,20.36-18.31,23.69-4.82,1.31-9.21,4.33-13.68,6.79-1.04.57-1.78,1.94-2.33,3.09-4.77,9.93-1.23,19.42,8.41,24.53,5.8,3.07,10.9,7.47,16.69,10.56,5.05,2.7,10.69,4.25,15.94,6.61,2.23,1,5.96,3.07,5.79,4.12-.41,2.49-2.5,4.91-4.39,6.9-1.31,1.38-3.86,1.64-5.02,3.07-1.21,1.49-2.1,3.91-1.82,5.72.21,1.34,2.37,2.64,3.93,3.44,3.04,1.56,6.27,2.75,9.43,4.1.02.54.05,1.07.07,1.61-4.8,1.92-9.7,3.62-14.38,5.81-7.34,3.44-14.66,6.96-21.7,10.98-2.44,1.39-4.42,4.1-5.86,6.63-4.38,7.72.79,16.38,9.72,16.5,8.32.11,16.65.02,25.28.02-.83,3.91,1.58,3.62,4.2,3.38,22.03-2.04,44.06-4.27,66.12-5.91,10.11-.75,20.31-.33,30.48-.4,4.06-.03,7.27.84,7.17,6.03-.09,4.6-1.76,7.22-6.75,7.25-7.14.04-14.28.44-21.42.45-20.5.03-41,.1-61.49-.16-8.64-.11-17.28-.8-25.89-1.62-4.26-.41-7.95.78-8.79,4.67-1.34,6.21-5.5,10-9.71,13.78-3.64,3.27-4.59,7.12-2.94,11.22,1.79,4.45,5.56,6.91,10.53,7.22,2.78.18,5.55.5,8.68.79-1.34,4.65-2.42,8.77-3.73,12.82-.98,3.02-.1,4.84,2.96,5.61,7.7,1.94,15.4,3.87,23.09,5.81.91.23,1.81.48,2.48.67-7.87,6.53-15.85,12.7-23.28,19.48-6.71,6.13-12.85,12.9-19.16,19.46-3.65,3.8-7.15,7.75-10.71,11.64-6.61,7.22-12.57,14.68-12.18,25.36.19,5.24,2.39,9.01,6.89,11.28,7.99,4.03,16.43,5.32,24.3.32,9.56-6.07,18.39-4.45,27.61.47,2.99,1.59,6.61,1.97,9.85,3.15,1.93.7,5.25,1.95,5.21,2.85-.09,2.3-1.17,5.1-2.82,6.68-3.67,3.5-8.35,5.98-11.87,9.6-5.32,5.47-4.65,11.21,1.31,15.68,3.54,2.66,6.36,5.42,5.03,10.37-1.37,5.11-5.15,7.18-9.92,7.77-4.62.57-9.37.39-13.87,1.37-2.41.53-5.21,2.33-6.51,4.4-4.99,7.89-2.38,22.34,8.19,26.07,9.95,3.51,17.85,10.06,26.41,15.68,9.99,6.56,21.14,10.11,32.92,10.32,12.46.23,24.96-.6,37.4-1.52,15.36-1.14,30.25,1.29,44.91,5.25,11.46,3.09,22.79,3.78,34.59,2.21,8.86-1.18,17.95-.67,26.94-.93,15.46-.46,30.92-1.43,46.38-1.29,20.96.19,41.97.51,62.85,2.15,16.03,1.26,31.86,4.98,47.86,6.95,11.39,1.4,22.9,1.91,34.37,2.46,16.78.8,33.62,2.25,50.34,1.49,9.01-.41,17.77-5.13,26.77-7.41,8.65-2.2,17.46-3.78,26.22-5.56.73-.15,1.64.15,2.35.47,6.35,2.84,12.67,5.73,19.33,8.75-1.75,3.15-3.57,6.42-5.95,10.69,4.77,1.71,8.97,3.48,13.31,4.72,6.49,1.86,13.09,3.34,19.64,4.98H47V138h806v236.92Z"/>
  <path class="cls-2" d="m642.98,766c2.17-1.94,4.85-3.54,6.4-5.89,3.19-4.8,6.08-9.85,8.52-15.07,2.63-5.62,7.47-9.16,12.76-8.83,9.61.59,16.74-4.35,24.62-7.99,1.58-.73,4.44-1.3,5.36-.46,11.16,10.15,25.83,13.46,38.67,20.29,17.5,9.33,36.2,14.16,55.87,14.37,5.64.06,11.92-1.99,16.85-4.88,11.03-6.48,9.82-27.75-1.36-34.08-2.88-1.63-5.57-3.6-8.23-5.57-16.13-11.9-36.26-17.18-51.21-31.02-.36-.33-.71-.67-1.33-1.26,1.46-1.56,2.68-3.37,4.35-4.55,6.17-4.39,7.47-10.95,7.32-17.63-.35-14.77,4.36-27.51,12.81-39.5,8.1-11.49,15.37-23.57,22.69-35.59,6.77-11.11,9.54-23.51,9.74-36.38.23-14.82-.37-29.66-.05-44.47.1-4.45,1.32-9.23,3.32-13.21,8.28-16.39,16.68-32.74,25.75-48.69,8.02-14.11,12.2-29.41,16.13-44.89.24-.95.68-1.85,1.03-2.78v368.08h-210.02Z"/>
  <path class="cls-2" d="m177.13,503.41c9.55,1.57,18.51,3.41,27.55,4.45,21.82,2.51,43.63,5.4,65.54,6.73,25.92,1.58,51.93,1.73,77.9,2.39,13.52.34,27.46-.73,37.97-9.49,17.86-14.89,24.93-28.61,18.13-52.46-5.25-18.41-15.84-32.95-29.03-46.19-5.45-5.47-10.04-11.8-15.27-17.51-6.16-6.73-12.79-13.04-18.86-19.86-6.94-7.8-13.42-16-20.21-23.93-3.43-4.01-7.42-7.58-10.59-11.78-3.39-4.49-6.17-9.46-9.13-14.27-3.03-4.95-6.54-9.72-8.77-15.02-2.73-6.46-4.57-13.34-6.37-20.14-.86-3.27.7-5.72,4.34-6.59,12.11-2.9,24.21-5.86,36.28-8.9,6.43-1.62,12.78-3.61,19.22-5.21,7.22-1.79,14.5-3.33,21.75-4.99,10.35-2.37,20.6-5.49,31.08-6.92,11.66-1.59,23.53-1.68,35.32-2.27.84-.04,2.02,1.02,2.58,1.88,2,3.06,3.82,6.23,5.67,9.39.59,1,.85,2.26,1.62,3.08,7.02,7.44,14.15,14.77,21.18,22.2,13.19,13.94,28.77,25.63,39.09,42.27,3.04,4.89,7.14,9.1,10.53,13.79,4.48,6.19,8.45,12.76,13.15,18.76,8.28,10.57,16.51,21.25,25.56,31.14,19.81,21.64,29.89,46.89,29.18,76.13-.67,27.29-2.29,54.55-3.15,81.84-.8,25.36-9.21,48.9-16.75,72.65-2.92,9.19-6.69,18.1-10.23,27.53-16.43-3.17-32.21-6.2-49.02-9.44,1.37-4.87,2.9-9.13,3.72-13.52,2.06-10.92,3.45-21.98,5.75-32.85,4.14-19.5,4.78-39.27,5.69-59.06.98-21.29,3.02-42.55,3.2-63.84.11-13.05-2.56-26.1-3.73-39.18-.55-6.09-5.38-8.41-9.22-11.69-6.04-5.17-12.1-10.31-18.12-15.49-10.96-9.42-21.3-19.42-30.55-30.6-8.76-10.58-18.02-20.75-27.06-31.1-6.1-6.98-12.26-13.9-18.25-20.97-2.03-2.39-4.11-4.93-5.34-7.76-4.11-9.53-9.8-17.95-16.43-25.89-2.61-3.12-3.92-7.3-6.4-10.56-2.88-3.79-7.07-4.69-11.71-3.48-4.32,1.13-5.96,4.64-3.58,8.34,5.58,8.67,10.97,17.49,17.07,25.79,9.63,13.1,19.61,25.94,29.78,38.63,3.7,4.62,8.65,8.22,12.48,12.75,5.36,6.34,9.51,13.83,15.42,19.55,12.79,12.41,18.1,28.13,22.65,44.61,2.97,10.78,5.63,21.41,6.28,32.69.97,16.74-4.42,31.05-14.15,44.15-10.15,13.65-21.81,26.02-35.94,35.35-9.71,6.42-20.62,11.43-31.59,15.43-11.01,4.01-22.64,7.43-34.23,8.52-17.17,1.61-34.55.95-51.84,1.22-22.56.35-43.4-7.9-64.89-12.93-23.31-5.46-46.67-10.65-70.01-15.97-.63-.14-1.24-.36-2.47-.71,2.35-10.02,4.68-19.91,7.22-30.72Z"/>
  <path class="cls-2" d="m674.13,634.06c.18-.95.3-2.43.74-3.82,7.16-22.66,13.55-45.6,21.79-67.86,6.71-18.14,15.64-35.46,23.58-53.15,1.02-2.27,1.86-4.62,2.94-6.87,10.36-21.67,20.67-43.37,31.16-64.98,4.4-9.07,9.17-17.96,13.79-26.93,1.66-3.22,3.25-6.47,5.03-9.62,2.22-3.93.38-6.04-2.98-7.96-8.94-5.09-17.8-10.33-26.66-15.56-1.57-.93-3.25-1.88-4.42-3.22-8.54-9.8-19.82-16.03-30.18-23.47-12.65-9.09-25.6-17.83-37.65-27.65-8.6-7.01-16.19-15.33-23.79-23.48-7.33-7.86-13.99-16.33-21.15-24.35-1.82-2.04-4.24-4.22-6.74-4.8-2.71-.63-7.07-.49-8.45,1.18-1.41,1.72-1.18,6.44.26,8.53,3.8,5.53,8.58,10.39,13.07,15.43,5.52,6.18,10.95,12.47,16.78,18.35,7.23,7.3,14.96,14.09,22.19,21.38,2.64,2.66,4.5,6.1,6.67,9.21,2.71,3.89,5.67,7.65,8.01,11.75,9.86,17.24,17.58,35.58,16.75,55.63-.88,21.37-8.71,40.46-23.46,56.83-11.15,12.38-26.31,17.59-39.86,25.71-9.79,5.87-20.64,7.99-31.53,9.14-1.93-17.07-3.85-34.02-5.57-49.27,7.8-5.87,14.77-10.81,21.39-16.17,8.11-6.57,8.46-19.72.96-27.2-9.7-9.68-19.75-19.03-29.08-29.06-4.95-5.31-9.31-11.41-12.83-17.76-5.81-10.48-12.24-20.28-20.4-29.17-4.94-5.39-8.49-12.27-11.82-18.9-5.57-11.05-11.08-22.21-15.44-33.77-3.01-7.98-4.13-16.68-5.89-25.1-.62-2.94,1.04-3.94,4-4.91,17.71-5.82,35.8-3.94,53.88-3.59,11.29.22,22.6-1.2,33.89-1.12,23.63.17,47.26,1,70.89,1.22,6.96.07,13.92-1.24,20.89-1.41,2.18-.05,5.03.98,6.48,2.53,6.67,7.16,14.1,13.1,23.05,17.2,3,1.37,5.64,3.52,8.46,5.3,23.54,14.85,42.5,34.94,61.96,54.41,8.07,8.08,15.88,16.57,22.63,25.75,4.43,6.02,6.27,13.89,10.16,20.39,3.77,6.31,3.4,13.02,2.03,19.17-2.18,9.79-5.63,19.38-9.44,28.69-5.47,13.38-11.42,26.6-17.78,39.59-4.65,9.49-9.87,18.75-15.56,27.65-12.62,19.72-24.52,39.78-33.98,61.25-2.98,6.76-7.06,13.04-10.64,19.54-6.74,12.24-13.13,24.69-20.35,36.64-6.59,10.91-14.03,21.31-21.25,31.82-.66.96-2.54,1.72-3.72,1.56-10.84-1.43-21.66-3.09-32.78-4.72Z"/>
  <path class="cls-2" d="m756.73,400.58c-9.16,12.6-18.26,24.35-23.05,38.85-1.85,5.58-5.09,10.68-7.37,16.14-5.18,12.43-10.32,24.89-15.14,37.46-3.08,8.04-5.42,16.35-8.32,24.46-3.84,10.73-7.64,21.5-12.04,32-1.62,3.88-4.85,7.09-7.43,10.55-8.12,10.89-16.28,21.74-24.41,32.62-2.46,3.3-5.33,4.85-9.79,4.35-8.04-.9-16.17-1.03-24.59-1.5,2.4-9.57,4.29-18.85,7.09-27.84,3.16-10.13,6.49-20.3,10.91-29.92,6.7-14.59,14.3-28.77,21.8-42.97,1.25-2.37,3.64-4.4,5.94-5.92,12.54-8.28,23.19-18.66,30.31-31.71,4.77-8.75,7.08-18.88,10.13-28.5,1.14-3.61,1.3-7.53,1.87-11.31,2.51-16.85-3.04-31.83-10.95-46.18-2.48-4.5-5.52-8.68-7.5-13.71,20.25,15.78,39.12,33.1,62.55,43.13Z"/>
  <path class="cls-2" d="m621.64,748.8c7.06-14.63,12.73-29.33,20.86-42.5,9.76-15.81,17.13-32.45,23.45-49.75,1.06-2.91,2.79-5.81,4.94-8,1.5-1.54,4.34-2.8,6.4-2.57,9.57,1.08,19.09,2.62,28.57,4.3,1.16.21,2.26,2.13,2.93,3.48,4.4,8.94,8.61,17.98,13.03,26.91.78,1.58,2.01,3.18,3.45,4.17,13.08,8.96,23.8,21.28,39.24,26.9,7,2.55,13.8,5.77,20.39,9.27,4.92,2.61,9.66,5.79,13.9,9.4,3.94,3.35,4.27,8.07,2.26,12.85-1.91,4.56-5.31,5.84-10.21,6.17-8.62.58-15.67-3.91-23.42-6.03-6.04-1.65-11.75-4.5-17.78-6.24-19.79-5.74-36.71-16.08-50.72-31.13-2.7-2.9-4.83-6.33-7.22-9.52-3.51-4.66-9.89-5.74-13.85-1.65-3.62,3.74-6.69,8.11-9.5,12.52-8.35,13.1-16.92,26.09-24.45,39.65-3.35,6.02-6.87,5.13-11.75,3.6-2.98-.93-6.19-1.11-10.51-1.83Z"/>
  <path class="cls-2" d="m190.88,496.87c3.11-4.11,4.96-7.28,7.49-9.75,4.85-4.75,10.07-9.11,15.15-13.62,13.26-11.78,28.02-21.18,44.17-28.49,14.36-6.49,28.63-13.17,42.89-19.88,2.5-1.18,4.72-2.93,7.07-4.42.11-.58.22-1.16.32-1.74-22.12-11.08-44.23-22.16-66.65-33.4,1.39-2.41,2.79-4.77,4.12-7.17,3.62-6.52,4.52-6.82,11.13-3.53,16.95,8.44,33.84,17.01,50.86,25.3,11.3,5.5,22.8,10.61,34.17,15.87-5.03,12.73-10.01,25.46-15.14,38.13-.42,1.04-1.7,2.01-2.8,2.47-14.55,6.01-29.5,11.17-43.61,18.05-15.79,7.69-30.82,16.93-46.21,25.47-1.12.62-2.45,1.5-3.59,1.38-12.66-1.39-25.3-2.96-39.37-4.65Z"/>
  <path class="cls-2" d="m132.24,528.42c-8.7-2.04-15.91-3.7-23.11-5.42-2.91-.69-5.77-1.58-8.7-2.19-3.15-.66-4.09-2.2-2.95-5.32,3.02-8.25,5.81-16.6,8.91-24.82.38-1,2.21-2.16,3.26-2.07,6.27.55,12.57,1.09,18.73,2.31,11.21,2.21,22.32,4.97,33.51,7.32,4.22.89,4.73,3.28,3.79,6.9-3.09,11.89-5.82,23.88-9.21,35.68-1.85,6.44-7.9,9.29-13.05,12.72-2.83,1.88-5.95,3.41-8.49,5.61-6.12,5.31-11.85,11.08-17.99,16.37-6.4,5.52-13.01,10.82-19.68,16.02-6.65,5.19-13.44,10.2-20.25,15.18-1.17.86-2.76,1.67-4.12,1.63-3.16-.1-7.42.33-9.14-1.47-1.64-1.72-1.6-6.32-.62-9.05,5.36-14.98,15.71-26.28,27.87-36.12,10.45-8.45,20.8-17.02,31.23-25.5,2.81-2.29,5.72-4.46,10-7.79Z"/>
  <path class="cls-2" d="m623.65,720.14c-1.28,3.52-2.44,6.96-3.78,10.33-2.33,5.88-5.18,7.38-10.78,4.47-13.24-6.88-26.37-13.99-39.31-21.42-9.64-5.54-18.89-11.76-28.34-17.62-4.83-2.99-9.75-.77-11.59,4.72-2.16,6.45-4.78,12.74-7.11,19.13-1.04,2.87-3.07,3.92-5.84,3.29-8.24-1.87-16.53-3.64-24.61-6.05-1.63-.49-3.72-3.81-3.47-5.51,1.1-7.36,1.73-15.21,4.88-21.74,4.7-9.77,7.42-19.88,9.61-30.3.23-1.11.63-2.19,1.04-3.57,4.73,1.1,9.21,2.26,13.73,3.18,9.59,1.96,19.14,4.67,28.84,5.41,8.09.62,12.7,5.78,18.05,10.15,7.96,6.51,15.36,13.7,23.37,20.14,7.22,5.82,14.9,11.08,22.44,16.51,4.15,2.99,8.43,5.81,12.88,8.87Z"/>
  <path class="cls-2" d="m378.95,675.56c-5.12-4.09-9.75-7.8-14.5-11.6,3.16-3.43,6.64-7.23,10.15-11.02,11.46-12.4,22.93-24.8,34.4-37.2.23-.24.58-.42.7-.7,4.13-9.23,11.2-6.42,18.15-4.54,12.99,3.52,26.01,6.89,39,10.39,1.18.32,2.55.89,3.28,1.79,6.71,8.18,13.21,16.54,19.98,24.68,2.33,2.81,3.27,5.39,2.07,9.06-3.62,11.03-6.94,22.16-10.49,33.6-7.73-2.55-13.36-7.53-18.29-12.97-9.97-11.02-20.25-21.8-26.47-35.76-4.31-9.67-14.17-10.52-21.78-2.97-7.42,7.36-15.35,14.2-22.7,21.61-4.77,4.81-8.9,10.25-13.51,15.63Z"/>
  <path class="cls-2" d="m508.23,516.72c-.41,9.4-.72,18.7-1.32,27.98-.12,1.78-1.22,3.6-2.21,5.19-5.14,8.33-10.36,16.61-15.62,24.87-5.86,9.19-11.93,18.25-17.63,27.54-2.6,4.24-5.14,5.77-10.34,3.81-9.12-3.45-18.61-5.89-27.92-8.86-1.69-.54-3.22-1.61-5.26-2.66,5.66-7.88,10.84-15.59,16.53-22.91,7.48-9.61,13.21-20.17,17.46-31.48,2.15-5.7,2.67-12.04,4.96-17.66,2.14-5.23,5.52-10,8.71-14.73.55-.81,3.07-.9,4.41-.47,9.3,2.96,18.54,6.14,28.21,9.38Z"/>
  <path class="cls-2" d="m273.5,330.99c-.77,3.99-1.47,7.53-2.13,11.07-1.1,5.88-2.3,11.75-3.23,17.65-.72,4.57-2.76,5.82-7.09,4.19-2.47-.93-5.09-1.46-7.61-2.29-4.55-1.51-8.76-.82-11.85,2.8-5.25,6.16-10.57,12.35-15.02,19.08-3.62,5.47-2.56,7.29,3.28,9.94,1.34.61,2.58,1.41,4.28,2.35-.71.8-1.1,1.53-1.71,1.9-14.35,8.59-28.68,17.21-43.12,25.65-3.58,2.09-7.61,2.88-11.21-.15-4.03-3.39-4.46-8.3-2.5-12.35,2.56-5.27,5.98-10.45,10.12-14.56,11.53-11.46,23.55-22.42,35.54-33.41,3.03-2.77,6.8-4.72,9.95-7.37,1.24-1.04,1.71-3,2.52-4.54-1.42-.7-2.77-1.64-4.26-2.05-7.2-1.97-14.44-3.8-22.89-5.99,1-5.71,1.95-12.01,3.35-18.21.21-.93,2.55-2.1,3.76-1.97,9.92,1.14,19.8,2.52,29.69,3.9,9.72,1.36,19.42,2.8,30.14,4.36Z"/>
  <path class="cls-2" d="m507.05,225.84c-8.78,38.07,3.92,69.92,24.65,100.09-6.78-3.23-14.47-2.16-20.58-9.2-11.15-12.85-17.75-28.5-28.22-41.62-.41-.51-.76-1.13-.91-1.76-2.32-9.57-5.96-19.06-6.59-28.74-1.02-15.68-.89-15.6,14.31-16.8,5.54-.44,11.05-1.24,17.34-1.97Z"/>
  <path class="cls-2" d="m163.11,413.66c-.79,2.59-1.48,4.47-1.92,6.4-1.28,5.69,1.04,10.21,6.38,12.51,12.38,5.35,24.19,4.39,35.49-3.09,4.83-3.2,9.81-6.17,15.47-9.71-.66,6.05-1.26,11.48-1.9,17.32-7.37.61-14.63,1.28-21.9,1.79-19.58,1.36-39.18,2.37-58.73,4.07-11.9,1.03-23.71,3.21-35.59,4.6-4.44.52-8.98.49-13.45.29-1.39-.06-3.57-1.25-3.86-2.33-.37-1.4.29-3.97,1.4-4.7,5.61-3.68,11.27-7.47,17.36-10.19,6.8-3.03,13.99-5.31,21.18-7.29,12.46-3.43,25.05-6.39,37.6-9.53.6-.15,1.25-.08,2.47-.15Z"/>
  <path class="cls-2" d="m601.48,654.34c3.73-10.1,7.12-19.8,10.91-29.33,2.67-6.71,5.79-13.25,8.99-19.73.53-1.08,2.51-2.17,3.73-2.07,9.61.77,19.2,1.75,28.78,2.88,1.28.15,2.69,1.29,3.58,2.36,3.53,4.2,6.98,8.49,10.22,12.91.72.99,1.07,2.89.64,3.99-2.85,7.22-5.97,14.33-9.28,22.14-2.28-2.03-3.83-3.46-5.43-4.82-5.81-4.9-11.58-9.85-17.5-14.62-2.89-2.32-4.81-.21-5.8,2.22-1.94,4.76-3.79,9.6-5.12,14.56-3.53,13.22-3.42,13.26-16.78,10.89-2.23-.4-4.44-.88-6.93-1.38Z"/>
  <path class="cls-2" d="m395.88,474.74c-19.12-3.77-36.26-10.05-53.11-16.51,2.93-12.32,5.71-24.02,8.6-36.22,9.91,3.36,19.9,6.71,29.85,10.19.81.28,1.54,1.3,1.94,2.15,3.96,8.54,8.3,16.94,11.53,25.75,1.51,4.13.82,9.06,1.19,14.64Z"/>
  <path class="cls-2" d="m132.51,592.31c3.46-1.74,6.74-4.17,10.4-5.11,17.41-4.48,35.32-3.59,53.06-3.92,20.13-.37,40.27.09,60.41.35,3.28.04,6.6.72,9.79,1.56,1.12.3,2.61,1.94,2.63,3,.03,1.38-.91,3.59-2,4.03-3.17,1.29-6.62,2.57-9.98,2.62-23.14.35-46.28.35-69.42.52-14.64.1-29.28.39-43.92.37-3.55,0-7.1-.86-10.65-1.33-.11-.7-.21-1.4-.32-2.1Z"/>
  <path class="cls-2" d="m225.97,433.2c3.56-13.18,3.96-26.48,18.16-33.01,14.01,9.33,30.6,13.35,47.51,17.82-2.53.98-5.06,2-7.6,2.94-2.17.8-4.66,1.11-6.52,2.36-9.45,6.3-20.29,6.49-30.98,7.56-6.39.64-12.77,1.44-20.57,2.33Z"/>
  <path class="cls-2" d="m567.86,390.53c2.16-1.73,4.57-3.65,6.94-5.54,8.92,7.96,18.28,15.02,25.88,23.64,4.21,4.77,6.35,11.94,7.81,18.39,1.41,6.23-9.41,15.54-15.58,13.72-2.12-.63-3.8-4.13-4.85-6.66-3.18-7.66-5.56-15.67-8.99-23.2-3.07-6.74-7.14-13.03-11.22-20.34Z"/>
  <path class="cls-2" d="m508.78,502.46c-9.03-1.85-17.61-3.61-26.71-5.48,6.68-15.15,8.45-30.34,6.35-46.17,7.06,1.23,13.52,2.36,20.37,3.55v48.09Z"/>
  <path class="cls-2" d="m292.17,611.19c7.15-6.38,14.93-8.64,22.47-9.01,17.57-.87,35.21-.36,52.82-.42,3.43-.01,5.96.97,5.76,5.06-.18,3.87-.59,7.34-5.92,7.29-21.75-.23-43.5-.24-65.25-.54-2.86-.04-5.69-1.33-9.88-2.38Z"/>
  <path class="cls-2" d="m281.81,333.41c.84-.14,1.16-.19,1.48-.24,9.61-1.49,15.41,3.71,20.79,10.86,6.06,8.05,13.08,15.38,19.65,23.05,1.03,1.2,1.92,2.52,2.88,3.78-.28.57-.57,1.15-.85,1.72-9.43-2.85-18.9-5.55-28.27-8.61-5.35-1.74-10.45-4.23-15.78-6.05-2.81-.96-4.18-2.22-3.54-5.35,1.3-6.33,2.42-12.69,3.63-19.16Z"/>
  <path class="cls-2" d="m161.98,297.48c3.39-1.51,6.67-3.89,10.2-4.36,11.32-1.52,22.72-2.79,34.12-3.29,12.29-.53,24.63-.3,36.93.1,2.73.09,6.48,1.55,7.84,3.64,2.3,3.51-.06,6.82-4.54,7.18-6.3.5-12.63.92-18.94.89-16.3-.06-32.6-.25-48.9-.67-5.45-.14-10.87-1.12-16.31-1.72-.14-.59-.27-1.17-.41-1.76Z"/>
  <path class="cls-2" d="m371.3,417.93c-8.94-1.59-16.79-2.98-24.29-7.72-13.42-8.46-27.76-15.48-41.69-23.13-1.23-.67-2.35-1.53-2.9-1.89,7.89-1,15.99-2.71,24.12-2.81,5.9-.07,12.09,1.24,16.71,5.91,8.26,8.36,16.57,16.68,24.8,25.08,1.13,1.15,1.9,2.64,3.25,4.55Z"/>
  <path class="cls-2" d="m285.18,496.33c5.61-7.1,13.04-7.75,20.18-8.29,14.39-1.09,28.83-1.58,43.26-2.19,3.13-.13,6.29.23,9.43.46,2.85.2,5.21,1.65,4.59,4.62-.51,2.44-1.95,5.25-3.88,6.66-1.77,1.3-4.75,1.32-7.19,1.29-18.76-.23-37.53-.55-56.29-1.02-3.38-.08-6.73-1-10.1-1.53Z"/>
  <path class="cls-2" d="m468.22,259.19c-3.65-3.81-7.22-7.7-10.96-11.4-2.68-2.65-5.64-5.02-8.39-7.61-2.72-2.56-5.05-5.13-3.12-9.48,1.33-3,1.75-6.39,2.67-9.58,1.21-4.23,3.32-7.31,8.38-7.49,3.79-.14,7.56-.91,12.05-1.5-.29,15.75-5.53,31.2-.63,47.06Z"/>
  <path class="cls-2" d="m163.62,617.28c5.37-1.78,10.65-4.68,16.12-5.11,15.59-1.23,31.25-1.59,46.89-1.98,6.37-.16,8.72,2.28,7.16,6.98-.55,1.66-3.01,3.77-4.65,3.81-17.97.53-35.95.84-53.93.85-3.79,0-7.58-1.45-11.37-2.22-.07-.77-.15-1.55-.22-2.32Z"/>
  <path class="cls-2" d="m113.28,331.1c2.89-1.35,5.65-3.32,8.7-3.96,18.12-3.85,36.5-1.94,54.78-2.04,3.08-.02,6.15.71,6.16,4.89.01,3.82-2.82,5.78-5.7,5.79-20.61.07-41.32,2.1-61.75-2.44-.63-.14-1.19-.55-1.79-.83-.13-.47-.27-.95-.4-1.42Z"/>
  <path class="cls-2" d="m525.87,338.6c5.77.69,9.99,1.12,14.17,1.75.85.13,1.81.89,2.34,1.63,5.47,7.71,10.79,15.53,16.32,23.2,2.2,3.05,4.79,5.83,7.24,8.69,3.37,3.93-.77,4.89-2.6,6.85-2.21,2.37-3.86,1.82-5.55-.62-5.49-7.92-10.93-15.87-16.64-23.63-3.11-4.23-6.71-8.1-10.11-12.11-1.33-1.57-2.75-3.07-5.18-5.76Z"/>
  <path class="cls-2" d="m144.44,367.34c3.57-7.23,3.85-7.07,9.99-4.91,5.76,2.02,11.91,2.93,17.7,4.88,7.13,2.4,14.07,5.37,21.42,8.23-7.68,9.12-7.73,9.26-17.37,5.31-10.53-4.31-20.95-8.9-31.74-13.51Z"/>
  <path class="cls-2" d="m509.01,442.88c-7.4-2.1-14.72-4.12-21.99-6.31-.95-.28-1.98-1.26-2.4-2.18-3.11-6.87-6.1-13.8-9.08-20.73-.37-.86-.47-1.84-.83-3.29,9.49,7.32,18.45,14.24,27.43,21.14,1.17.9,2.37,1.98,3.73,2.37,4.64,1.33,5.56,4.06,3.13,9Z"/>
</svg>