<?xml version="1.0" encoding="UTF-8"?>
<svg id="Layer_1" data-name="Layer 1" xmlns="http://www.w3.org/2000/svg" viewBox="0 0 831 319">
  <defs>
    <style>
      .cls-1, .cls-2 {
        stroke: #000;
        stroke-miterlimit: 10;
        stroke-width: .75px;
      }

      .cls-3 {
        opacity: .1;
      }

      .cls-3, .cls-4, .cls-5, .cls-6, .cls-7, .cls-8, .cls-9 {
        stroke-width: 0px;
      }

      .cls-3, .cls-4, .cls-9 {
        fill: #fbb03b;
      }

      .cls-4 {
        opacity: .14;
      }

      .cls-10 {
        opacity: .13;
      }

      .cls-11 {
        opacity: .29;
      }

      .cls-6 {
        fill: #f7931e;
        opacity: .3;
      }

      .cls-2, .cls-8 {
        fill: #fff;
      }

      .cls-7 {
        fill: #085da4;
      }
    </style>
  </defs>
  <g>
    <g>
      <path class="cls-7" d="m474,188.29v1.73c0-7.6,0-15.19.03-22.79.01-3.95.03-7.9.04-11.85.01-3.09.08-4.63,2.02-7.03s4.06-3.99,6.85-4.97c3.24-1.14,6.72-1.3,10.14-1.15,4.69.2,9.62,1.1,13.17,4.24,4.48,3.96,5.74,10.99,3.63,16.66-.82,2.21-2.38,4.45-4.67,4.78-.68.1-1.47.06-1.93.58-.57.64-.21,1.75.47,2.26s1.57.63,2.39.84c2.79.72,5.22,2.77,6.44,5.44,1.22,2.67,1.21,5.9-.04,8.55-1.82,3.89-5.88,6.14-9.9,7.42-4.86,1.55-10.03,2.01-15.08,1.41-3.15-.37-12.11-1.51-13.54-4.98-.09-.22.01-4.02-.02-4.02v2.87Z"/>
      <path class="cls-8" d="m499.04,151.01c-3.27-1.21-10.65-3.3-13.27-.86-2.44,2.28-1.43,9.13-.83,12.3.11.57.25,1.18.64,1.56.45.44,1.09.45,1.67.41,3.73-.2,7.43-.92,11.02-2.14,1.42-.48,2.86-1.07,3.98-2.19s1.89-2.91,1.59-4.62c-.41-2.26-2.42-3.53-4.27-4.27-.16-.06-.34-.13-.53-.2Z"/>
      <path class="cls-8" d="m500.92,175.19c-4.2-1.91-12.14-3.86-15.23-1.28-2.09,1.75-1.39,6.26-1.58,8.7-.09,1.24-.12,2.62.64,3.57,1.57,1.96,5.75.97,7.85.79,3.8-.31,10.54-.08,12.5-4.39,1.22-2.7-.44-5.27-2.66-6.61-.42-.25-.94-.52-1.53-.79Z"/>
      <g class="cls-11">
        <path class="cls-6" d="m499.04,151.01c-3.27-1.21-10.65-3.3-13.27-.86-2.44,2.28-1.43,9.13-.83,12.3.11.57.25,1.18.64,1.56.45.44,1.09.45,1.67.41,3.73-.2,7.43-.92,11.02-2.14,1.42-.48,2.86-1.07,3.98-2.19s1.89-2.91,1.59-4.62c-.41-2.26-2.42-3.53-4.27-4.27-.16-.06-.34-.13-.53-.2Z"/>
      </g>
      <path class="cls-4" d="m500.92,175.19c-4.2-1.91-12.14-3.86-15.23-1.28-2.09,1.75-1.39,6.26-1.58,8.7-.09,1.24-.12,2.62.64,3.57,1.57,1.96,5.75.97,7.85.79,3.8-.31,10.54-.08,12.5-4.39,1.22-2.7-.44-5.27-2.66-6.61-.42-.25-.94-.52-1.53-.79Z"/>
    </g>
    <g>
      <path class="cls-7" d="m644.02,141.96c-.34-3.21-1.54-15.34,6.4-9.56,5.69,4.14,4.77,15.38,4.93,20.97.04,1.49.03,3-.43,4.4-.6,1.84-2.24,3.29-3.92,4.37-.2.13-.41.26-.67.24-.48-.05-.85.16-1.28.27-.75.19-1.53.29-2.3.42-.29.05-.58.07-.86.16-.69.21-1.39.27-2.16.13-.93-.17-1.88-.3-2.83-.13-.47.08-.98.03-1.49-.08-.83-.18-1.69-.23-2.54-.35-7.41-1.07-10.46-8.29-11.64-14.06-.68-3.32-.88-6.71-.72-10.02.04-.91.42-3.89,1.41-4.35,1.87-.85,3.04,2.72,3.45,4.24.36,1.33.74,2.66.97,4.01.08.45.21.9.43,1.32.42.82.61,1.68.61,2.53-.04,3.58,1.37,10.01,5.84,11.32,10.27,3.02,7.3-11.18,6.81-15.81Z"/>
      <path class="cls-7" d="m653.43,158.56c-.25,1.67-.4,3.33-.34,5.02.07,1.77.48,3.5.57,5.27.16,3.04-1.7,5.94-3.47,8.28s-3.92,4.34-6.29,6.01-5.21,3.27-8.21,3.63c-2.49.3-5.26-.27-7.1-2.06-.46-.44-1.92-2.18-.54-2.19.6,0,1.25.25,1.83.39.87.21,1.76.35,2.65.46,5.64.67,12.22-.58,15.22-5.89,1.47-2.59,2.02-5.59,2.3-8.51.38-3.9.31-7.82-.13-11.71-.22-1.9-3.22-1.92-3,0,.44,3.89.51,7.81.13,11.71-.27,2.72-.84,5.64-2.46,7.91-1.91,2.66-5.3,3.46-8.42,3.63-1.69.09-3.39-.03-5.05-.38-1.47-.31-2.98-.89-4.47-.4-3.46,1.13-2.07,5.28-.18,7.12,2.03,1.98,4.89,2.95,7.7,3.01,6.27.13,12.34-4.19,16.44-8.59,2.38-2.55,4.65-5.68,5.66-9.05.62-2.06.35-4.04.06-6.12-.32-2.23-.33-4.49,0-6.72.28-1.89-2.61-2.7-2.89-.8h0Z"/>
      <path class="cls-7" d="m655.71,158.85l-.95-4.66-2.89.8c.42,1.21.83,2.42,1.25,3.63.53,1.53,3.01,1.38,2.95-.4l-.09-2.42c-.06-1.7-2.43-2.03-2.95-.4-1.64,5.16-3.29,10.31-4.93,15.47l2.95.4c.11-1.75.47-3.42,1.03-5.08l-2.74.36,1.99,2.98c.99,1.48,2.98.5,2.74-1.16l-.53-3.64c-.24-1.67-3.04-1.28-2.95.4.31,5.7-2.06,11.32-6.56,14.9-2.12,1.68-4.64,2.84-7.27,3.44-2.02.46-5.89,1.14-7.32-.91l-1.69,2.2c4.25.58,8.44.56,12.68-.07l-1.46-2.51c-.81.83-1.67,1.57-2.66,2.18-.48.29-.98.6-1.5.81-.26.12-.52.2-.8.25-.26-.11-.32-.06-.19.15-.22-1.9-3.22-1.92-3,0,.27,2.33,2.44,3.32,4.58,2.58s4.11-2.22,5.69-3.85c1.13-1.16-.05-2.72-1.46-2.51-3.66.54-7.42.57-11.09.07-1.14-.16-2.54,1-1.69,2.2,1.95,2.79,5.44,3.03,8.56,2.65,3.39-.42,6.7-1.64,9.5-3.63,5.76-4.08,9.06-10.91,8.68-17.97l-2.95.4.53,3.64,2.74-1.16-1.99-2.98c-.73-1.09-2.32-.89-2.74.36-.64,1.91-1.01,3.87-1.14,5.88-.11,1.75,2.45,1.95,2.95.4,1.64-5.16,3.29-10.31,4.93-15.47l-2.95-.4.09,2.42,2.95-.4-1.25-3.63c-.63-1.83-3.28-1.1-2.89.8l.95,4.66c.38,1.89,3.28,1.09,2.89-.8h0Z"/>
      <path class="cls-7" d="m652.13,168.82c-.21,1-.67,1.77-1.54,2.33l2.26,1.3c.58-4.53.57-9.09-.01-13.62-.18-1.36-1.99-2.18-2.8-.76-1.09,1.92-.77,4.34.87,5.85.7.65,1.86.56,2.36-.3,1.25-2.17,2.56-4.44,3.03-6.93.52-2.72-.13-5.34-.68-8s-1.11-5.47-1.68-8.2c-.5-2.39-1.19-4.64-2.79-6.53-1.25-1.48-3.36.65-2.12,2.12,1.32,1.56,1.7,3.66,2.1,5.6.51,2.44,1,4.89,1.5,7.34.46,2.23,1.18,4.59.77,6.88s-1.6,4.26-2.73,6.21l2.36-.3c-.66-.6-.85-1.42-.41-2.21l-2.8-.76c.59,4.53.59,9.09.01,13.62-.14,1.13,1.38,1.86,2.26,1.3,1.5-.97,2.54-2.36,2.92-4.13.4-1.88-2.49-2.69-2.89-.8h0Z"/>
      <path class="cls-7" d="m623.83,134.39c-1.98,2.94-2.43,6.57-2.18,10.04.27,3.73,1.11,7.44,2.68,10.85,2.8,6.08,8.86,11.25,15.86,10.89,3.6-.19,7.16-1.74,9.42-4.61.99-1.26-.23-3.28-1.82-2.36-2.9,1.7-6.1,3.13-9.53,3.03-3.2-.09-5.91-1.59-7.52-4.37-1.79-3.11-2.8-6.7-3.64-10.16-.42-1.72-.78-3.45-1.14-5.18-.33-1.61-1.06-3.68-.24-5.24l-2.74-.36c1.65,4.01.18,8.32,0,12.47-.16,3.8.87,7.71,3.06,10.84,4.26,6.1,12.94,8.82,19.53,4.76,3.47-2.14,5.75-5.71,6.19-9.76.21-1.92-2.79-1.9-3,0-.41,3.78-3.37,7.1-6.97,8.21-3.82,1.18-8.22.1-11.2-2.55-3.13-2.78-4.72-6.92-4.63-11.07.1-4.59,1.73-9.24-.1-13.7-.45-1.09-2.08-1.62-2.74-.36-1.01,1.93-.78,3.9-.38,5.97s.85,4.22,1.35,6.31c.97,4.06,2.16,8.48,4.47,12.01,2.1,3.21,5.52,4.94,9.31,5.16,4.07.24,7.98-1.4,11.42-3.42l-1.82-2.36c-2.17,2.75-5.63,4.06-9.1,3.69s-6.66-2.49-8.89-5.15c-2.55-3.06-3.87-6.97-4.53-10.85s-.78-7.94,1.44-11.22c1.08-1.61-1.52-3.11-2.59-1.51h0Z"/>
      <path class="cls-7" d="m652.7,153.38c.26,3.02.53,6.03.79,9.05l2.95-.4c-.31-1.77-.21-3.53.22-5.28h-2.89c1.41,7,.6,14.37-2.33,20.89-.79,1.75,1.8,3.27,2.59,1.51,3.29-7.3,4.22-15.35,2.63-23.2-.3-1.47-2.55-1.39-2.89,0-.57,2.29-.62,4.55-.22,6.87.28,1.65,3.09,1.29,2.95-.4-.26-3.02-.53-6.03-.79-9.05-.17-1.91-3.17-1.93-3,0h0Z"/>
      <path class="cls-7" d="m651.19,177.63c-1.46,1.28-2.52,2.91-3.9,4.26s-3.08,2.27-4.8,3.08-3.62,1.76-5.52,2.16c-2.2.46-4.23-.46-6.18-1.38-1.74-.82-3.26,1.76-1.51,2.59,2.17,1.03,4.47,2.08,6.94,1.91s4.61-1.27,6.77-2.22,4.02-1.95,5.74-3.4,2.9-3.4,4.59-4.88c1.46-1.27-.67-3.39-2.12-2.12h0Z"/>
      <path class="cls-7" d="m625.84,136.1c-.52.73-.25-.14-.08.41.11.36.38.75.53,1.1.33.81.64,1.63.92,2.46.57,1.74.85,3.48.9,5.31.09,3.68-.36,7.42.91,10.95.65,1.8,3.55,1.03,2.89-.8-1.64-4.58-.23-9.57-1.26-14.27-.25-1.16-.63-2.29-1.06-3.4-.38-1-.72-2.11-1.33-2.99-1.23-1.78-3.68-2.14-5.01-.29-1.12,1.57,1.48,3.07,2.59,1.51h0Z"/>
      <path class="cls-7" d="m623.68,134.66c-2.07,2.08-2.3,5.22-2.48,7.99-.21,3.23.02,6.55.98,9.65,1.61,5.18,5.35,9.66,10.59,11.37,1.84.6,2.63-2.29.8-2.89-4.22-1.38-7.21-5.13-8.5-9.28-.78-2.5-1.01-5.1-.93-7.7.07-2.18,0-5.36,1.66-7.01,1.37-1.37-.76-3.49-2.12-2.12h0Z"/>
      <path class="cls-7" d="m651.06,141.37c3.05,8.52,3.95,17.7,2.48,26.63l2.95.4c.53-9.65-.19-19.32-2.08-28.79l-2.89.8c2.98,7.74,4.56,15.81,3.75,24.1-.39,4.02-1.35,8-2.76,11.78-.67,1.81-1.39,3.95-2.64,5.45s-3.22,2.42-4.83,3.35c-3.69,2.13-8.35,3.79-12.34,1.44-1.67-.98-3.18,1.61-1.51,2.59,3.74,2.21,8.24,1.83,12.12.19,2.06-.86,3.96-2.01,5.82-3.22s3.34-2.49,4.36-4.53c4.02-8.08,5.66-17.46,4.77-26.43-.53-5.34-1.94-10.52-3.86-15.52-.69-1.79-3.28-1.12-2.89.8,1.84,9.21,2.49,18.61,1.97,27.99-.09,1.66,2.67,2.08,2.95.4,1.56-9.47.76-19.18-2.48-28.23-.65-1.8-3.55-1.03-2.89.8h0Z"/>
      <path class="cls-7" d="m627.91,183.46l-1.12-2.63c-.14-.33-.3-.66-.4-1-.02-.06-.04-.22-.08-.26-.02-.02-.03.05-.04.05.39.15-.76.19-.72.15,0,0,.3.34.31.36.22.28.45.54.71.78.55.49,1.17.9,1.84,1.2,1.42.64,2.9.91,4.43,1.11,1.79.24,3.59.43,5.39.65.81.1,1.5-.76,1.5-1.5,0-.89-.69-1.4-1.5-1.5-1.96-.23-3.95-.4-5.89-.73-1.51-.25-3.09-.63-4.12-1.84-.64-.75-1.31-1.52-2.4-1.51s-2.07.83-2.38,1.88c-.34,1.12.13,2.17.56,3.18s.89,2.07,1.33,3.11c.32.75,1.42.91,2.05.54.77-.45.86-1.3.54-2.05h0Z"/>
    </g>
    <g>
      <path class="cls-7" d="m673.51,181.78c-3.19.96-5.53-1.78-6.74-4.37-.53-1.14-1.65-2.97-.78-4.1s2.19-2.06,3.33-2.9c4.94-3.64,10.95-5.89,17.07-6.42,1.56-.14,3.21-.23,4.73.21,1.62.46,2.81,1.59,3.72,2.96,1.59,2.4,2.33,5.24,2.16,8.1s-1.39,5.93-3.47,8.03c-2.44,2.47-5.48,2.45-8.74,2.45-2.11,0-4.21,0-6.32,0-1.63,0-3.29.08-4.9-.19s-3.08-.85-3.72-2.39c-.6-1.44-.37-3.19-.16-4.69.26-1.89-2.63-2.7-2.89-.8-.49,3.55-.55,7.53,2.87,9.66s7.84,1.41,11.48,1.41c4.1,0,8.93.65,12.55-1.73,3.08-2.03,5.16-5.5,5.94-9.07s.32-7.58-1.41-10.95c-1.86-3.64-4.9-5.91-9.04-6.11-7.7-.36-15.97,2.77-22.03,7.4-1.55,1.19-3.67,2.63-4.35,4.55-.71,2.05.58,4.43,1.45,6.25,1.79,3.77,5.66,6.88,10.04,5.57,1.84-.55,1.06-3.45-.8-2.89h0Z"/>
      <path class="cls-7" d="m686.65,178c-1.67-.54-3.4-.32-5.09.05-1.31.29-2.73.82-4.06.6-.52-.09-1.02-.25-1.47-.5-.26-.15-.33-.19-.54-.39-.07-.07-.23-.36-.18-.24-.13-.34-.04.08-.01-.11.02-.15-.14.14.05-.14.07-.11.24-.27.36-.37.56-.53,1.23-.95,1.88-1.37,1.32-.85,2.73-1.59,4.19-2.16,1.3-.5,2.71-1.04,4.12-1.09.46-.02.98,0,1.36.17.17.07.39.28.39.27.05.05.12.18.14.23-.13-.3.02.06.02.11,0-.35-.06.23,0-.03-.02.1-.19.58-.07.3-.09.21-.21.41-.33.6-.05.08-.11.16-.16.24,0,0-.27.37-.13.18-1.4,1.84-3.61,3.71-3.35,6.27.08.81.63,1.5,1.5,1.5.75,0,1.58-.69,1.5-1.5-.01-.14-.02-.28-.02-.42,0-.42-.08.26.02-.15.02-.09.05-.18.07-.27.12-.42-.13.23.06-.18.23-.49.67-1.1.89-1.38.76-.95,1.64-1.84,2.27-2.89s.94-2.25.51-3.41c-.63-1.7-2.25-2.49-3.96-2.62s-3.53.42-5.15,1.01c-1.8.66-3.55,1.48-5.18,2.51-1.47.93-3.38,2.05-3.87,3.83-.46,1.67.6,3.17,1.95,4.02,1.58.99,3.47,1.2,5.28.9,2.03-.34,4.16-1.32,6.21-.66,1.84.6,2.63-2.3.8-2.89h0Z"/>
      <path class="cls-7" d="m689.64,176.07c-.04-.32-.46.19-.65.33-.29.2-.6.36-.9.54-.7.41-1.38.9-1.96,1.48-1.14,1.14-1.94,2.58-2.3,4.15-.23,1.01.45,1.81,1.45,1.9,1.67.15,2.59-1.7,3.45-2.83,1.1-1.44,2.2-2.87,3.29-4.31l-1.69.69-.48-.67-.04.17c-.15.08-.44.81-.55,1-.33.6-.68,1.19-1.04,1.77-.72,1.18-1.48,2.32-2.28,3.44-1.13,1.59,1.45,3.02,2.59,1.51s2.22-2.92,3.34-4.38l-2.74-1.16c-.3,1.34-.6,2.67-.9,4.01-.37,1.64,1.84,2.64,2.74,1.16,1.22-2,2.43-4,3.65-6l-2.8-.76c.18,1.57-.14,3.07-1.13,4.34l2.51,1.46c1.19-3.27,2.86-6.3,4.89-9.12l-2.59-1.51c-1.18,2.48-2.36,4.97-3.54,7.45l2.59,1.51c1.41-3.16,1.74-6.55.76-9.89-.43-1.48-2.41-1.37-2.89,0-.54,1.53-1.57,2.78-2.91,3.69l2.2,1.69c.28-1.81.59-3.61.85-5.42.19-1.38.22-2.81-.64-3.98-1.94-2.63-5.68-1.36-8.24-.66-3.2.87-6.69,1.6-9.65,3.15-1.32.69-2.42,1.65-3.25,2.88-.7,1.04-1.12,2.24-2.32,2.79l1.82.23c-.53-.68-1.06-1.61-1.71-2.18-.25-.48-.35-.49-.31-.03-.1.43-.03.45.22.06.28-.17.52-.55.76-.78.96-.93,2.02-1.73,3.16-2.43,2.55-1.57,5.37-2.61,8.25-3.36s5.92-1.28,8.92-1.5c.85-.06,1.2,0,1.68.71.51.77.97,1.59,1.43,2.39.93,1.6,1.81,3.23,2.65,4.89l2.36-1.82c-1.56-1.62-3.22-3.14-4.98-4.53-1.6-1.26-3.36-2.81-5.38-3.32-2.23-.57-4.62.4-6.73,1.06s-4.24,1.41-6.18,2.49c-3.42,1.9-6.51,5.17-6.68,9.27s2.83,7.18,6.19,8.71c2.21,1,4.64,1.41,7.05,1.43s5.26-.07,7.29-1.41c.61-.4,1.06-1.38.54-2.05-.75-.97-1.63-1.51-2.79-1.87-.44-.13-2.77-.45-2.83-1.03-.16-1.41-1.96-2.13-2.8-.76-.75,1.23-2.63,1.28-3.84.81-1.74-.68-2.82-2.35-3.66-3.92-.78-1.46-3.4-.44-2.74,1.16,1.66,4.04,5.38,6.32,9.27,7.93,1.86.77,4.59,1.35,5.77-.86,1.03-1.92-1.02-4.18-3.03-3.4-1.78.69-1.01,3.59.8,2.89-.09-.71-.41-1.02-.97-.9-.28-.06-.56-.14-.83-.25-.5-.17-.99-.39-1.48-.61-.94-.43-1.87-.9-2.74-1.46-1.6-1.01-3.16-2.35-3.9-4.14l-2.74,1.16c1.3,2.42,3.25,4.84,6.07,5.48,2.45.56,5.26-.13,6.62-2.37l-2.8-.76c.17,1.47.99,2.46,2.33,3.09.65.31,1.33.47,2.03.65.49.13,1.35.25,1.68.68l.54-2.05c-1.79,1.18-4.59,1.09-6.66.98s-4.2-.59-6-1.7c-1.57-.97-3-2.5-3.32-4.38s.59-3.74,1.81-5.11c2.93-3.29,7.68-4.59,11.79-5.66,1.18-.31,2.14-.33,3.22.27.97.54,1.88,1.25,2.76,1.93,1.85,1.42,3.58,3.01,5.2,4.69,1.22,1.27,3.11-.34,2.36-1.82-1.05-2.07-2.16-4.1-3.36-6.09-1.07-1.79-2.04-3.4-4.36-3.42-1.82-.02-3.72.36-5.52.64-1.94.31-3.87.71-5.77,1.25-3.5.99-6.93,2.45-9.84,4.65-1.23.93-3.17,2.31-3.71,3.82-.29.81.04,1.46.52,2.1.74.98,1.52,1.94,2.27,2.91.43.55,1.26.49,1.82.23,2.09-.96,2.49-3.16,4.04-4.63,1.85-1.76,4.82-2.28,7.18-2.97,1.41-.41,2.82-.8,4.23-1.18,1.04-.28,2.38-.8,3.47-.53,1.16.29.8,1.63.66,2.54-.24,1.54-.48,3.08-.72,4.61-.18,1.16,1.01,2.51,2.2,1.69,2.01-1.37,3.48-3.18,4.29-5.48h-2.89c.74,2.52.63,5.16-.45,7.58-.78,1.74,1.76,3.27,2.59,1.51,1.18-2.48,2.36-4.97,3.54-7.45.83-1.76-1.46-3.08-2.59-1.51-2.19,3.03-3.92,6.32-5.2,9.84-.5,1.36,1.59,2.63,2.51,1.46,1.47-1.87,2.28-4.06,2.01-6.46-.16-1.41-1.96-2.13-2.8-.76-1.22,2-2.43,4-3.65,6l2.74,1.16c.3-1.34.6-2.67.9-4.01.39-1.75-1.74-2.47-2.74-1.16-1.11,1.46-2.22,2.92-3.34,4.38l2.59,1.51c1.14-1.61,7.18-9.13,2.59-10.12-.73-.16-1.27.13-1.69.69-.76,1-1.53,2-2.29,3-.38.5-.76,1-1.15,1.5-.14.18-1,1.14-.72,1.16l1.45,1.9c.44-1.97,1.66-3.1,3.33-4.09,1.56-.93,2.75-2.03,2.48-3.99-.11-.81-1.14-1.23-1.85-1.05-.87.23-1.16,1.05-1.05,1.85h0Z"/>
      <path class="cls-7" d="m683.06,179.9c-.11.38.09-.09-.09.25,0,.01-.14.21-.05.11-.19.25-.34.35-.57.47-.45.25-.83.28-1.4.2l1.3,2.26c.15-.2-.01,0,.08-.11.08-.09.16-.18.25-.27.07-.07.14-.14.21-.2.02-.02.3-.26.19-.17,0,0,.33-.24.47-.32.2-.13.4-.24.6-.36.9-.49,1.84-.88,2.78-1.28,1.89-.82,3.77-1.8,4.87-3.63.62-1.03-.44-2.72-1.69-2.2-4.29,1.77-8.57,3.54-12.86,5.31-.75.31-1.28,1-1.05,1.85.19.71,1.09,1.36,1.85,1.05,4.29-1.77,8.57-3.54,12.86-5.31l-1.69-2.2c-.06.1-.13.21-.2.31-.14.21.22-.24-.08.1-.15.16-.3.32-.46.47-.09.08-.18.16-.28.24.13-.1,0,0-.06.03-.19.13-.38.25-.58.37-.87.51-1.81.9-2.74,1.3-1.95.84-3.8,1.76-5.07,3.53-.3.43-.25,1.08,0,1.51.29.5.75.67,1.3.74,2.16.29,4.42-1.13,5.01-3.24.53-1.86-2.37-2.66-2.89-.8h0Z"/>
      <path class="cls-7" d="m673.53,184.86c-3.29.69-5.8-2.18-6.96-4.89-.55-1.27-1.21-2.84-.42-4.13s2.23-2.03,3.45-2.74c1.67-.97.16-3.57-1.51-2.59s-3.63,2.18-4.63,3.99c-1.23,2.21-.51,4.59.42,6.77s2.19,3.94,4.07,5.22,4.17,1.73,6.37,1.28c.79-.17,1.25-1.1,1.05-1.85-.23-.82-1.05-1.21-1.85-1.05h0Z"/>
    </g>
    <g>
      <path class="cls-7" d="m708.12,161.64c-1.67,5.91-2.65,12.08-2.67,18.23,0,2.52.38,5.04,2.05,7.03,1.3,1.56,3.18,2.55,5.09,3.17,9.37,3.01,19.61-2.9,21.54-12.55.67-3.33.47-6.71.16-10.07-.34-3.56-.69-7.13-1.04-10.69-.1-1.07-1.21-1.95-2.26-1.3-3.17,1.99-5.86,4.84-6.98,8.47-1.23,4-.04,8.11-.28,12.18-.22,3.77-2.58,6.73-6.12,8.01-1.16.42-4.06,1.38-4.75-.17-.38-.84-.43-1.95-.61-2.84-.24-1.21-.47-2.42-.68-3.63-.95-5.41-1.52-10.89-.82-16.37l-2.56,1.06c2.66,3.22,2.81,7.36,2.63,11.34-.09,1.99-.26,3.97-.26,5.96,0,1.86.06,3.89,1.07,5.52,2.02,3.26,6.61,3.48,9.87,2.19,3.86-1.53,5.67-5.16,6.57-8.99,1.27-5.42,1.32-11.02,1.33-16.55h-3c0,2.72.83,5.29,2.32,7.57.65,1,2.48.98,2.74-.36.6-3.03.49-6.04-.36-9.01-.46-1.61-2.95-1.32-2.95.4,0,4.31,0,8.61.01,12.92,0,3.43.53,7.22-2.22,9.78-2.11,1.96-6.06,3.51-8.94,2.65-1.6-.48-1.96-3-2.38-4.39-.57-1.91-1.01-3.86-1.31-5.84s-.41-3.98-.39-5.97c.02-1.75.24-3.55-.25-5.27-.77-2.75-3.94-5.46-6.96-4.66-1.95.51-1.82,2.29-1.31,3.83.54,1.64.69,3.34.68,5.06,0,3.56-.58,7.1-.03,10.65s2.47,7.39,6.33,8.26,7.61-.67,10.95-2.23c1.39-.65.65-2.8-.76-2.8-2.54.02-5.17-.64-7.12-2.33l-1.82,2.36c3.51,2.41,8.49,2.77,12.4,1.17,1.76-.72.99-3.63-.8-2.89-3.25,1.33-7.15,1.14-10.08-.87-1.39-.96-3.11,1.24-1.82,2.36,2.57,2.22,5.88,3.23,9.25,3.2l-.76-2.8c-2.66,1.25-6.19,2.77-9.16,1.8-3.15-1.03-3.8-5.21-3.86-8.05-.08-3.29.48-6.58.21-9.87-.07-.81-.17-1.62-.34-2.42-.06-.28-.42-2.25-.69-2.31l-.41.78c.22,0,.44.03.65.09.34.08.65.21.95.39.62.36,1.14.91,1.44,1.56.63,1.39.35,3.06.32,4.54-.04,1.98.06,3.95.31,5.92.45,3.6,1.29,7.19,2.67,10.55,2.57,6.27,12.36,2.84,15.75-.93,2.63-2.93,2.51-6.6,2.5-10.31,0-4.64,0-9.27-.01-13.91l-2.95.4c.7,2.44.85,4.92.36,7.42l2.74-.36c-1.21-1.86-1.9-3.83-1.91-6.06,0-1.93-2.99-1.93-3,0-.01,4.4,0,8.85-.72,13.2-.55,3.34-1.31,7.47-4.57,9.24-2.67,1.44-6.91,1.3-7.45-2.3s.22-7.1.21-10.57c0-4.11-.91-7.95-3.57-11.17-.93-1.13-2.42-.07-2.56,1.06-.67,5.25-.18,10.51.68,15.71.41,2.52.76,5.16,1.45,7.63.55,1.96,2.04,3.08,4.05,3.27,3.88.36,8.14-1.9,10.48-4.91,2.86-3.69,2.34-8.18,2.08-12.54-.14-2.38-.11-4.8,1-6.96s2.93-3.93,5.02-5.24l-2.26-1.3c.51,5.29,1.37,10.68,1.34,16.01-.02,4.45-1.31,8.66-4.7,11.69-3.06,2.73-7.29,3.85-11.32,3.23-1.71-.26-3.5-.81-4.9-1.88-1.76-1.35-2.19-3.41-2.21-5.53-.06-6.02.93-12.06,2.56-17.84.53-1.86-2.37-2.66-2.89-.8h0Z"/>
      <path class="cls-7" d="m710.18,181.55c1.21-7.23,1.03-14.56-.56-21.72-.11-.5-.56-.92-1.05-1.05-1.17-.3-2.31-.15-3.33.51-1.61,1.05-.11,3.65,1.51,2.59.36-.24.59-.31,1.02-.2l-1.05-1.05c1.47,6.6,1.68,13.45.56,20.12-.32,1.89,2.57,2.7,2.89.8h0Z"/>
      <path class="cls-7" d="m716.17,186.88c6.49-2.66,10.99-9.12,11.01-16.18,0-1.93-3-1.93-3,0-.01,5.61-3.58,11.14-8.81,13.28-.75.31-1.28,1-1.05,1.85.19.71,1.09,1.36,1.85,1.05h0Z"/>
    </g>
    <g>
      <g>
        <path class="cls-7" d="m540.15,188.44c-1.35-.28-2.23-1.63-2.6-2.96s-.43-2.78-.99-4.07c-.91-2.12-3.09-3.48-5.35-4.02s-4.62-.37-6.93-.2c-.58.04-1.19.1-1.63.47-.78.65-.61,1.84-.49,2.84.22,1.76.11,3.55-.33,5.27-.09.34-.2.71-.49.91-.66.48-1.55-.22-1.99-.9-1.64-2.57-1.97-5.72-2.22-8.75-.4-4.88-.69-9.76-.93-14.65-.11-2.12-.88-5.32-.35-7.36.01-.05,1.94-3.96,1.95-2.37,0,.83-.57,1.64-1.36,1.92.01-2.07,2.24-3.83,4.28-3.37.17,1.02-1.67,1.51-2.04.54-.32.38-.65.77-.97,1.15-.42-.27-.31-.96.08-1.27s.93-.34,1.43-.34c3.52-.06,7.05.17,10.52.71,3.62.56,7.36,1.53,10.02,4.02,4.44,4.15,4.15,12.19-.58,16.01-.62.5-1.35,1.04-1.38,1.83-.03.64.43,1.18.82,1.68,2.81,3.6,3.44,8.74,1.59,12.9-.02,0-.04,0-.06-.01Z"/>
        <path class="cls-8" d="m532.89,158.77c-2.78-.08-11.84-2.82-11.01,2.44.41,2.81-.51,6.3.91,8.71,5.63,1.91,20.93-4.7,10.1-11.15Z"/>
        <path class="cls-3" d="m532.89,158.77c-2.78-.08-11.84-2.82-11.01,2.44.41,2.81-.51,6.3.91,8.71,5.63,1.91,20.93-4.7,10.1-11.15Z"/>
      </g>
      <path class="cls-7" d="m543.28,185.7c-.2-5.53-.88-12.04-5.97-15.32-1.19-.77-2.42.5-2.2,1.69.6,3.33,1.2,6.66,1.79,9.98.43,2.42.94,6.03,4.12,6.08.85.01,1.45-.7,1.5-1.5.06-1.05.13-2.1.19-3.15.12-1.93-2.88-1.92-3,0-.06,1.05-.13,2.1-.19,3.15l1.5-1.5c-.31,0-.14-.03-.03.05-.18-.13-.23-.24-.32-.39-.21-.34-.32-.72-.41-1.09-.32-1.27-.49-2.6-.72-3.89-.51-2.85-1.02-5.69-1.53-8.54l-2.2,1.69c4.05,2.62,4.33,8.4,4.49,12.73.07,1.92,3.07,1.93,3,0h0Z"/>
      <path class="cls-7" d="m519,175.68c.39,2.11.65,4.3.61,6.45-.02,1.05-.13,2.83-1.36,3.15l1.85,1.05c-1.33-3.46-.75-7.4-.61-11.02.16-3.97.31-7.94.47-11.91.08-1.93-2.92-1.93-3,0-.16,4.12-.32,8.24-.48,12.36-.15,3.75-.65,7.77.73,11.36.29.76,1,1.27,1.85,1.05,5.21-1.37,3.52-9.59,2.84-13.29-.35-1.9-3.24-1.09-2.89.8h0Z"/>
      <path class="cls-7" d="m522.53,179.94c1.19-1.44,2.4-2.35,4.13-3.11-.15.06.02,0,.07-.03.1-.04.19-.08.29-.11.22-.08.44-.16.66-.22.42-.13.85-.23,1.29-.32.13-.02.26-.05.38-.07.26-.04-.2.02.06,0,.23-.03.46-.05.7-.06.47-.03.93-.02,1.4,0,.78.05,1.53-.72,1.5-1.5-.04-.85-.66-1.45-1.5-1.5-4.17-.25-8.45,1.58-11.12,4.8-.52.62-.61,1.51,0,2.12.53.53,1.6.63,2.12,0h0Z"/>
    </g>
    <g>
      <path class="cls-7" d="m562.1,186.95c-.28.05-.56.1-.84.15-4.09.71-8.6,1.34-12.12-.88-2.37-1.49-3.79-4.25-3.95-7.04-.08-1.38.19-2.82.66-4.12s1.74-2.41,1.52-3.88c-.11-.76-.43-1.46-.69-2.18-1.46-4.01-.96-8.8,1.67-12.14,1.62-2.06,4.06-3.44,6.62-3.81,1.39-.2,2.57.06,3.92.25s2.6-.22,3.88-.57c.08-.02.13-.1.2-.15,0,0-.03-.08-.03-.08.19.03.38.06.57.09.26-.06.53-.12.79-.19,1.5-.35,2.83-.01,3.71,1.38.51.81.57,1.96-.04,2.68-.56.66-1.5.82-2.36.95-3.24.49-6.44,1.25-9.56,2.27-1.61.53-3.47,1.47-3.4,3.46.01.33-.12.66-.16.99-.04.37-.05.75-.07,1.12-.05.95-.49,3.26.63,3.66,1,.36,3.51-1.15,4.48-1.52.53-.2,1.07-.4,1.64-.46,1.78-.19,3.65.37,4.97,1.6,1.02.94,1.79,2.12,2.7,3.17.46.52.99,1.18.76,1.84-.21.61-.96.83-1.6.84-2.1.04-4.28.6-6.37.92s-4.64.2-6.25,1.57c-.33.05-.55.21-.63.53-.14.17-.29.35-.43.52-.07.07-.14.13-.22.2-.18.69-.36,1.38-.54,2.06-.27.2-.2.37.06.51.31.17.24,1.02.5,1.28.41.42,1.09.41,1.64.41,1.5.02,2.96-.53,4.38-.94,3.41-.98,7.01-1.26,10.53-.84.88.11,1.79.27,2.53.76s1.29,1.4,1.12,2.28c-.27,1.38-1.92,1.88-3.28,2.12-2.31.4-4.62.8-6.93,1.2Z"/>
      <path class="cls-7" d="m565.01,152.49c-5.19-1.18-11.26-1-15.32,2.89-3.44,3.3-4.73,8.78-2.95,13.23.3.75,1,1.28,1.85,1.05.71-.2,1.35-1.09,1.05-1.85-1.4-3.51-.57-7.67,2.18-10.31,3.24-3.11,8.3-3.05,12.4-2.12,1.88.43,2.68-2.46.8-2.89h0Z"/>
      <path class="cls-7" d="m561.43,170.86c.25-.05.51-.12.77-.13-.27,0,0,0,.12,0,.11,0,.21-.02.32-.02.2,0,.5-.05.7.02-.34-.11.05.02.1.03.05.01.26.1.31.1l-.17-.07c.06.03.12.06.18.09.07.04.14.09.21.13.15.09-.21-.21-.03-.02.01.01.22.19.21.21-.12-.16-.15-.2-.09-.11.03.04.05.08.08.12.02.04.05.08.07.13.05.1.03.06-.06-.14l.03.09c.04.16.04.12,0-.12-.02.02,0,.26,0,.29l2.8-.76c-.75-1.58-2.69-2.35-4.34-1.91-.61.16-1.13.8-1.1,1.45.03.6.44,1.35,1.1,1.45.84.12,1.67.3,2.48.56.2.06.39.13.59.2.1.04.19.07.29.11.04.01.36.15.17.07s.16.07.16.07c.09.04.19.09.28.13.21.1.41.2.61.31l-.3-2.36c-.04.05-.09.1-.13.15-.19.22.17-.09.04-.02-.05.03-.12.06-.17.1-.12.09.33-.09.04-.02-.04.01-.16.02-.19.05.05-.04.33,0,.11-.02-.06,0-.34-.03-.09.01.26.05-.06-.02-.09-.03-.76-.21-1.67.26-1.85,1.05s.24,1.62,1.05,1.85c1.19.33,2.6-.03,3.4-1,.31-.38.48-.76.41-1.26-.06-.45-.3-.88-.72-1.1-1.65-.88-3.44-1.5-5.3-1.76v2.89c.06-.02.12-.03.18-.04-.25.03-.29.03-.12.02.04,0,.25.03.28,0-.24-.04-.29-.04-.12-.02.06.01.12.03.18.04.06.02.12.04.18.06-.2-.09-.25-.11-.14-.06.09.05.19.11.28.16.25.14-.24-.23.02.03.03.03.07.07.1.1.1.12.08.09-.06-.09,0,.01.17.29.18.32.27.57,1.1.88,1.69.69.66-.21,1.06-.76,1.1-1.45.08-1.38-.87-2.69-2.09-3.28-1.43-.69-2.95-.48-4.46-.21-.77.14-1.28,1.12-1.05,1.85.27.83,1.02,1.2,1.85,1.05h0Z"/>
      <path class="cls-7" d="m564.64,173.08c1.93,0,1.93-3,0-3s-1.93,3,0,3h0Z"/>
      <path class="cls-7" d="m567.5,171.58l-.11-1.59c-.03-.5-.04-.97-.36-1.39-.23-.29-.53-.45-.85-.6-.94-.43-1.9-.74-2.92-.89-2.16-.32-4.25-.03-6.26.82-.72.31-.94,1.43-.54,2.05.49.75,1.28.87,2.05.54-.29.12.23-.08.28-.1.13-.05.26-.09.39-.13.31-.09.62-.17.93-.23.06-.01.62-.09.28-.05.14-.01.27-.03.41-.04.34-.02.69-.03,1.03-.02.16,0,.32.01.48.03.09,0,.18.02.27.03-.15-.02-.17-.03-.06,0,.32.05.63.11.94.19s.62.17.92.28c.06.02.49.21.21.08.17.08.33.16.49.24l-.74-1.3.14,2.06c.05.78.65,1.54,1.5,1.5.77-.03,1.56-.66,1.5-1.5h0Z"/>
      <path class="cls-7" d="m570.16,171.67c-.03-2-1.81-3.26-3.64-3.58-.86-.15-1.72-.12-2.59-.2-.05,0-.22,0-.26-.03.23.03.26.04.1,0l-.1-.02c-.2-.04-.38-.09-.58-.15-.31-.09.28.16,0,0-.08-.05-.17-.1-.25-.14-.23-.12.16.15.03.03-.08-.08-.17-.16-.25-.24-.53-.58-1.59-.58-2.12,0-.57.62-.56,1.5,0,2.12,1.25,1.38,3.16,1.4,4.87,1.47.16,0,.35.05.51.04-.12,0-.33-.06-.08,0,.08.02.15.03.23.05.17.04.33.09.49.14.25.08.01.05-.06-.03.04.04.19.09.24.12.11.06.25.2.37.23-.19-.15-.22-.17-.11-.07l.06.06s.11.15.17.18c-.08-.05-.19-.29-.07-.07.13.23-.04-.03-.03-.11,0,.01.06.23.07.23-.07-.08-.03-.38-.02-.06.01.78.68,1.54,1.5,1.5s1.51-.66,1.5-1.5h0Z"/>
      <path class="cls-7" d="m555.09,183.54c-.07-.03-.25-.06-.31-.11l.16.07c-.07-.03-.13-.06-.2-.09-.16-.08-.32-.17-.48-.26-.09-.06-.18-.12-.27-.18-.06-.04-.33-.27-.05-.02-.14-.12-.28-.23-.41-.36-.16-.15-.31-.31-.45-.47-.03-.03-.23-.28-.09-.1s-.05-.07-.08-.11c-.24-.35-.45-.71-.63-1.09-.08-.17-.06-.17,0,0-.04-.1-.08-.2-.12-.31-.07-.19-.12-.38-.17-.58s-.09-.39-.12-.59c-.06-.31.02.31,0-.03,0-.09-.01-.18-.02-.27-.01-.2-.01-.4,0-.6,0-.11.02-.22.02-.33.02-.29-.05.21,0,.02.1-.41.18-.81.34-1.21.29-.73-.32-1.68-1.05-1.85-.86-.2-1.54.26-1.85,1.05-1.61,4.06.93,8.95,4.98,10.31.74.25,1.67-.29,1.85-1.05.19-.83-.25-1.58-1.05-1.85h0Z"/>
    </g>
    <g>
      <g>
        <path class="cls-7" d="m572.51,157.38c-.1-.79-.01-1.54.46-2.16.73-.95,1.49-1.75,2.61-2,.44-.1.89-.19,1.32-.34,2.21-.78,5.13,1.61,5.71,4.05.32,1.37.22,2.81.12,4.22-.36,4.81-4.2,22.86,5.1,19.39,2.08-.74,3.63-2.87,4.38-5.24.75-2.36.79-4.95.65-7.47-.16-2.89-.55-5.79-.25-8.66.64-6.06,5.86-10.73,6.51-2.54.34,4.28.19,9.04-.41,13.29-.58,4.09-1.52,8.3-3.91,11.37-2.24,2.88-5.5,4.42-8.75,5.42-2.28.7-4.74,1.17-6.96.21-2.9-1.26-4.71-4.75-5.3-8.26-.6-3.51-.21-7.12-.04-10.68.11-2.2.15-4.47-.21-6.65-.19-1.12-.87-2.6-1.04-3.95Z"/>
        <path class="cls-7" d="m611.04,164.29c.18-3.59.93-17.12,6.79-9.19,4.2,5.68,1.79,17.81,1.1,23.97-.18,1.64-.41,3.29-1,4.74-.77,1.9-2.37,3.16-3.95,4-.19.1-.38.21-.6.12-.4-.15-.74,0-1.12.03-.66.06-1.33.01-2,0-.25,0-.5-.04-.75,0-.61.09-1.21.02-1.85-.29-.76-.37-1.54-.71-2.37-.72-.41,0-.83-.17-1.24-.39-.68-.36-1.39-.59-2.09-.89-6.1-2.66-7.62-11.18-7.77-17.74-.09-3.77.24-7.52.85-11.13.17-.99.92-4.18,1.83-4.48,1.7-.56,2.17,3.6,2.3,5.34.11,1.53.24,3.06.23,4.59,0,.5.05,1.03.17,1.53.23.98.27,1.97.14,2.89-.55,3.92-.3,11.24,3.28,13.58,8.23,5.37,7.79-10.78,8.05-15.96Z"/>
      </g>
      <path class="cls-7" d="m614.9,183.43c-3.43.95-7.12,1.93-10.68,1.14-2.94-.65-5.39-2.38-6.98-4.94-.42-.68-1.34-.97-2.05-.54-2.88,1.76-5.76,3.91-8.88,5.21-2.57,1.07-5.32.74-6.76-1.84-.94-1.68-3.54-.17-2.59,1.51,1.73,3.08,5.1,4.47,8.52,3.73,1.98-.43,3.79-1.49,5.5-2.53,1.91-1.16,3.82-2.33,5.72-3.5l-2.05-.54c1.92,3.08,4.88,5.34,8.43,6.23,4.21,1.06,8.54.07,12.62-1.06,1.86-.51,1.07-3.41-.8-2.89h0Z"/>
    </g>
  </g>
  <g>
    <g>
      <path class="cls-8" d="m288.17,181.77c-.11,3.78-3.71,16.09,3.17,14.96,3.67-.55,8.23.7,11.39-1.22,2.51-7.64-6.1-28.44-14.55-13.74Z"/>
      <g>
        <g>
          <path class="cls-1" d="m296.69,148.09c3.15-.95,5.82-.28,7.89,2.28,2.37,2.93,3.27,6.25,1.57,9.72-1.28,2.59-2.98,5.01-4.72,7.33-1.34,1.79-2.04,3.67-2.03,5.87.03,7.17-.24,14.31-1.53,21.38-.95,5.24-2.25,10.39-4.68,15.17-1.48,2.92-3.38,5.67-6.84,6.21-2.28.36-3.52,1.46-4.73,3.25-2.64,3.91-6.64,5.71-11.21,6.06-3.58.28-7.19.25-10.78.25-19.24,0-38.48-.05-57.71-.08-14.92-.02-29.84.03-44.76-.06-5.31-.03-10.62-.37-15.93-.56-2.21-.08-4.18-.91-6.18-1.75-1.9-.8-3.87-1.48-5.84-2.09-2.79-.86-5.02-2.4-6.58-4.88-3.3-5.25-5.22-11.02-6.42-17.06-1.47-7.39-2.14-14.88-2.07-22.41.11-13.17,2.38-25.99,6.68-38.44,1.34-3.87,3.62-6.9,7.44-8.64,3.13-1.42,6.15-3.13,9.38-4.23,2.29-.78,4.85-.99,7.29-1.03,9.99-.15,19.99-.16,29.99-.19,10.08-.04,20.16-.05,30.23-.08,11.6-.03,23.19-.06,34.79-.11,9-.04,17.99-.14,26.99-.13,1.99,0,4.01.16,5.95.57,3.73.79,6.58,2.99,8.65,6.18.73,1.12,1.65,1.63,2.98,1.63,2.43,0,4.52,1.02,5.95,2.89,1.41,1.85,2.62,3.91,3.63,6.02,1.04,2.18,1.74,4.53,2.63,6.92Zm-31.65,66.38c.11-.03.21-.07.32-.1.16.22.31.44.47.65,1.57,2.17,3.13,4.34,4.71,6.5,1.06,1.44,2.47,1.6,4.07,1.08,3.16-1.03,5.13-3.25,6.36-6.25.25-.62.04-.92-.43-1.28-3.8-2.96-6.42-6.8-7.87-11.36-2.58-8.06-3.39-16.42-3.73-24.81-.39-9.59.5-19.09,2.38-28.49.87-4.32,1.72-8.68,4.37-12.32,1.46-2,3.33-3.71,5.08-5.62-.36-.34-.88-.89-1.45-1.38-1.73-1.48-3.37-3.09-5.24-4.35-2.38-1.61-4.62-1.25-6.58.82-.84.89-1.63,1.89-2.22,2.96-1.45,2.62-2.77,5.31-4.02,7.74.18-4.9,2.48-9.13,6.39-12.89-.73,0-1.11,0-1.5,0-5.16.04-10.31.1-15.47.13-12.8.07-25.59.14-38.39.18-13.44.05-26.88.07-40.32.1-7.04.02-14.08.03-21.12.05-2.12,0-4.24,0-6.36.03-6.97.12-12.17,3.05-15.27,9.47-4.83,10.01-7.02,20.68-7.94,31.66-.72,8.61-.2,17.17,1.16,25.69,1.23,7.68,3.15,15.16,6.6,22.19,2.21,4.49,5.77,7.16,10.64,8.1,1.45.28,2.93.5,4.4.55,5.43.18,10.87.37,16.3.39,18.44.07,36.88.07,55.32.1.44,0,.88,0,1.32,0,6.91-.12,13.82-.31,20.73-.33,3.47-.01,6.95.3,10.42.44,1.2.05,2.41.01,3.69.01-.18-.51-.31-.89-.54-1.57,1.9,1.76,3.89,1.82,5.97,1.53,1.65-.23,3.31-.4,4.98-.59-.11-.24-.27-.58-.58-1.24,1.9,1.35,3.46,2.84,5.68,1.33-.18-.27-.34-.54-.53-.79-2.33-3.23-4.15-6.72-5.5-10.47-2.22-6.15-3.07-12.55-3.54-19.02-.19-2.58-.29-5.17-.44-7.76.79,4.05,1.31,8.13,1.87,12.2.96,6.97,2.62,13.74,5.94,19.99.95,1.78,2.22,3.4,3.34,5.09l.37-.22c-.15-.34-.29-.7-.46-1.03-1.05-2.02-2.11-4.04-3.14-6.06-.15-.3-.17-.68-.26-1.02Zm25.77-34.98c-1.17,1.08-2.2,2.05-3.31,3.07,2.37,1.31,3.09,3.31,2.9,5.74-.22,2.91-.45,5.82-.72,8.72-.25,2.71-.65,5.4-1.89,7.88-1.37,2.74-3.55,3.01-5.56.68-2.06-2.38-3.32-5.16-4.03-8.2-1.08-4.56-.98-9.2-.77-13.84.06-1.39.15-2.79.4-4.16.21-1.1.94-1.72,2.19-1.47.48.1.99.08,1.61.12-.96-3.98-.08-7.58,1.48-11.08,1.85-4.15,3.71-8.31,5.57-12.46.03-.06.13-.08.21-.12.17.13.35.27.61.46-.24-1.54-.47-2.94-.69-4.34l.25-.05c.27.63.53,1.27.8,1.9.08-.02.17-.05.25-.07-.19-1.21-.38-2.42-.56-3.64.53.97.83,2,1.22,2.99.13.32.5.54.76.8.02-.35.13-.73.03-1.05-.83-2.71-1.7-5.41-2.55-8.11-.08-.27-.12-.55-.17-.83.11-.04.22-.07.33-.11,1.16,2.85,2.31,5.69,3.47,8.54.1,0,.21-.02.31-.02.04-.42.25-.92.1-1.25-1.47-3.23-2.81-6.54-4.57-9.61-1.61-2.83-4.44-2.9-6.51-.38-2.03,2.48-3.7,5.21-4.77,8.27-2.19,6.31-3.55,12.82-3.64,19.48-.08,5.74.23,11.5.65,17.24.49,6.74,1.57,13.4,3.73,19.85.87,2.6,2.31,4.82,4.18,6.78,1.33,1.4,2.84,1.7,4.18.78.68-.46,1.26-1.11,1.76-1.76,1.81-2.38,2.97-5.1,3.83-7.94,2.66-8.84,3.19-17.99,3.93-27.1.01-.13-.09-.27-.14-.4-.11,0-.22-.02-.33-.02-.6,1.6-.26,3.38-.7,5.26-.18-1.34-.33-2.45-.48-3.56-.16.01-.32.03-.48.04,0,2.04,0,4.09,0,6.13-.07,0-.14-.01-.22-.02-.14-1.7-.28-3.39-.42-5.09-.16,0-.31.01-.47.02,0,2.16,0,4.32,0,6.49-.15,0-.3,0-.44,0v-5.5c-.1,0-.21,0-.32,0-.1.98-.19,1.96-.29,2.94-.08,0-.15,0-.23-.01-.13-.58-.26-1.16-.44-1.97Zm3.95-30.4c.21-.33.42-.51.39-.64-.15-.9-.32-1.8-.55-2.68-1.07-4.1-2.72-7.85-6.33-10.42-3.82-2.72-7.17-2.24-9.97,1.51-2.03,2.71-3.6,5.68-4.49,8.95-1.72,6.34-2.73,12.81-3.24,19.36-.56,7.27-.45,14.54.22,21.79.47,5.1,1.14,10.17,2.85,15.03,1.56,4.43,3.63,8.53,7.4,11.55,2.85,2.28,5.32,2.23,8.07-.16,2.27-1.97,3.66-4.53,4.64-7.31,3.84-10.9,4.62-22.24,4.75-33.66,0-.35-.21-.69-.32-1.04-.15,0-.31-.01-.46-.02-.25,1.34-.6,2.67-.74,4.02-.61,6.12-1.08,12.26-1.77,18.37-.58,5.1-1.7,10.11-4.24,14.64-.94,1.67-2.17,3.28-3.6,4.55-1.81,1.61-4.18,1.39-6-.24-.74-.66-1.52-1.39-1.94-2.26-1.15-2.36-2.43-4.72-3.11-7.23-3.92-14.55-5.01-29.35-3.29-44.32.73-6.37,2.75-12.39,6.27-17.82.75-1.16,1.65-2.29,2.69-3.18,2.13-1.83,4.66-1.67,6.7.27.57.55,1.12,1.17,1.51,1.85,1.03,1.84,1.98,3.73,2.93,5.62.55,1.09,1.03,2.21,1.62,3.48Zm-164.62,70.39c-.4-.61-.66-1.01-.92-1.41-3.02-4.6-5.6-9.41-6.71-14.86-1.54-7.56-2.91-15.14-3.28-22.87-.48-10.07.15-20.04,2.65-29.85,1.6-6.3,3.93-12.31,6.98-18.05.21-.39.22-.89.32-1.34-.15-.07-.29-.14-.44-.2-1.16,1.08-2.66,1.96-3.42,3.27-1.57,2.71-3.09,5.54-4.04,8.52-3.55,11.18-5.32,22.69-5.41,34.43-.05,6.93.52,13.81,1.79,20.62,1.14,6.17,2.96,12.09,6.34,17.45,1.4,2.21,3.37,3.55,6.14,4.29Zm169.01-70.42c-2.7.11-4.72,1.45-6.1,3.66-2.58,4.13-5.15,8.28-7.53,12.52-1.08,1.92-1.72,4.1-2.54,6.17-1.22,3.08-.07,5.87,1.15,8.6.69,1.54,1.73,1.68,3.1.67.32-.24.62-.51.9-.79,2.07-2.05,4.17-4.08,6.19-6.18,3.55-3.7,6.78-7.66,9.43-12.06,2.38-3.96,1.96-8.24-1.07-11.06-.99-.92-2.1-1.6-3.54-1.54Z"/>
          <path class="cls-2" d="m265.04,214.48c.08.34.1.71.26,1.02,1.03,2.03,2.1,4.04,3.14,6.06.17.33.31.69.46,1.03l-.37.22c-1.12-1.69-2.39-3.3-3.34-5.09-3.33-6.25-4.98-13.03-5.94-19.99-.56-4.07-1.08-8.15-1.87-12.2.14,2.59.25,5.18.44,7.76.47,6.47,1.32,12.87,3.54,19.02,1.35,3.75,3.17,7.24,5.5,10.47.18.25.35.52.53.79-2.22,1.51-3.78.02-5.68-1.33.3.65.47,1,.58,1.24-1.66.2-3.32.36-4.98.59-2.08.28-4.08.23-5.97-1.53.24.68.37,1.07.54,1.57-1.28,0-2.48.03-3.69-.01-3.47-.14-6.95-.45-10.42-.44-6.91.02-13.82.21-20.73.33-.44,0-.88,0-1.32,0-18.44-.03-36.88-.03-55.32-.1-5.43-.02-10.87-.21-16.3-.39-1.47-.05-2.95-.27-4.4-.55-4.87-.94-8.43-3.6-10.64-8.1-3.45-7.03-5.37-14.51-6.6-22.19-1.36-8.52-1.89-17.09-1.16-25.69.92-10.98,3.11-21.65,7.94-31.66,3.1-6.42,8.31-9.35,15.27-9.47,2.12-.04,4.24-.03,6.36-.03,7.04-.02,14.08-.03,21.12-.05,13.44-.03,26.88-.05,40.32-.1,12.8-.05,25.59-.11,38.39-.18,5.16-.03,10.31-.09,15.47-.13.39,0,.77,0,1.5,0-3.91,3.76-6.21,7.99-6.39,12.89,1.25-2.43,2.57-5.12,4.02-7.74.59-1.07,1.38-2.07,2.22-2.96,1.96-2.07,4.2-2.43,6.58-.82,1.87,1.27,3.51,2.88,5.24,4.35.57.49,1.09,1.04,1.45,1.38-1.75,1.91-3.62,3.62-5.08,5.62-2.65,3.64-3.51,8.01-4.37,12.32-1.89,9.41-2.77,18.91-2.38,28.49.34,8.4,1.15,16.75,3.73,24.81,1.46,4.56,4.07,8.39,7.87,11.36.47.37.69.66.43,1.28-1.23,3-3.2,5.22-6.36,6.25-1.59.52-3.01.37-4.07-1.08-1.58-2.16-3.14-4.33-4.71-6.5-.16-.22-.31-.43-.47-.65-.11.03-.21.07-.32.1Zm-7.66-52.44c.12,0,.24-.02.36-.02.04-.1.11-.2.13-.31.68-4.81,1.36-9.63,2.02-14.44.03-.21-.15-.45-.23-.68-.19.23-.51.45-.55.7-.62,4.62-1.21,9.25-1.79,13.87-.04.28.04.58.06.88Zm11.39-28.18c-.18-.09-.37-.19-.55-.28-.91,1.88-1.82,3.76-2.7,5.66-.04.08.22.31.42.56.99-2.07,1.91-4.01,2.83-5.94Z"/>
          <path class="cls-2" d="m290.8,179.5c.18.81.31,1.39.44,1.97.08,0,.15,0,.23.01.1-.98.19-1.96.29-2.94.11,0,.22,0,.33,0v5.5c.14,0,.29,0,.44,0,0-2.16,0-4.32,0-6.49.16,0,.31-.01.47-.02.14,1.7.28,3.39.42,5.09.07,0,.14.01.22.02,0-2.04,0-4.09,0-6.13.16-.01.32-.03.48-.04.15,1.11.3,2.22.48,3.56.44-1.88.1-3.66.7-5.26.11,0,.22.02.33.02.05.13.15.27.14.4-.74,9.12-1.27,18.26-3.93,27.1-.86,2.85-2.02,5.56-3.83,7.94-.5.66-1.09,1.3-1.76,1.76-1.34.92-2.85.62-4.18-.78-1.87-1.96-3.31-4.18-4.18-6.78-2.16-6.45-3.24-13.11-3.73-19.85-.42-5.73-.73-11.49-.65-17.24.1-6.66,1.45-13.17,3.64-19.48,1.06-3.05,2.73-5.78,4.77-8.27,2.06-2.52,4.89-2.44,6.51.38,1.75,3.07,3.1,6.38,4.57,9.61.15.33-.06.83-.1,1.25-.1,0-.21.02-.31.02-1.16-2.85-2.31-5.69-3.47-8.54-.11.04-.22.07-.33.11.06.28.09.56.17.83.85,2.7,1.72,5.4,2.55,8.11.1.32-.02.7-.03,1.05-.26-.26-.63-.48-.76-.8-.39-.99-.7-2.02-1.22-2.99.19,1.21.38,2.42.56,3.64-.08.02-.17.05-.25.07-.27-.63-.53-1.27-.8-1.9l-.25.05c.22,1.4.45,2.8.69,4.34-.26-.19-.43-.33-.61-.46-.08.05-.18.07-.21.12-1.86,4.15-3.71,8.3-5.57,12.46-1.56,3.5-2.44,7.1-1.48,11.08-.61-.04-1.12-.03-1.61-.12-1.25-.26-1.99.36-2.19,1.47-.25,1.36-.34,2.77-.4,4.16-.2,4.64-.3,9.27.77,13.84.72,3.04,1.98,5.82,4.03,8.2,2.01,2.33,4.19,2.06,5.56-.68,1.24-2.48,1.64-5.16,1.89-7.88.27-2.9.49-5.81.72-8.72.19-2.42-.53-4.42-2.9-5.74,1.1-1.02,2.14-1.99,3.31-3.07Z"/>
          <path class="cls-2" d="m294.76,149.1c-.59-1.27-1.07-2.39-1.62-3.48-.95-1.89-1.9-3.78-2.93-5.62-.38-.69-.93-1.3-1.51-1.85-2.04-1.94-4.56-2.1-6.7-.27-1.04.89-1.94,2.02-2.69,3.18-3.52,5.43-5.53,11.45-6.27,17.82-1.72,14.97-.63,29.77,3.29,44.32.68,2.51,1.96,4.87,3.11,7.23.42.86,1.2,1.6,1.94,2.26,1.82,1.62,4.19,1.85,6,.24,1.43-1.27,2.66-2.88,3.6-4.55,2.54-4.53,3.66-9.54,4.24-14.64.69-6.11,1.16-12.25,1.77-18.37.14-1.35.49-2.68.74-4.02.15,0,.31.01.46.02.11.35.32.7.32,1.04-.13,11.43-.9,22.77-4.75,33.66-.98,2.78-2.37,5.33-4.64,7.31-2.75,2.39-5.22,2.44-8.07.16-3.77-3.01-5.85-7.12-7.4-11.55-1.71-4.86-2.38-9.93-2.85-15.03-.67-7.26-.79-14.52-.22-21.79.51-6.55,1.52-13.02,3.24-19.36.89-3.27,2.46-6.24,4.49-8.95,2.81-3.75,6.16-4.23,9.97-1.51,3.61,2.57,5.26,6.32,6.33,10.42.23.88.39,1.78.55,2.68.02.13-.18.3-.39.64Z"/>
          <path class="cls-2" d="m130.14,219.49c-2.77-.74-4.74-2.08-6.14-4.29-3.39-5.36-5.2-11.28-6.34-17.45-1.26-6.81-1.84-13.7-1.79-20.62.08-11.74,1.85-23.25,5.41-34.43.94-2.97,2.46-5.81,4.04-8.52.76-1.31,2.26-2.19,3.42-3.27.15.07.29.14.44.2-.1.45-.11.95-.32,1.34-3.04,5.74-5.38,11.75-6.98,18.05-2.49,9.81-3.13,19.77-2.65,29.85.37,7.73,1.73,15.31,3.28,22.87,1.11,5.45,3.7,10.26,6.71,14.86.26.4.52.8.92,1.41Z"/>
          <path class="cls-2" d="m299.14,149.07c1.44-.06,2.55.62,3.54,1.54,3.03,2.82,3.46,7.1,1.07,11.06-2.65,4.4-5.88,8.36-9.43,12.06-2.02,2.1-4.12,4.13-6.19,6.18-.28.28-.58.55-.9.79-1.37,1.01-2.42.87-3.1-.67-1.22-2.73-2.37-5.53-1.15-8.6.82-2.07,1.46-4.24,2.54-6.17,2.38-4.25,4.94-8.39,7.53-12.52,1.38-2.21,3.4-3.55,6.1-3.66Zm-9.59,26.46c.61-.3,1.36-.47,1.82-.93,2.41-2.39,4.74-4.85,7.11-7.27.77-.79.86-1.69.21-2.48-1.55-1.87-3.16-3.7-4.84-5.46-.79-.82-2.42-.65-2.94.24-1.83,3.17-3.73,6.32-5.39,9.58-1.54,3.02.47,6.02,4.02,6.31Zm13.9-17.34c-.26-2.4-1.2-4.53-3.29-6.02-.54-.38-1.2-.64-1.84-.8-1.7-.4-3.27.44-4.23,2.18-.81,1.46-.58,2.47.83,3.92.89.91,1.73,1.88,2.62,2.78.78.79,1.6,1.54,2.43,2.29.57.52,1.11.48,1.65-.1,1.11-1.18,1.75-2.54,1.83-4.26Zm-17.69,21.84q1.74-2.05-.2-4c-1.8,1.12-1.78,1.46.2,4Z"/>
          <path class="cls-1" d="m270.21,201.14c1.85,4,3.7,7.99,5.55,11.99-3.81-3.08-4.78-7.49-5.55-11.99Z"/>
          <path class="cls-1" d="m257.37,162.03c-.02-.29-.09-.59-.06-.88.58-4.63,1.17-9.25,1.79-13.87.03-.25.36-.47.55-.7.08.23.26.47.23.68-.66,4.82-1.34,9.63-2.02,14.44-.02.11-.08.21-.13.31-.12,0-.24.02-.36.02Z"/>
          <path class="cls-1" d="m260.88,215.06c-2.04-1.7-4.28-9.11-3.85-12.89,1.27,4.25,2.54,8.5,3.85,12.89Z"/>
          <path class="cls-1" d="m268.77,133.86c-.92,1.93-1.85,3.87-2.83,5.94-.2-.25-.46-.48-.42-.56.88-1.89,1.79-3.77,2.7-5.66.18.09.37.19.55.28Z"/>
          <path class="cls-1" d="m278.6,147.92c-.76,3.02-1.52,6.04-2.35,9.35-.27-.43-.5-.63-.46-.76.72-2.92,1.46-5.84,2.21-8.75.2.05.4.11.61.16Z"/>
          <path class="cls-1" d="m275.1,165.03l-.02,11.06c-.07,0-.13,0-.2,0,0-3.68.01-7.36.02-11.04.07,0,.13-.01.2-.02Z"/>
          <path class="cls-1" d="m289.56,175.53c-3.55-.3-5.56-3.29-4.02-6.31,1.66-3.26,3.56-6.41,5.39-9.58.51-.89,2.15-1.07,2.94-.24,1.68,1.76,3.29,3.59,4.84,5.46.65.79.56,1.69-.21,2.48-2.37,2.42-4.7,4.89-7.11,7.27-.46.46-1.21.63-1.82.93Zm2.86-4.24c.09-.01.18-.03.27-.04.05-.7.1-1.39.15-2.09.26.24.27.49.39.68.18.3.43.55.64.82.1-.33.32-.67.29-.99-.24-2.83-.49-5.65-.84-8.47-.06-.49-.58-.92-.89-1.38-.43.29-1.04.49-1.25.89-1.58,3-3.11,6.03-4.58,9.08-.71,1.47-.35,2.79.76,3.5,1.11.71,1.67.51,3.02-.94.29-.31.74-.48,1.29-.82.03-.14.11-.55.23-1.11.24.4.38.62.52.85Zm2.49-2.18c1.28-2.36.95-5.66-.55-7.02.19,2.41.37,4.71.55,7.02Z"/>
          <path class="cls-1" d="m303.45,158.19c-.08,1.72-.72,3.08-1.83,4.26-.54.58-1.08.62-1.65.1-.82-.75-1.64-1.5-2.43-2.29-.9-.91-1.73-1.87-2.62-2.78-1.42-1.45-1.64-2.46-.83-3.92.96-1.74,2.53-2.58,4.23-2.18.64.15,1.31.42,1.84.8,2.09,1.48,3.02,3.62,3.29,6.02Zm-5.76-5.25c.63,3.04-.45,6.58,2.91,8.73,2.4-3.79.29-7.92-2.91-8.73Zm-.9.33c-1.94,1.68-1.67,3.4.55,4.3-.18-1.41-.35-2.77-.55-4.3Z"/>
          <path class="cls-1" d="m285.76,180.03c-1.98-2.54-1.99-2.89-.2-4q1.94,1.95.2,4Z"/>
          <path class="cls-2" d="m292.42,171.29c-.14-.23-.28-.45-.52-.85-.12.56-.2.97-.23,1.11-.55.34-1,.5-1.29.82-1.34,1.45-1.91,1.65-3.02.94-1.11-.71-1.47-2.02-.76-3.5,1.47-3.06,3-6.08,4.58-9.08.21-.4.82-.6,1.25-.89.31.46.83.89.89,1.38.35,2.81.6,5.64.84,8.47.03.32-.19.66-.29.99-.22-.27-.47-.53-.64-.82-.12-.19-.13-.45-.39-.68-.05.7-.1,1.39-.15,2.09-.09.01-.18.03-.27.04Z"/>
          <path class="cls-2" d="m294.9,169.11c-.18-2.3-.36-4.61-.55-7.02,1.5,1.36,1.82,4.66.55,7.02Z"/>
          <path class="cls-2" d="m297.69,152.94c3.2.81,5.31,4.94,2.91,8.73-3.36-2.15-2.28-5.7-2.91-8.73Z"/>
          <path class="cls-2" d="m296.79,153.27c.19,1.53.37,2.89.55,4.3-2.22-.9-2.49-2.62-.55-4.3Z"/>
        </g>
        <polygon class="cls-5" points="599.79 267.7 599.86 267.77 599.78 267.79 599.79 267.7"/>
      </g>
    </g>
    <g class="cls-10">
      <path class="cls-9" d="m293.93,194.26c3.11,10.32,15.77,14.62,26.77,17.05,31.89,7.06,65.05,11.36,97.38,6.4,4.27-.66,8.76-1.46,12.84-.09,5.07,1.7,8.28,6.3,12.12,9.87,10.99,10.21,27.84,12.25,43.14,10.93,15.3-1.32,30.35-5.41,45.71-5.27,14.71.14,29.04,4.15,43.6,6.21,41.56,5.88,85.22-4.09,125.35,7.77,15,4.43,32.49,11.5,45.09,2.58,3.49-2.47,6.06-5.92,8.56-9.31,8.61-11.66,17.49-23.96,19.3-38.1.47-3.7.35-7.76-1.99-10.75-1.56-1.99-3.91-3.27-6.23-4.41-17.89-8.8-38.22-13.07-58.34-12.24-18.79.77-37.06,5.86-55.68,8.36-28.66,3.85-57.82,1.54-86.71,3.22-21.4,1.25-42.67,4.69-64.12,4.76-27.34.09-54.66-5.32-81.88-2.92-24.32,2.15-48.38,10.51-72.59,7.42-10.86-1.38-21.24-5.03-31.95-7.21-11.53-2.35-23.45-2.98-35.18-1.87,4.29,3.19,8.57,6.39,12.86,9.58l1.98-2Z"/>
      <path class="cls-9" d="m292.49,194.66c4.08,12.65,19.15,16.24,30.61,18.71,17.54,3.78,35.33,6.67,53.27,7.64,9.18.5,18.38.48,27.55-.2,4.24-.31,8.47-.77,12.68-1.37s9.14-1.82,13.51-.49c3.67,1.12,6.35,3.98,8.93,6.66,2.44,2.54,4.97,4.91,7.93,6.84,5.92,3.86,12.84,6.01,19.79,7.03,16.32,2.39,32.38-1.49,48.5-3.63,8.97-1.19,17.9-1.53,26.91-.53s17.94,3.01,26.9,4.54c34.56,5.92,69.54.34,104.26,3.66,8.71.83,17.38,2.29,25.8,4.68,7.46,2.11,14.77,4.8,22.4,6.26,6.78,1.3,14.03,1.73,20.54-.95,7.1-2.92,11.37-9.13,15.74-15.11,4.78-6.54,9.46-13.24,12.86-20.62,2.92-6.35,5.63-14.04,4.67-21.14-1.09-8.05-8.8-10.91-15.43-13.7-7.45-3.14-15.22-5.54-23.15-7.14-16.95-3.43-33.92-2.79-50.9,0-8.81,1.45-17.55,3.28-26.36,4.76-9.15,1.54-18.35,2.51-27.61,3.02-18.32,1-36.67.45-55.01.93-18.5.49-36.82,2.86-55.26,4.31-18.65,1.46-37.02.6-55.63-.89s-36.44-2.65-54.64-.24c-17.67,2.34-35.11,7.09-53.02,7.25s-34.76-7-52.52-9.29c-8.86-1.14-17.81-1.27-26.71-.46-1.54.14-1.97,1.89-.76,2.8,4.29,3.19,8.57,6.39,12.86,9.58.52.39,1.39.2,1.82-.23l1.98-2c1.36-1.37-.76-3.5-2.12-2.12l-1.98,2,1.82-.23c-4.29-3.19-8.57-6.39-12.86-9.58l-.76,2.8c8.89-.81,17.85-.69,26.71.46s17.25,3.58,25.81,5.72,16.4,3.5,24.85,3.57c8.55.07,17.06-.97,25.49-2.32,17.6-2.82,34.82-6.47,52.73-6.38s35.64,2.4,53.48,3.23c17.88.84,35.58-.74,53.35-2.5,17.91-1.77,35.72-2.62,53.71-2.7,17.83-.08,35.71,0,53.44-2.12,17.28-2.08,34.19-6.63,51.53-8.25,16.68-1.56,33.52.19,49.46,5.4,4.07,1.33,8.07,2.87,11.97,4.65,3.43,1.56,7.77,3.16,9.7,6.63s1.25,7.67.55,11.23c-.78,3.96-2.1,7.81-3.79,11.47-3.28,7.12-7.75,13.61-12.35,19.93s-9.34,13.34-17.57,15.48c-7.15,1.86-14.76.37-21.76-1.47-7.59-2-14.96-4.71-22.61-6.46-32.86-7.55-66.79-2.55-100.11-4.2-8.78-.43-17.47-1.43-26.13-2.98s-16.54-3.23-24.91-4.19c-8.75-1.01-17.44-.78-26.18.32s-17.03,2.74-25.6,3.75c-14.28,1.69-30.29,1.49-42.68-6.79-5.72-3.82-9.46-10.51-15.97-13.13-3.41-1.38-7.09-1.27-10.68-.82-4.3.54-8.57,1.27-12.89,1.7-17.54,1.74-35.25.97-52.7-1.29-8.87-1.15-17.69-2.68-26.45-4.46-7.17-1.46-14.56-2.79-21.31-5.71-5.55-2.41-10.86-6.07-12.8-12.07-.59-1.83-3.49-1.05-2.89.8Z"/>
    </g>
  </g>
</svg>