<?xml version="1.0" encoding="UTF-8"?>
<svg id="Layer_2" data-name="Layer 2" xmlns="http://www.w3.org/2000/svg" viewBox="0 0 246.69 183.76">
  <defs>
    <style>
      .cls-1, .cls-2 {
        stroke: #000;
        stroke-miterlimit: 10;
      }

      .cls-2 {
        fill: #fff;
      }
    </style>
  </defs>
  <g id="Layer_1-2" data-name="Layer 1">
    <g>
      <path class="cls-1" d="m145.19,120.28c-.5-1.68-1.22-3.33-1.47-5.05-1.68-11.62-3.26-23.26-4.88-34.89-.16-1.15-.11-2.41-.61-3.39-.44-.87-1.52-1.42-2.32-2.11-.59.88-1.62,1.73-1.69,2.65-.16,2.3.07,4.63.24,6.94.62,8.46,1.28,16.92,1.92,25.38-.78.2-1.55.39-2.33.59-.54-1.65-1.5-3.29-1.56-4.96-.39-11.74-.54-23.48-.96-35.22-.04-1.14-1.42-2.24-2.18-3.35-.81,1.1-2.25,2.15-2.34,3.31-.35,4.77-.36,9.57-.38,14.36-.04,9.19-.01,18.39-1.17,27.81-.38-2.2-.99-4.4-1.11-6.62-.52-9.73-.87-19.47-1.38-29.2-.07-1.31-.74-2.6-2.03-3.83-4.76,13.41.69,27.43-3.12,42.48-1.01-2.38-1.89-3.53-1.91-4.69-.12-7.89.05-15.79-.16-23.68-.04-1.31-1.52-2.57-2.33-3.86-.77,1.27-2.21,2.54-2.21,3.82.02,10.58-.58,21.26.7,31.71,1.88,15.22,5.21,30.26,7.84,45.38.88,5.05,1.69,10.13,2.17,15.23.11,1.19-1.23,2.53-1.9,3.8-1.02-1.15-2.76-2.2-2.95-3.48-1.01-6.71-1.75-13.46-2.31-20.22-.25-3.06-1.63-4.61-4.4-5.82-13-5.66-26.55-7.11-40.43-5.26-9.94,1.32-19.78,3.38-29.7,4.93-1.14.18-2.45-.79-3.69-1.23.63-1.15.97-2.88,1.93-3.34,3.27-1.57,6.75-2.69,10.58-4.14-12.37-25.57-21.89-51.96-20.6-81.17-5.03-.75-9.93-1.42-14.8-2.24-1.79-.3-3.55-.85-5.26-1.47-4.51-1.63-8.02-4.29-7.9-9.61.1-4.64,2.02-8.34,6.62-10.16,4.82-1.91,10.19-.61,13.64,3.25,7.52,8.41,7.61,8.47,13.12-.96,8.66-14.82,20.48-16.93,37.97-14.97,13.1,1.47,23.11,8.58,29.13,20.68.28.57.74,1.04,1.62,2.24,4.59-6.86,8.35-15.01,18.83-11.09-1.98-3.91-3.99-7.36-5.53-11.01-3.3-7.82-1.94-15.36,2.49-22.26,3.3-5.15,13.63-7.04,19.91-2.41,6.8,5.01,12.68,11.46,18.18,17.95,3.24,3.82,5.24,8.81,7.25,13.5,1.06,2.48,2.28,2.86,4.75,3.03,6.9.47,13.89.88,20.61,2.39,17.75,3.99,26.17,19.95,26.88,35.18.02.5.04,1-.01,1.49-.71,6.9.1,13.04,3.89,19.49,2.89,4.91,2.49,11.76,3.65,18.22.83-1.32,1.66-2.6,2.44-3.91,1.53-2.56,2.83-5.27,4.58-7.66,2.67-3.65,7.92-5.23,11.5-3.65,4.38,1.94,4.41,5.85,4.04,9.74-1.57,16.29-21.36,27.92-34.95,20.09-4.36-2.51-7.45-7.22-11.34-11.15-1.27,5.1-2.67,10.7-4.21,16.85,13.17,1.67,20.01,10.23,24.74,21.1-.24.5-.48,1-.72,1.5-1.47-.68-3.14-1.12-4.36-2.11-.96-.78-1.33-2.25-2.04-3.37-5.38-8.54-12.72-13.6-23.19-11.79-10.58,1.82-21.23,3.58-31.54,6.48-10.29,2.9-14.49,10.99-12.62,21.39.61,3.42,1.35,6.83,1.78,10.27.11.87-.73,1.86-1.13,2.8-1.02-.54-2.72-.87-2.95-1.65-.9-2.99-1.73-6.1-1.88-9.2-.49-10.22-.8-20.45-.87-30.68-.01-1.75,1.26-3.64,2.28-5.26,4.92-7.79,10-15.48,14.92-23.27.73-1.15.92-2.63,1.44-4.22-5.42-1.47-6.34,2.78-8.09,5.32-1.81,2.63-2.96,5.72-4.4,8.6-.57-.11-1.14-.23-1.72-.34Zm21.54-50.67l.13.13c-.49-5.06,3.28-7.08,7.17-9.21-8.3,0-16.12-.08-23.93.08-1.43.03-3.34.64-4.16,1.68-3.87,4.87-6.32,9.94-4.8,16.8,2.48,11.21,3.93,22.65,5.81,34,2.49-2.96,4.49-6.05,7.2-8.28,1.29-1.07,4.5-1.35,5.77-.47,1.16.81,1.64,3.94,1.07,5.6-1.59,4.67-3.14,9.67-6.06,13.51-4.26,5.6-3.29,10.45-.41,15.89,1.2,2.27,2.48,3.03,5.09,2.46,9.54-2.11,19.14-3.94,28.7-5.98,1.2-.26,3-.83,3.3-1.69,3.06-8.66,7.32-17.22,4.77-26.82-2.82-10.65-5.12-21.27-1.89-32.25.07-.24-.21-.57-.52-1.34-7.94.42-12.94-5.12-17.04-9.21-3.87,1.94-7.04,3.53-10.2,5.11Zm-108.39-1.06c-1.81-2.03-3.42-5.55-5.47-5.82-5.94-.79-12.05-.28-18.37-.28v8.36c7.7-5.82,15.72-5.38,23.95-2.37.64,1.11,1.29,2.22,1.92,3.34,3.2,5.7,1.18,10.38-5.33,10.92-6.44.54-12.95.12-19.82.12.19,1.96.36,4.23.64,6.5,1.99,16.11,7.47,31.12,14.22,45.78,3.79,8.24,3.58,8.19,12.38,8.07,11.4-.15,22.81-.04,34.74-.04,8.7-27.04,11.87-54.24,2.27-81.88-5.3.26-10.08.49-14.45.7-1.76,2.4-3.29,4.49-4.82,6.58l.17-.18c-1.37.65-2.74,1.29-5.21,2.46.95-3.36,1.58-5.61,2.28-8.07h-16.72c.28,2.27.49,3.99.74,6.02-1.23-.09-2.18-.15-3.14-.21Zm84.84-8.99c-6.77-5.93-13.39-11.73-19.71-17.28,1.77,8.36-.36,12.07-9.21,15.08-3.37,1.15-6.81,2.07-10.62,3.22,1.8,7.11,3.47,13.7,5.07,20.01,2.54-.74,4.65-1.35,6.8-1.97,1.83-8.86,2.21-9.27,6.64-9.18,3.32-2.26,5.42-4.71,7.61-4.81,1.43-.06,2.98,3.33,4.51,5.15.48.57,1.29,1.59,1.56,1.48.91-.39,1.94-1.02,2.39-1.85,1.81-3.31,3.41-6.73,4.96-9.85Zm-35.2,59.29c-2.42,9.36-4.47,17.3-6.51,25.21,3.85,1.45,7.46,2.8,10.63,4-1.28-9.11-2.59-18.4-4.11-29.2Zm-60.65-38.08c-.75-3.96-1.43-7.59-2.1-11.16-6.23.4-8.51,2.34-8.22,6.62.26,3.95,3.19,5.37,10.33,4.54Zm99.02,53.65c-1.07,6.12-2.04,11.63-3,17.13,2.33-.95,3.35-2.4,4.64-3.56,1.47-1.31,3.18-2.35,4.51-3.32-1.8-3.85-3.05-6.53-4.31-9.21-.06-.12-.27-.16-1.83-1.05Z"/>
      <path class="cls-2" d="m58.34,68.55c.95.07,1.9.13,3.14.22-.25-2.03-.46-3.75-.74-6.02h16.72c-.69,2.45-1.33,4.71-2.28,8.07,2.47-1.16,3.84-1.81,5.21-2.45-.52.83-1.03,1.67-1.56,2.49-3.97,6.16-2.08,11.19,5.13,12.33,3.66.58,7.56.05,11.31-.37,3.81-.43,6.76-2.39,6.62-6.65-.13-4.35-1.43-8.78-6.62-8.99-4.99-.21-10.03.86-15.05,1.36,1.53-2.09,3.06-4.18,4.82-6.58,4.36-.21,9.14-.45,14.45-.7,9.6,27.64,6.42,54.84-2.27,81.88-11.93,0-23.33-.12-34.74.04-8.8.12-8.59.17-12.38-8.07-6.74-14.66-12.22-29.67-14.22-45.78-.28-2.26-.45-4.54-.64-6.5,6.86,0,13.38.42,19.82-.12,6.51-.54,8.53-5.23,5.33-10.92-.63-1.12-1.28-2.23-1.92-3.34l-.11.11Zm15.7,67.07c7.34-.03,12.66-4.43,14.49-12.68.57-2.59.39-6.71-1.2-8.07-2.11-1.8-6.11-2.52-9.02-2.05-6.12,1-11.93,10.82-10.65,16.96.73,3.48,2.29,6.29,6.38,5.84Zm-4.45-38.12c-.44.33-.88.65-1.32.98.81,5.03,4.24,8.13,8.63,10.21,3.82,1.81,7.88,2.17,10.82-1.63,2.88-3.73.71-6.91-1.39-10.36-3.92-6.42-7.3-13.17-10.89-19.79-.42-.77-.78-1.57-1.17-2.35-.41.06-.82.12-1.23.18.13,2.13-.36,4.58.52,6.35,3.13,6.28,6.81,12.28,10.09,18.49.92,1.73,1.21,3.8,1.78,5.71-2.09.45-4.54,1.79-6.18,1.13-2.59-1.05-4.72-3.36-6.89-5.32-1.1-1-1.86-2.38-2.77-3.59Z"/>
      <path class="cls-2" d="m166.73,69.61c3.16-1.59,6.32-3.17,10.2-5.11,4.1,4.1,9.1,9.64,17.04,9.21.31.77.59,1.11.52,1.34-3.23,10.98-.93,21.6,1.89,32.25,2.54,9.59-1.72,18.15-4.77,26.82-.3.86-2.1,1.43-3.3,1.69-9.56,2.03-19.16,3.87-28.7,5.98-2.61.58-3.89-.18-5.09-2.46-2.88-5.44-3.85-10.29.41-15.89,2.92-3.84,4.47-8.84,6.06-13.51.56-1.65.09-4.79-1.07-5.6-1.27-.89-4.47-.6-5.77.47-2.71,2.23-4.71,5.32-7.2,8.28-1.88-11.35-3.33-22.79-5.81-34-1.52-6.86.93-11.93,4.8-16.8.82-1.03,2.74-1.65,4.16-1.68,7.81-.16,15.63-.08,23.93-.08-3.89,2.12-7.66,4.15-7.17,9.21-6.71-4.03-13.55-3.62-20.26-.22-3.75,1.9-5.19,5.76-3.67,9.26.92,2.12,4.25,4.02,6.76,4.42,3.66.59,7.59.01,11.33-.54,7.98-1.19,10.11-6.27,5.72-13.04Zm3.78,2.28c-.07.59-.15,1.19-.22,1.78,2.34,1.06,4.6,2.39,7.04,3.04,1.01.27,2.41-.93,3.63-1.47-.68-1.12-1.23-3.07-2.06-3.2-2.74-.41-5.59-.15-8.39-.15Z"/>
      <path class="cls-2" d="m143.18,59.56c-1.55,3.12-3.16,6.54-4.96,9.85-.45.83-1.48,1.47-2.39,1.85-.26.11-1.08-.91-1.56-1.48-1.53-1.82-3.08-5.21-4.51-5.15-2.19.09-4.28,2.54-7.61,4.81-4.44-.09-4.81.32-6.64,9.18-2.15.62-4.26,1.23-6.8,1.97-1.6-6.3-3.27-12.89-5.07-20.01,3.81-1.15,7.25-2.07,10.62-3.22,8.85-3.02,10.97-6.72,9.21-15.08,6.32,5.54,12.94,11.35,19.71,17.28Z"/>
      <path class="cls-2" d="m107.98,118.85c1.52,10.8,2.83,20.1,4.11,29.2-3.17-1.19-6.78-2.55-10.63-4,2.04-7.91,4.1-15.85,6.51-25.21Z"/>
      <path class="cls-2" d="m58.45,68.44c-8.23-3-16.25-3.45-23.95,2.37v-8.36c6.32,0,12.43-.51,18.37.28,2.04.27,3.66,3.79,5.47,5.82,0,0,.11-.11.11-.11Z"/>
      <path class="cls-2" d="m47.33,80.77c-7.14.83-10.06-.58-10.33-4.54-.28-4.28,1.99-6.22,8.22-6.62.67,3.57,1.36,7.2,2.1,11.16Z"/>
      <path class="cls-2" d="m146.34,134.42c1.56.89,1.77.93,1.83,1.05,1.27,2.68,2.52,5.36,4.31,9.21-1.33.96-3.04,2.01-4.51,3.32-1.29,1.15-2.31,2.61-4.64,3.56.96-5.5,1.93-11.01,3-17.13Z"/>
      <path class="cls-1" d="m74.04,135.62c-4.09.46-5.66-2.36-6.38-5.84-1.29-6.14,4.52-15.96,10.65-16.96,2.91-.48,6.91.24,9.02,2.05,1.6,1.36,1.78,5.48,1.2,8.07-1.83,8.25-7.15,12.65-14.49,12.68Z"/>
      <path class="cls-1" d="m80.21,68.53c5.02-.51,10.06-1.57,15.05-1.36,5.19.22,6.48,4.64,6.62,8.99.13,4.25-2.82,6.22-6.62,6.65-3.75.42-7.64.95-11.31.37-7.21-1.14-9.1-6.17-5.13-12.33.53-.82,1.04-1.66,1.56-2.49,0,0-.17.17-.17.17Zm8.84,12.2c-.43-3.59-.82-6.93-1.23-10.36-4.29-.22-6.49,2.2-6.33,5.85.18,4.2,3.42,4.98,7.56,4.51Z"/>
      <path class="cls-1" d="m69.59,97.49c.91,1.21,1.66,2.6,2.77,3.59,2.16,1.96,4.29,4.27,6.89,5.32,1.64.66,4.09-.68,6.18-1.13-.58-1.91-.87-3.98-1.78-5.71-3.29-6.2-6.97-12.21-10.09-18.49-.88-1.76-.38-4.21-.52-6.35.41-.06.82-.12,1.23-.18.39.79.76,1.58,1.17,2.35,3.6,6.62,6.98,13.37,10.89,19.79,2.1,3.45,4.26,6.63,1.39,10.36-2.93,3.81-6.99,3.44-10.82,1.63-4.39-2.08-7.82-5.18-8.63-10.21.44-.33.88-.65,1.32-.98Z"/>
      <path class="cls-1" d="m166.73,69.61c4.4,6.78,2.26,11.85-5.72,13.04-3.74.56-7.67,1.13-11.33.54-2.51-.4-5.84-2.3-6.76-4.42-1.52-3.5-.07-7.36,3.67-9.26,6.71-3.4,13.55-3.81,20.26.22,0,0-.13-.12-.13-.12Zm-13.81-.22c-.21.54-.42,1.07-.63,1.61,1.22,2.49,2.14,5.21,3.78,7.39.81,1.08,3.3,2.02,4.38,1.55,2.19-.97,4.2-2.74,5.68-4.65.37-.48-1.31-3.63-2.52-4.01-3.43-1.06-7.11-1.32-10.69-1.89Z"/>
      <path class="cls-1" d="m170.51,71.89c2.8,0,5.65-.25,8.39.15.83.12,1.38,2.08,2.06,3.2-1.22.53-2.62,1.74-3.63,1.47-2.44-.65-4.71-1.98-7.04-3.04.07-.59.15-1.19.22-1.78Z"/>
      <path class="cls-2" d="m89.05,80.74c-4.15.47-7.39-.31-7.56-4.51-.15-3.65,2.04-6.07,6.33-5.85.41,3.43.81,6.77,1.23,10.36Z"/>
      <path class="cls-2" d="m152.92,69.39c3.58.57,7.26.83,10.69,1.89,1.22.38,2.89,3.54,2.52,4.01-1.48,1.91-3.49,3.68-5.68,4.65-1.07.48-3.57-.47-4.38-1.55-1.64-2.18-2.56-4.89-3.78-7.39.21-.54.42-1.07.63-1.61Z"/>
    </g>
  </g>
</svg>
