<?xml version="1.0" encoding="UTF-8"?>
<svg id="Layer_1" data-name="Layer 1" xmlns="http://www.w3.org/2000/svg" viewBox="0 0 824.5 295">
  <defs>
    <style>
      .cls-1, .cls-2 {
        stroke: #000;
        stroke-miterlimit: 10;
        stroke-width: .75px;
      }

      .cls-3 {
        opacity: .13;
      }

      .cls-4, .cls-5, .cls-6 {
        stroke-width: 0px;
      }

      .cls-2, .cls-5 {
        fill: #fff;
      }

      .cls-6 {
        fill: #fbb03b;
      }
    </style>
  </defs>
  <g>
    <path class="cls-5" d="m267.17,133.77c-.11,3.78-3.71,16.09,3.17,14.96,3.67-.55,8.23.7,11.39-1.22,2.51-7.64-6.1-28.44-14.55-13.74Z"/>
    <g>
      <g>
        <path class="cls-1" d="m275.69,100.09c3.15-.95,5.82-.28,7.89,2.28,2.37,2.93,3.27,6.25,1.57,9.72-1.28,2.59-2.98,5.01-4.72,7.33-1.34,1.79-2.04,3.67-2.03,5.87.03,7.17-.24,14.31-1.53,21.38-.95,5.24-2.25,10.39-4.68,15.17-1.48,2.92-3.38,5.67-6.84,6.21-2.28.36-3.52,1.46-4.73,3.25-2.64,3.91-6.64,5.71-11.21,6.06-3.58.28-7.19.25-10.78.25-19.24,0-38.48-.05-57.71-.08-14.92-.02-29.84.03-44.76-.06-5.31-.03-10.62-.37-15.93-.56-2.21-.08-4.18-.91-6.18-1.75-1.9-.8-3.87-1.48-5.84-2.09-2.79-.86-5.02-2.4-6.58-4.88-3.3-5.25-5.22-11.02-6.42-17.06-1.47-7.39-2.14-14.88-2.07-22.41.11-13.17,2.38-25.99,6.68-38.44,1.34-3.87,3.62-6.9,7.44-8.64,3.13-1.42,6.15-3.13,9.38-4.23,2.29-.78,4.85-.99,7.29-1.03,9.99-.15,19.99-.16,29.99-.19,10.08-.04,20.16-.05,30.23-.08,11.6-.03,23.19-.06,34.79-.11,9-.04,17.99-.14,26.99-.13,1.99,0,4.01.16,5.95.57,3.73.79,6.58,2.99,8.65,6.18.73,1.12,1.65,1.63,2.98,1.63,2.43,0,4.52,1.02,5.95,2.89,1.41,1.85,2.62,3.91,3.63,6.02,1.04,2.18,1.74,4.53,2.63,6.92Zm-31.65,66.38c.11-.03.21-.07.32-.1.16.22.31.44.47.65,1.57,2.17,3.13,4.34,4.71,6.5,1.06,1.44,2.47,1.6,4.07,1.08,3.16-1.03,5.13-3.25,6.36-6.25.25-.62.04-.92-.43-1.28-3.8-2.96-6.42-6.8-7.87-11.36-2.58-8.06-3.39-16.42-3.73-24.81-.39-9.59.5-19.09,2.38-28.49.87-4.32,1.72-8.68,4.37-12.32,1.46-2,3.33-3.71,5.08-5.62-.36-.34-.88-.89-1.45-1.38-1.73-1.48-3.37-3.09-5.24-4.35-2.38-1.61-4.62-1.25-6.58.82-.84.89-1.63,1.89-2.22,2.96-1.45,2.62-2.77,5.31-4.02,7.74.18-4.9,2.48-9.13,6.39-12.89-.73,0-1.11,0-1.5,0-5.16.04-10.31.1-15.47.13-12.8.07-25.59.14-38.39.18-13.44.05-26.88.07-40.32.1-7.04.02-14.08.03-21.12.05-2.12,0-4.24,0-6.36.03-6.97.12-12.17,3.05-15.27,9.47-4.83,10.01-7.02,20.68-7.94,31.66-.72,8.61-.2,17.17,1.16,25.69,1.23,7.68,3.15,15.16,6.6,22.19,2.21,4.49,5.77,7.16,10.64,8.1,1.45.28,2.93.5,4.4.55,5.43.18,10.87.37,16.3.39,18.44.07,36.88.07,55.32.1.44,0,.88,0,1.32,0,6.91-.12,13.82-.31,20.73-.33,3.47-.01,6.95.3,10.42.44,1.2.05,2.41.01,3.69.01-.18-.51-.31-.89-.54-1.57,1.9,1.76,3.89,1.82,5.97,1.53,1.65-.23,3.31-.4,4.98-.59-.11-.24-.27-.58-.58-1.24,1.9,1.35,3.46,2.84,5.68,1.33-.18-.27-.34-.54-.53-.79-2.33-3.23-4.15-6.72-5.5-10.47-2.22-6.15-3.07-12.55-3.54-19.02-.19-2.58-.29-5.17-.44-7.76.79,4.05,1.31,8.13,1.87,12.2.96,6.97,2.62,13.74,5.94,19.99.95,1.78,2.22,3.4,3.34,5.09l.37-.22c-.15-.34-.29-.7-.46-1.03-1.05-2.02-2.11-4.04-3.14-6.06-.15-.3-.17-.68-.26-1.02Zm25.77-34.98c-1.17,1.08-2.2,2.05-3.31,3.07,2.37,1.31,3.09,3.31,2.9,5.74-.22,2.91-.45,5.82-.72,8.72-.25,2.71-.65,5.4-1.89,7.88-1.37,2.74-3.55,3.01-5.56.68-2.06-2.38-3.32-5.16-4.03-8.2-1.08-4.56-.98-9.2-.77-13.84.06-1.39.15-2.79.4-4.16.21-1.1.94-1.72,2.19-1.47.48.1.99.08,1.61.12-.96-3.98-.08-7.58,1.48-11.08,1.85-4.15,3.71-8.31,5.57-12.46.03-.06.13-.08.21-.12.17.13.35.27.61.46-.24-1.54-.47-2.94-.69-4.34l.25-.05c.27.63.53,1.27.8,1.9.08-.02.17-.05.25-.07-.19-1.21-.38-2.42-.56-3.64.53.97.83,2,1.22,2.99.13.32.5.54.76.8.02-.35.13-.73.03-1.05-.83-2.71-1.7-5.41-2.55-8.11-.08-.27-.12-.55-.17-.83.11-.04.22-.07.33-.11,1.16,2.85,2.31,5.69,3.47,8.54.1,0,.21-.02.31-.02.04-.42.25-.92.1-1.25-1.47-3.23-2.81-6.54-4.57-9.61-1.61-2.83-4.44-2.9-6.51-.38-2.03,2.48-3.7,5.21-4.77,8.27-2.19,6.31-3.55,12.82-3.64,19.48-.08,5.74.23,11.5.65,17.24.49,6.74,1.57,13.4,3.73,19.85.87,2.6,2.31,4.82,4.18,6.78,1.33,1.4,2.84,1.7,4.18.78.68-.46,1.26-1.11,1.76-1.76,1.81-2.38,2.97-5.1,3.83-7.94,2.66-8.84,3.19-17.99,3.93-27.1.01-.13-.09-.27-.14-.4-.11,0-.22-.02-.33-.02-.6,1.6-.26,3.38-.7,5.26-.18-1.34-.33-2.45-.48-3.56-.16.01-.32.03-.48.04,0,2.04,0,4.09,0,6.13-.07,0-.14-.01-.22-.02-.14-1.7-.28-3.39-.42-5.09-.16,0-.31.01-.47.02,0,2.16,0,4.32,0,6.49-.15,0-.3,0-.44,0v-5.5c-.1,0-.21,0-.32,0-.1.98-.19,1.96-.29,2.94-.08,0-.15,0-.23-.01-.13-.58-.26-1.16-.44-1.97Zm3.95-30.4c.21-.33.42-.51.39-.64-.15-.9-.32-1.8-.55-2.68-1.07-4.1-2.72-7.85-6.33-10.42-3.82-2.72-7.17-2.24-9.97,1.51-2.03,2.71-3.6,5.68-4.49,8.95-1.72,6.34-2.73,12.81-3.24,19.36-.56,7.27-.45,14.54.22,21.79.47,5.1,1.14,10.17,2.85,15.03,1.56,4.43,3.63,8.53,7.4,11.55,2.85,2.28,5.32,2.23,8.07-.16,2.27-1.97,3.66-4.53,4.64-7.31,3.84-10.9,4.62-22.24,4.75-33.66,0-.35-.21-.69-.32-1.04-.15,0-.31-.01-.46-.02-.25,1.34-.6,2.67-.74,4.02-.61,6.12-1.08,12.26-1.77,18.37-.58,5.1-1.7,10.11-4.24,14.64-.94,1.67-2.17,3.28-3.6,4.55-1.81,1.61-4.18,1.39-6-.24-.74-.66-1.52-1.39-1.94-2.26-1.15-2.36-2.43-4.72-3.11-7.23-3.92-14.55-5.01-29.35-3.29-44.32.73-6.37,2.75-12.39,6.27-17.82.75-1.16,1.65-2.29,2.69-3.18,2.13-1.83,4.66-1.67,6.7.27.57.55,1.12,1.17,1.51,1.85,1.03,1.84,1.98,3.73,2.93,5.62.55,1.09,1.03,2.21,1.62,3.48Zm-164.62,70.39c-.4-.61-.66-1.01-.92-1.41-3.02-4.6-5.6-9.41-6.71-14.86-1.54-7.56-2.91-15.14-3.28-22.87-.48-10.07.15-20.04,2.65-29.85,1.6-6.3,3.93-12.31,6.98-18.05.21-.39.22-.89.32-1.34-.15-.07-.29-.14-.44-.2-1.16,1.08-2.66,1.96-3.42,3.27-1.57,2.71-3.09,5.54-4.04,8.52-3.55,11.18-5.32,22.69-5.41,34.43-.05,6.93.52,13.81,1.79,20.62,1.14,6.17,2.96,12.09,6.34,17.45,1.4,2.21,3.37,3.55,6.14,4.29Zm169.01-70.42c-2.7.11-4.72,1.45-6.1,3.66-2.58,4.13-5.15,8.28-7.53,12.52-1.08,1.92-1.72,4.1-2.54,6.17-1.22,3.08-.07,5.87,1.15,8.6.69,1.54,1.73,1.68,3.1.67.32-.24.62-.51.9-.79,2.07-2.05,4.17-4.08,6.19-6.18,3.55-3.7,6.78-7.66,9.43-12.06,2.38-3.96,1.96-8.24-1.07-11.06-.99-.92-2.1-1.6-3.54-1.54Z"/>
        <path class="cls-2" d="m244.04,166.48c.08.34.1.71.26,1.02,1.03,2.03,2.1,4.04,3.14,6.06.17.33.31.69.46,1.03l-.37.22c-1.12-1.69-2.39-3.3-3.34-5.09-3.33-6.25-4.98-13.03-5.94-19.99-.56-4.07-1.08-8.15-1.87-12.2.14,2.59.25,5.18.44,7.76.47,6.47,1.32,12.87,3.54,19.02,1.35,3.75,3.17,7.24,5.5,10.47.18.25.35.52.53.79-2.22,1.51-3.78.02-5.68-1.33.3.65.47,1,.58,1.24-1.66.2-3.32.36-4.98.59-2.08.28-4.08.23-5.97-1.53.24.68.37,1.07.54,1.57-1.28,0-2.48.03-3.69-.01-3.47-.14-6.95-.45-10.42-.44-6.91.02-13.82.21-20.73.33-.44,0-.88,0-1.32,0-18.44-.03-36.88-.03-55.32-.1-5.43-.02-10.87-.21-16.3-.39-1.47-.05-2.95-.27-4.4-.55-4.87-.94-8.43-3.6-10.64-8.1-3.45-7.03-5.37-14.51-6.6-22.19-1.36-8.52-1.89-17.09-1.16-25.69.92-10.98,3.11-21.65,7.94-31.66,3.1-6.42,8.31-9.35,15.27-9.47,2.12-.04,4.24-.03,6.36-.03,7.04-.02,14.08-.03,21.12-.05,13.44-.03,26.88-.05,40.32-.1,12.8-.05,25.59-.11,38.39-.18,5.16-.03,10.31-.09,15.47-.13.39,0,.77,0,1.5,0-3.91,3.76-6.21,7.99-6.39,12.89,1.25-2.43,2.57-5.12,4.02-7.74.59-1.07,1.38-2.07,2.22-2.96,1.96-2.07,4.2-2.43,6.58-.82,1.87,1.27,3.51,2.88,5.24,4.35.57.49,1.09,1.04,1.45,1.38-1.75,1.91-3.62,3.62-5.08,5.62-2.65,3.64-3.51,8.01-4.37,12.32-1.89,9.41-2.77,18.91-2.38,28.49.34,8.4,1.15,16.75,3.73,24.81,1.46,4.56,4.07,8.39,7.87,11.36.47.37.69.66.43,1.28-1.23,3-3.2,5.22-6.36,6.25-1.59.52-3.01.37-4.07-1.08-1.58-2.16-3.14-4.33-4.71-6.5-.16-.22-.31-.43-.47-.65-.11.03-.21.07-.32.1Zm-7.66-52.44c.12,0,.24-.02.36-.02.04-.1.11-.2.13-.31.68-4.81,1.36-9.63,2.02-14.44.03-.21-.15-.45-.23-.68-.19.23-.51.45-.55.7-.62,4.62-1.21,9.25-1.79,13.87-.04.28.04.58.06.88Zm11.39-28.18c-.18-.09-.37-.19-.55-.28-.91,1.88-1.82,3.76-2.7,5.66-.04.08.22.31.42.56.99-2.07,1.91-4.01,2.83-5.94Z"/>
        <path class="cls-2" d="m269.8,131.5c.18.81.31,1.39.44,1.97.08,0,.15,0,.23.01.1-.98.19-1.96.29-2.94.11,0,.22,0,.33,0v5.5c.14,0,.29,0,.44,0,0-2.16,0-4.32,0-6.49.16,0,.31-.01.47-.02.14,1.7.28,3.39.42,5.09.07,0,.14.01.22.02,0-2.04,0-4.09,0-6.13.16-.01.32-.03.48-.04.15,1.11.3,2.22.48,3.56.44-1.88.1-3.66.7-5.26.11,0,.22.02.33.02.05.13.15.27.14.4-.74,9.12-1.27,18.26-3.93,27.1-.86,2.85-2.02,5.56-3.83,7.94-.5.66-1.09,1.3-1.76,1.76-1.34.92-2.85.62-4.18-.78-1.87-1.96-3.31-4.18-4.18-6.78-2.16-6.45-3.24-13.11-3.73-19.85-.42-5.73-.73-11.49-.65-17.24.1-6.66,1.45-13.17,3.64-19.48,1.06-3.05,2.73-5.78,4.77-8.27,2.06-2.52,4.89-2.44,6.51.38,1.75,3.07,3.1,6.38,4.57,9.61.15.33-.06.83-.1,1.25-.1,0-.21.02-.31.02-1.16-2.85-2.31-5.69-3.47-8.54-.11.04-.22.07-.33.11.06.28.09.56.17.83.85,2.7,1.72,5.4,2.55,8.11.1.32-.02.7-.03,1.05-.26-.26-.63-.48-.76-.8-.39-.99-.7-2.02-1.22-2.99.19,1.21.38,2.42.56,3.64-.08.02-.17.05-.25.07-.27-.63-.53-1.27-.8-1.9l-.25.05c.22,1.4.45,2.8.69,4.34-.26-.19-.43-.33-.61-.46-.08.05-.18.07-.21.12-1.86,4.15-3.71,8.3-5.57,12.46-1.56,3.5-2.44,7.1-1.48,11.08-.61-.04-1.12-.03-1.61-.12-1.25-.26-1.99.36-2.19,1.47-.25,1.36-.34,2.77-.4,4.16-.2,4.64-.3,9.27.77,13.84.72,3.04,1.98,5.82,4.03,8.2,2.01,2.33,4.19,2.06,5.56-.68,1.24-2.48,1.64-5.16,1.89-7.88.27-2.9.49-5.81.72-8.72.19-2.42-.53-4.42-2.9-5.74,1.1-1.02,2.14-1.99,3.31-3.07Z"/>
        <path class="cls-2" d="m273.76,101.1c-.59-1.27-1.07-2.39-1.62-3.48-.95-1.89-1.9-3.78-2.93-5.62-.38-.69-.93-1.3-1.51-1.85-2.04-1.94-4.56-2.1-6.7-.27-1.04.89-1.94,2.02-2.69,3.18-3.52,5.43-5.53,11.45-6.27,17.82-1.72,14.97-.63,29.77,3.29,44.32.68,2.51,1.96,4.87,3.11,7.23.42.86,1.2,1.6,1.94,2.26,1.82,1.62,4.19,1.85,6,.24,1.43-1.27,2.66-2.88,3.6-4.55,2.54-4.53,3.66-9.54,4.24-14.64.69-6.11,1.16-12.25,1.77-18.37.14-1.35.49-2.68.74-4.02.15,0,.31.01.46.02.11.35.32.7.32,1.04-.13,11.43-.9,22.77-4.75,33.66-.98,2.78-2.37,5.33-4.64,7.31-2.75,2.39-5.22,2.44-8.07.16-3.77-3.01-5.85-7.12-7.4-11.55-1.71-4.86-2.38-9.93-2.85-15.03-.67-7.26-.79-14.52-.22-21.79.51-6.55,1.52-13.02,3.24-19.36.89-3.27,2.46-6.24,4.49-8.95,2.81-3.75,6.16-4.23,9.97-1.51,3.61,2.57,5.26,6.32,6.33,10.42.23.88.39,1.78.55,2.68.02.13-.18.3-.39.64Z"/>
        <path class="cls-2" d="m109.14,171.49c-2.77-.74-4.74-2.08-6.14-4.29-3.39-5.36-5.2-11.28-6.34-17.45-1.26-6.81-1.84-13.7-1.79-20.62.08-11.74,1.85-23.25,5.41-34.43.94-2.97,2.46-5.81,4.04-8.52.76-1.31,2.26-2.19,3.42-3.27.15.07.29.14.44.2-.1.45-.11.95-.32,1.34-3.04,5.74-5.38,11.75-6.98,18.05-2.49,9.81-3.13,19.77-2.65,29.85.37,7.73,1.73,15.31,3.28,22.87,1.11,5.45,3.7,10.26,6.71,14.86.26.4.52.8.92,1.41Z"/>
        <path class="cls-2" d="m278.14,101.07c1.44-.06,2.55.62,3.54,1.54,3.03,2.82,3.46,7.1,1.07,11.06-2.65,4.4-5.88,8.36-9.43,12.06-2.02,2.1-4.12,4.13-6.19,6.18-.28.28-.58.55-.9.79-1.37,1.01-2.42.87-3.1-.67-1.22-2.73-2.37-5.53-1.15-8.6.82-2.07,1.46-4.24,2.54-6.17,2.38-4.25,4.94-8.39,7.53-12.52,1.38-2.21,3.4-3.55,6.1-3.66Zm-9.59,26.46c.61-.3,1.36-.47,1.82-.93,2.41-2.39,4.74-4.85,7.11-7.27.77-.79.86-1.69.21-2.48-1.55-1.87-3.16-3.7-4.84-5.46-.79-.82-2.42-.65-2.94.24-1.83,3.17-3.73,6.32-5.39,9.58-1.54,3.02.47,6.02,4.02,6.31Zm13.9-17.34c-.26-2.4-1.2-4.53-3.29-6.02-.54-.38-1.2-.64-1.84-.8-1.7-.4-3.27.44-4.23,2.18-.81,1.46-.58,2.47.83,3.92.89.91,1.73,1.88,2.62,2.78.78.79,1.6,1.54,2.43,2.29.57.52,1.11.48,1.65-.1,1.11-1.18,1.75-2.54,1.83-4.26Zm-17.69,21.84q1.74-2.05-.2-4c-1.8,1.12-1.78,1.46.2,4Z"/>
        <path class="cls-1" d="m249.21,153.14c1.85,4,3.7,7.99,5.55,11.99-3.81-3.08-4.78-7.49-5.55-11.99Z"/>
        <path class="cls-1" d="m236.37,114.03c-.02-.29-.09-.59-.06-.88.58-4.63,1.17-9.25,1.79-13.87.03-.25.36-.47.55-.7.08.23.26.47.23.68-.66,4.82-1.34,9.63-2.02,14.44-.02.11-.08.21-.13.31-.12,0-.24.02-.36.02Z"/>
        <path class="cls-1" d="m239.88,167.06c-2.04-1.7-4.28-9.11-3.85-12.89,1.27,4.25,2.54,8.5,3.85,12.89Z"/>
        <path class="cls-1" d="m247.77,85.86c-.92,1.93-1.85,3.87-2.83,5.94-.2-.25-.46-.48-.42-.56.88-1.89,1.79-3.77,2.7-5.66.18.09.37.19.55.28Z"/>
        <path class="cls-1" d="m257.6,99.92c-.76,3.02-1.52,6.04-2.35,9.35-.27-.43-.5-.63-.46-.76.72-2.92,1.46-5.84,2.21-8.75.2.05.4.11.61.16Z"/>
        <path class="cls-1" d="m254.1,117.03l-.02,11.06c-.07,0-.13,0-.2,0,0-3.68.01-7.36.02-11.04.07,0,.13-.01.2-.02Z"/>
        <path class="cls-1" d="m268.56,127.53c-3.55-.3-5.56-3.29-4.02-6.31,1.66-3.26,3.56-6.41,5.39-9.58.51-.89,2.15-1.07,2.94-.24,1.68,1.76,3.29,3.59,4.84,5.46.65.79.56,1.69-.21,2.48-2.37,2.42-4.7,4.89-7.11,7.27-.46.46-1.21.63-1.82.93Zm2.86-4.24c.09-.01.18-.03.27-.04.05-.7.1-1.39.15-2.09.26.24.27.49.39.68.18.3.43.55.64.82.1-.33.32-.67.29-.99-.24-2.83-.49-5.65-.84-8.47-.06-.49-.58-.92-.89-1.38-.43.29-1.04.49-1.25.89-1.58,3-3.11,6.03-4.58,9.08-.71,1.47-.35,2.79.76,3.5,1.11.71,1.67.51,3.02-.94.29-.31.74-.48,1.29-.82.03-.14.11-.55.23-1.11.24.4.38.62.52.85Zm2.49-2.18c1.28-2.36.95-5.66-.55-7.02.19,2.41.37,4.71.55,7.02Z"/>
        <path class="cls-1" d="m282.45,110.19c-.08,1.72-.72,3.08-1.83,4.26-.54.58-1.08.62-1.65.1-.82-.75-1.64-1.5-2.43-2.29-.9-.91-1.73-1.87-2.62-2.78-1.42-1.45-1.64-2.46-.83-3.92.96-1.74,2.53-2.58,4.23-2.18.64.15,1.31.42,1.84.8,2.09,1.48,3.02,3.62,3.29,6.02Zm-5.76-5.25c.63,3.04-.45,6.58,2.91,8.73,2.4-3.79.29-7.92-2.91-8.73Zm-.9.33c-1.94,1.68-1.67,3.4.55,4.3-.18-1.41-.35-2.77-.55-4.3Z"/>
        <path class="cls-1" d="m264.76,132.03c-1.98-2.54-1.99-2.89-.2-4q1.94,1.95.2,4Z"/>
        <path class="cls-2" d="m271.42,123.29c-.14-.23-.28-.45-.52-.85-.12.56-.2.97-.23,1.11-.55.34-1,.5-1.29.82-1.34,1.45-1.91,1.65-3.02.94-1.11-.71-1.47-2.02-.76-3.5,1.47-3.06,3-6.08,4.58-9.08.21-.4.82-.6,1.25-.89.31.46.83.89.89,1.38.35,2.81.6,5.64.84,8.47.03.32-.19.66-.29.99-.22-.27-.47-.53-.64-.82-.12-.19-.13-.45-.39-.68-.05.7-.1,1.39-.15,2.09-.09.01-.18.03-.27.04Z"/>
        <path class="cls-2" d="m273.9,121.11c-.18-2.3-.36-4.61-.55-7.02,1.5,1.36,1.82,4.66.55,7.02Z"/>
        <path class="cls-2" d="m276.69,104.94c3.2.81,5.31,4.94,2.91,8.73-3.36-2.15-2.28-5.7-2.91-8.73Z"/>
        <path class="cls-2" d="m275.79,105.27c.19,1.53.37,2.89.55,4.3-2.22-.9-2.49-2.62-.55-4.3Z"/>
      </g>
      <polygon class="cls-4" points="578.79 219.7 578.86 219.77 578.78 219.79 578.79 219.7"/>
    </g>
  </g>
  <g class="cls-3">
    <path class="cls-6" d="m272.93,146.26c3.11,10.32,15.77,14.62,26.77,17.05,31.89,7.06,65.05,11.36,97.38,6.4,4.27-.66,8.76-1.46,12.84-.09,5.07,1.7,8.28,6.3,12.12,9.87,10.99,10.21,27.84,12.25,43.14,10.93,15.3-1.32,30.35-5.41,45.71-5.27,14.71.14,29.04,4.15,43.6,6.21,41.56,5.88,85.22-4.09,125.35,7.77,15,4.43,32.49,11.5,45.09,2.58,3.49-2.47,6.06-5.92,8.56-9.31,8.61-11.66,17.49-23.96,19.3-38.1.47-3.7.35-7.76-1.99-10.75-1.56-1.99-3.91-3.27-6.23-4.41-17.89-8.8-38.22-13.07-58.34-12.24-18.79.77-37.06,5.86-55.68,8.36-28.66,3.85-57.82,1.54-86.71,3.22-21.4,1.25-42.67,4.69-64.12,4.76-27.34.09-54.66-5.32-81.88-2.92-24.32,2.15-48.38,10.51-72.59,7.42-10.86-1.38-21.24-5.03-31.95-7.21-11.53-2.35-23.45-2.98-35.18-1.87,4.29,3.19,8.57,6.39,12.86,9.58l1.98-2Z"/>
    <path class="cls-6" d="m271.49,146.66c4.08,12.65,19.15,16.24,30.61,18.71,17.54,3.78,35.33,6.67,53.27,7.64,9.18.5,18.38.48,27.55-.2,4.24-.31,8.47-.77,12.68-1.37s9.14-1.82,13.51-.49c3.67,1.12,6.35,3.98,8.93,6.66,2.44,2.54,4.97,4.91,7.93,6.84,5.92,3.86,12.84,6.01,19.79,7.03,16.32,2.39,32.38-1.49,48.5-3.63,8.97-1.19,17.9-1.53,26.91-.53s17.94,3.01,26.9,4.54c34.56,5.92,69.54.34,104.26,3.66,8.71.83,17.38,2.29,25.8,4.68,7.46,2.11,14.77,4.8,22.4,6.26,6.78,1.3,14.03,1.73,20.54-.95,7.1-2.92,11.37-9.13,15.74-15.11,4.78-6.54,9.46-13.24,12.86-20.62,2.92-6.35,5.63-14.04,4.67-21.14-1.09-8.05-8.8-10.91-15.43-13.7-7.45-3.14-15.22-5.54-23.15-7.14-16.95-3.43-33.92-2.79-50.9,0-8.81,1.45-17.55,3.28-26.36,4.76s-18.35,2.51-27.61,3.02c-18.32,1-36.67.45-55.01.93-18.5.49-36.82,2.86-55.26,4.31-18.65,1.46-37.02.6-55.63-.89-18.22-1.45-36.44-2.65-54.64-.24-17.67,2.34-35.11,7.09-53.02,7.25s-34.76-7-52.52-9.29c-8.86-1.14-17.81-1.27-26.71-.46-1.54.14-1.97,1.89-.76,2.8,4.29,3.19,8.57,6.39,12.86,9.58.52.39,1.39.2,1.82-.23l1.98-2c1.36-1.37-.76-3.5-2.12-2.12l-1.98,2,1.82-.23c-4.29-3.19-8.57-6.39-12.86-9.58l-.76,2.8c8.89-.81,17.85-.69,26.71.46,8.77,1.14,17.25,3.58,25.81,5.72s16.4,3.5,24.85,3.57c8.55.07,17.06-.97,25.49-2.32,17.6-2.82,34.82-6.47,52.73-6.38s35.64,2.4,53.48,3.23c17.88.84,35.58-.74,53.35-2.5,17.91-1.77,35.72-2.62,53.71-2.7,17.83-.08,35.71,0,53.44-2.12s34.19-6.63,51.53-8.25c16.68-1.56,33.52.19,49.46,5.4,4.07,1.33,8.07,2.87,11.97,4.65,3.43,1.56,7.77,3.16,9.7,6.63,1.85,3.33,1.25,7.67.55,11.23-.78,3.96-2.1,7.81-3.79,11.47-3.28,7.12-7.75,13.61-12.35,19.93s-9.34,13.34-17.57,15.48c-7.15,1.86-14.76.37-21.76-1.47-7.59-2-14.96-4.71-22.61-6.46-32.86-7.55-66.79-2.55-100.11-4.2-8.78-.43-17.47-1.43-26.13-2.98s-16.54-3.23-24.91-4.19c-8.75-1.01-17.44-.78-26.18.32-8.56,1.08-17.03,2.74-25.6,3.75-14.28,1.69-30.29,1.49-42.68-6.79-5.72-3.82-9.46-10.51-15.97-13.13-3.41-1.38-7.09-1.27-10.68-.82-4.3.54-8.57,1.27-12.89,1.7-17.54,1.74-35.25.97-52.7-1.29-8.87-1.15-17.69-2.68-26.45-4.46-7.17-1.46-14.56-2.79-21.31-5.71-5.55-2.41-10.86-6.07-12.8-12.07-.59-1.83-3.49-1.05-2.89.8Z"/>
  </g>
</svg>